Junicode-width-oldkerning.glyphspackage
{
glyphname = ampersand;
layers = (
{
anchors = (
{
name = bottom;
pos = (242,0);
},
{
name = top;
pos = (277,663);
}
);
layerId = master01;
shapes = (
{
closed = 1;
nodes = (
(328,-13,o),
(406,32,o),
(476,123,c),
(538,32,o),
(598,-13,o),
(674,-13,cs),
(728,-13,o),
(781,11,o),
(815,62,cs),
(819,68,o),
(805,80,o),
(800,75,cs),
(775,51,o),
(748,37,o),
(702,37,cs),
(639,37,o),
(601,62,o),
(520,180,c),
(610,297,ls),
(653,353,o),
(683,387,o),
(700,398,cs),
(717,410,o),
(742,416,o),
(776,416,cs),
(785,416,o),
(785,444,o),
(776,444,c),
(757,442,o),
(717,441,o),
(658,441,cs),
(599,441,o),
(560,442,o),
(542,444,c),
(533,444,o),
(533,416,o),
(542,416,cs),
(591,416,o),
(616,407,o),
(616,389,cs),
(616,371,o),
(592,331,o),
(544,269,cs),
(499,211,l),
(438,300,o),
(373,371,o),
(303,421,c),
(371,446,o),
(407,492,o),
(407,550,cs),
(407,621,o),
(353,670,o),
(277,670,cs),
(193,670,o),
(126,609,o),
(126,532,cs),
(126,483,o),
(154,440,o),
(210,400,c),
(70,331,o),
(37,262,o),
(37,183,cs),
(37,54,o),
(122,-13,o),
(242,-13,cs)
);
},
{
closed = 1;
nodes = (
(179,48,o),
(108,107,o),
(108,201,cs),
(108,274,o),
(150,333,o),
(235,382,c),
(321,320,o),
(394,244,o),
(455,154,c),
(400,83,o),
(339,48,o),
(271,48,cs)
);
},
{
closed = 1;
nodes = (
(221,480,o),
(193,519,o),
(193,559,cs),
(193,598,o),
(221,640,o),
(268,640,cs),
(313,640,o),
(341,602,o),
(341,548,cs),
(341,500,o),
(320,463,o),
(278,439,c)
);
}
);
width = 832;
},
{
anchors = (
{
name = bottom;
pos = (242,0);
},
{
name = top;
pos = (272,663);
}
);
layerId = "75918100-ED89-42A8-B0FE-888EB9C86810";
shapes = (
{
closed = 1;
nodes = (
(319,-14,o),
(395,24,o),
(468,97,c),
(521,23,o),
(592,-14,o),
(672,-14,cs),
(731,-14,o),
(800,17,o),
(834,78,cs),
(838,85,o),
(815,104,o),
(809,98,cs),
(788,77,o),
(753,66,o),
(718,66,cs),
(651,66,o),
(597,106,o),
(543,187,c),
(619,296,ls),
(641,327,o),
(661,355,o),
(681,371,cs),
(705,390,o),
(740,400,o),
(785,400,cs),
(794,400,o),
(794,449,o),
(785,449,c),
(768,447,o),
(728,445,o),
(667,445,cs),
(606,445,o),
(562,447,o),
(534,449,c),
(525,449,o),
(525,400,o),
(534,400,cs),
(575,400,o),
(595,390,o),
(595,371,cs),
(595,359,o),
(579,328,o),
(544,278,cs),
(513,233,l),
(460,309,o),
(401,370,o),
(337,415,c),
(396,450,o),
(425,490,o),
(425,540,cs),
(425,611,o),
(361,670,o),
(272,670,cs),
(188,670,o),
(108,608,o),
(108,521,cs),
(108,470,o),
(135,426,o),
(188,387,c),
(76,329,o),
(19,257,o),
(19,173,cs),
(19,67,o),
(105,-14,o),
(242,-14,cs)
);
},
{
closed = 1;
nodes = (
(188,44,o),
(126,110,o),
(126,202,cs),
(126,265,o),
(161,317,o),
(230,359,c),
(307,307,o),
(377,233,o),
(441,136,c),
(386,75,o),
(333,44,o),
(283,44,cs)
);
},
{
closed = 1;
nodes = (
(238,477,o),
(211,504,o),
(211,552,cs),
(211,590,o),
(229,622,o),
(269,622,cs),
(308,622,o),
(330,591,o),
(330,538,cs),
(330,497,o),
(317,468,o),
(291,443,c)
);
}
);
width = 831;
},
{
anchors = (
{
name = bottom;
pos = (242,0);
},
{
name = top;
pos = (278,663);
}
);
layerId = "6ABD9449-5E80-4451-809E-12ADEB9E9AB4";
shapes = (
{
closed = 1;
nodes = (
(331,-13,o),
(410,35,o),
(479,132,c),
(544,35,o),
(600,-13,o),
(674,-13,cs),
(727,-13,o),
(771,13,o),
(808,56,cs),
(813,62,o),
(802,72,o),
(797,67,cs),
(771,42,o),
(747,27,o),
(696,27,cs),
(635,27,o),
(602,46,o),
(512,178,c),
(607,297,ls),
(658,361,o),
(690,397,o),
(707,408,cs),
(721,417,o),
(743,421,o),
(773,421,cs),
(782,421,o),
(782,442,o),
(773,442,c),
(753,440,o),
(714,439,o),
(655,439,cs),
(597,439,o),
(560,440,o),
(544,442,c),
(535,442,o),
(535,421,o),
(544,421,cs),
(597,421,o),
(623,413,o),
(623,395,cs),
(623,375,o),
(598,331,o),
(544,265,cs),
(494,204,l),
(431,297,o),
(363,371,o),
(292,423,c),
(362,444,o),
(401,493,o),
(401,553,cs),
(401,624,o),
(350,670,o),
(278,670,cs),
(195,670,o),
(132,609,o),
(132,536,cs),
(132,488,o),
(160,445,o),
(217,404,c),
(68,332,o),
(43,263,o),
(43,187,cs),
(43,50,o),
(127,-13,o),
(242,-13,cs)
);
},
{
closed = 1;
nodes = (
(176,49,o),
(102,106,o),
(102,201,cs),
(102,277,o),
(147,337,o),
(237,390,c),
(326,324,o),
(400,248,o),
(460,160,c),
(405,85,o),
(341,49,o),
(267,49,cs)
);
},
{
closed = 1;
nodes = (
(216,481,o),
(187,523,o),
(187,562,cs),
(187,600,o),
(218,646,o),
(267,646,cs),
(314,646,o),
(344,606,o),
(344,551,cs),
(344,500,o),
(321,462,o),
(273,438,c)
);
}
);
width = 833;
},
{
anchors = (
{
name = bottom;
pos = (198,0);
},
{
name = top;
pos = (226,663);
}
);
guides = (
{
angle = 239.6764;
pos = (425,245);
},
{
angle = 59.404;
pos = (462,240);
}
);
layerId = "70B83247-6FA0-4662-9656-C86DD2A17D3B";
shapes = (
{
closed = 1;
nodes = (
(265,-14,o),
(327,30,o),
(384,115,c),
(431,29,o),
(482,-14,o),
(544,-14,cs),
(589,-14,o),
(639,10,o),
(664,70,cs),
(667,77,o),
(653,88,o),
(648,82,cs),
(630,60,o),
(607,46,o),
(572,46,cs),
(521,46,o),
(485,75,o),
(428,182,c),
(499,302,ls),
(525,346,o),
(549,381,o),
(563,395,cs),
(579,410,o),
(603,416,o),
(629,416,cs),
(638,416,o),
(638,445,o),
(629,445,c),
(613,443,o),
(579,442,o),
(534,442,cs),
(492,442,o),
(454,443,o),
(437,445,c),
(428,445,o),
(428,416,o),
(437,416,cs),
(477,416,o),
(495,407,o),
(495,389,cs),
(495,373,o),
(477,334,o),
(443,276,cs),
(409,218,l),
(362,305,o),
(310,372,o),
(258,419,c),
(310,447,o),
(336,492,o),
(336,547,cs),
(336,618,o),
(290,670,o),
(226,670,cs),
(159,670,o),
(101,608,o),
(101,529,cs),
(101,480,o),
(123,436,o),
(167,396,c),
(63,331,o),
(30,260,o),
(30,180,cs),
(30,58,o),
(98,-14,o),
(199,-14,cs)
);
},
{
closed = 1;
nodes = (
(151,47,o),
(97,108,o),
(97,202,cs),
(97,271,o),
(128,328,o),
(192,375,c),
(258,316,o),
(315,242,o),
(365,148,c),
(321,81,o),
(275,47,o),
(226,47,cs)
);
},
{
closed = 1;
nodes = (
(187,479,o),
(165,515,o),
(165,557,cs),
(165,595,o),
(185,635,o),
(220,635,cs),
(254,635,o),
(275,599,o),
(275,545,cs),
(275,499,o),
(260,465,o),
(231,440,c)
);
}
);
width = 677;
},
{
anchors = (
{
name = bottom;
pos = (286,0);
},
{
name = top;
pos = (328,663);
}
);
layerId = "9E6FDE2E-55A6-44A9-9556-F1822294BF26";
shapes = (
{
closed = 1;
nodes = (
(391,-12,o),
(485,34,o),
(568,131,c),
(645,35,o),
(714,-12,o),
(804,-12,cs),
(867,-12,o),
(923,12,o),
(966,57,cs),
(971,62,o),
(958,73,o),
(952,68,cs),
(920,42,o),
(889,28,o),
(832,28,cs),
(757,28,o),
(717,49,o),
(612,178,c),
(721,292,ls),
(785,359,o),
(817,393,o),
(837,401,cs),
(855,410,o),
(881,416,o),
(923,416,cs),
(932,416,o),
(932,443,o),
(923,443,c),
(901,441,o),
(855,440,o),
(782,440,cs),
(706,440,o),
(666,441,o),
(647,443,c),
(638,443,o),
(638,416,o),
(647,416,cs),
(705,416,o),
(737,407,o),
(737,389,cs),
(737,369,o),
(708,327,o),
(645,262,cs),
(589,204,l),
(514,295,o),
(436,370,o),
(348,423,c),
(432,445,o),
(478,492,o),
(478,553,cs),
(478,624,o),
(416,670,o),
(328,670,cs),
(227,670,o),
(151,610,o),
(151,535,cs),
(151,486,o),
(185,444,o),
(253,404,c),
(77,331,o),
(44,264,o),
(44,186,cs),
(44,50,o),
(146,-12,o),
(285,-12,cs)
);
},
{
closed = 1;
nodes = (
(207,49,o),
(119,106,o),
(119,200,cs),
(119,277,o),
(172,338,o),
(278,389,c),
(384,324,o),
(473,246,o),
(545,160,c),
(479,85,o),
(403,49,o),
(316,49,cs)
);
},
{
closed = 1;
nodes = (
(255,481,o),
(221,523,o),
(221,561,cs),
(221,601,o),
(257,645,o),
(316,645,cs),
(372,645,o),
(407,605,o),
(407,551,cs),
(407,501,o),
(380,461,o),
(325,438,c)
);
}
);
width = 987;
},
{
anchors = (
{
name = bottom;
pos = (242,0);
},
{
name = top;
pos = (277,663);
}
);
layerId = "00F4936D-6309-4DEC-83B3-42806ED1A477";
shapes = (
{
closed = 1;
nodes = (
(328,-13,o),
(406,32,o),
(476,123,c),
(538,32,o),
(598,-13,o),
(674,-13,cs),
(728,-13,o),
(781,11,o),
(815,62,cs),
(819,68,o),
(805,80,o),
(800,75,cs),
(775,51,o),
(748,37,o),
(702,37,cs),
(639,37,o),
(601,62,o),
(520,180,c),
(610,297,ls),
(653,353,o),
(683,387,o),
(700,398,cs),
(717,410,o),
(742,416,o),
(776,416,cs),
(785,416,o),
(785,444,o),
(776,444,c),
(757,442,o),
(717,441,o),
(658,441,cs),
(599,441,o),
(560,442,o),
(542,444,c),
(533,444,o),
(533,416,o),
(542,416,cs),
(591,416,o),
(616,407,o),
(616,389,cs),
(616,371,o),
(592,331,o),
(544,269,cs),
(499,211,l),
(438,300,o),
(373,371,o),
(303,421,c),
(371,446,o),
(407,492,o),
(407,550,cs),
(407,621,o),
(353,670,o),
(277,670,cs),
(193,670,o),
(126,609,o),
(126,532,cs),
(126,483,o),
(154,440,o),
(210,400,c),
(70,331,o),
(37,262,o),
(37,183,cs),
(37,54,o),
(122,-13,o),
(242,-13,cs)
);
},
{
closed = 1;
nodes = (
(179,48,o),
(108,107,o),
(108,201,cs),
(108,274,o),
(150,333,o),
(235,382,c),
(321,320,o),
(394,244,o),
(455,154,c),
(400,83,o),
(339,48,o),
(271,48,cs)
);
},
{
closed = 1;
nodes = (
(221,480,o),
(193,519,o),
(193,559,cs),
(193,598,o),
(221,640,o),
(268,640,cs),
(313,640,o),
(341,602,o),
(341,548,cs),
(341,500,o),
(320,463,o),
(278,439,c)
);
}
);
width = 832;
}
);
unicode = 38;
}
{
glyphname = quotesingle;
layers = (
{
layerId = master01;
shapes = (
{
closed = 1;
nodes = (
(115,457,o),
(121,458,o),
(121,461,cs),
(128,517,o),
(134,564,o),
(141,604,cs),
(147,643,o),
(150,669,o),
(150,682,cs),
(150,709,o),
(134,723,o),
(104,723,cs),
(73,723,o),
(57,709,o),
(57,682,cs),
(57,669,o),
(61,643,o),
(67,604,cs),
(74,564,o),
(81,517,o),
(87,461,cs),
(87,458,o),
(93,457,o),
(104,457,cs)
);
}
);
width = 206;
},
{
layerId = "75918100-ED89-42A8-B0FE-888EB9C86810";
shapes = (
{
closed = 1;
nodes = (
(123,454,o),
(133,457,o),
(133,461,cs),
(133,481,o),
(146,553,o),
(157,603,cs),
(165,643,o),
(168,666,o),
(168,677,cs),
(168,706,o),
(146,723,o),
(104,723,cs),
(61,723,o),
(39,706,o),
(39,677,cs),
(39,661,o),
(42,643,o),
(50,603,cs),
(62,553,o),
(74,481,o),
(74,461,cs),
(74,457,o),
(84,454,o),
(104,454,cs)
);
}
);
width = 205;
},
{
layerId = "6ABD9449-5E80-4451-809E-12ADEB9E9AB4";
shapes = (
{
closed = 1;
nodes = (
(113,458,o),
(117,459,o),
(117,461,cs),
(126,528,o),
(130,568,o),
(135,604,cs),
(141,643,o),
(144,670,o),
(144,683,cs),
(144,711,o),
(130,723,o),
(104,723,cs),
(77,723,o),
(63,711,o),
(63,683,cs),
(63,671,o),
(67,643,o),
(73,604,cs),
(78,568,o),
(83,528,o),
(91,461,cs),
(92,459,o),
(96,458,o),
(104,458,cs)
);
}
);
width = 207;
},
{
layerId = "70B83247-6FA0-4662-9656-C86DD2A17D3B";
shapes = (
{
closed = 1;
nodes = (
(99,456,o),
(106,458,o),
(106,461,cs),
(110,516,o),
(116,556,o),
(123,603,cs),
(128,643,o),
(131,668,o),
(131,680,cs),
(131,708,o),
(116,723,o),
(88,723,cs),
(60,723,o),
(46,708,o),
(46,680,cs),
(46,668,o),
(47,652,o),
(54,604,cs),
(62,556,o),
(68,506,o),
(71,461,cs),
(71,458,o),
(78,456,o),
(88,456,cs)
);
}
);
width = 176;
},
{
layerId = "9E6FDE2E-55A6-44A9-9556-F1822294BF26";
shapes = (
{
closed = 1;
nodes = (
(131,458,o),
(135,459,o),
(136,461,cs),
(146,517,o),
(153,572,o),
(159,604,cs),
(166,643,o),
(169,670,o),
(169,683,cs),
(169,710,o),
(152,723,o),
(119,723,cs),
(85,723,o),
(68,711,o),
(68,683,cs),
(68,669,o),
(75,633,o),
(81,604,cs),
(86,572,o),
(93,527,o),
(103,461,cs),
(104,459,o),
(108,458,o),
(120,458,cs)
);
}
);
width = 236;
},
{
layerId = "00F4936D-6309-4DEC-83B3-42806ED1A477";
shapes = (
{
closed = 1;
nodes = (
(115,457,o),
(121,458,o),
(121,461,cs),
(128,517,o),
(134,564,o),
(141,604,cs),
(147,643,o),
(150,669,o),
(150,682,cs),
(150,709,o),
(134,723,o),
(104,723,cs),
(73,723,o),
(57,709,o),
(57,682,cs),
(57,669,o),
(61,643,o),
(67,604,cs),
(74,564,o),
(81,517,o),
(87,461,cs),
(87,458,o),
(93,457,o),
(104,457,cs)
);
}
);
width = 206;
}
);
unicode = 39;
}
{
glyphname = two;
layers = (
{
layerId = master01;
shapes = (
{
closed = 1;
nodes = (
(82,-1,o),
(141,0,o),
(201,0,cs),
(260,0,o),
(312,-1,o),
(356,-4,c),
(368,-4,o),
(376,1,o),
(381,12,cs),
(430,119,ls),
(431,122,o),
(430,125,o),
(419,129,cs),
(410,132,o),
(405,131,o),
(403,127,cs),
(381,80,o),
(343,67,o),
(271,67,cs),
(126,67,ls),
(116,67,o),
(111,69,o),
(111,74,cs),
(111,78,o),
(114,83,o),
(119,88,cs),
(258,243,ls),
(323,316,o),
(394,403,o),
(394,492,cs),
(394,584,o),
(338,651,o),
(242,651,cs),
(156,651,o),
(92,589,o),
(55,515,cs),
(53,511,o),
(57,507,o),
(66,501,cs),
(75,496,o),
(81,496,o),
(83,500,cs),
(116,559,o),
(156,589,o),
(203,589,cs),
(260,589,o),
(305,551,o),
(305,487,cs),
(305,370,o),
(187,210,o),
(8,24,cs),
(5,21,o),
(3,18,o),
(3,12,cs),
(3,2,o),
(10,-4,o),
(23,-4,c)
);
}
);
width = 467;
},
{
layerId = "75918100-ED89-42A8-B0FE-888EB9C86810";
shapes = (
{
closed = 1;
nodes = (
(83,-1,o),
(139,0,o),
(202,0,cs),
(268,0,o),
(307,-1,o),
(351,-4,c),
(372,-4,o),
(385,2,o),
(390,15,cs),
(438,130,ls),
(440,135,o),
(435,139,o),
(422,144,cs),
(408,149,o),
(399,148,o),
(396,142,cs),
(376,105,o),
(361,94,o),
(281,94,cs),
(165,94,ls),
(155,94,o),
(148,95,o),
(148,100,cs),
(148,104,o),
(152,110,o),
(160,118,cs),
(278,239,ls),
(362,325,o),
(412,421,o),
(412,483,cs),
(412,578,o),
(344,651,o),
(242,651,cs),
(165,651,o),
(97,599,o),
(53,515,cs),
(50,510,o),
(54,505,o),
(62,499,cs),
(73,491,o),
(81,491,o),
(85,498,cs),
(115,551,o),
(154,578,o),
(203,578,cs),
(258,578,o),
(287,545,o),
(287,478,cs),
(287,367,o),
(129,160,o),
(9,39,cs),
(2,32,o),
(-1,25,o),
(-1,17,cs),
(-1,4,o),
(8,-4,o),
(25,-4,c)
);
}
);
width = 466;
},
{
layerId = "6ABD9449-5E80-4451-809E-12ADEB9E9AB4";
shapes = (
{
closed = 1;
nodes = (
(81,-1,o),
(141,0,o),
(200,0,cs),
(258,0,o),
(314,-1,o),
(357,-4,c),
(366,-4,o),
(373,1,o),
(378,11,cs),
(428,116,ls),
(428,117,o),
(429,121,o),
(418,124,cs),
(410,126,o),
(407,125,o),
(405,122,cs),
(383,72,o),
(337,58,o),
(268,58,cs),
(113,58,ls),
(103,58,o),
(99,61,o),
(99,66,cs),
(99,69,o),
(101,73,o),
(105,78,cs),
(251,245,ls),
(311,313,o),
(388,397,o),
(388,495,cs),
(388,586,o),
(336,651,o),
(242,651,cs),
(153,651,o),
(90,586,o),
(56,515,cs),
(54,512,o),
(58,507,o),
(67,502,cs),
(75,498,o),
(81,497,o),
(83,500,cs),
(117,562,o),
(157,592,o),
(203,592,cs),
(261,592,o),
(311,553,o),
(311,490,cs),
(311,371,o),
(206,227,o),
(7,19,cs),
(6,17,o),
(4,16,o),
(4,10,cs),
(4,2,o),
(10,-4,o),
(22,-4,c)
);
}
);
width = 467;
},
{
layerId = "70B83247-6FA0-4662-9656-C86DD2A17D3B";
shapes = (
{
closed = 1;
nodes = (
(67,-1,o),
(112,0,o),
(162,0,cs),
(211,0,o),
(249,-1,o),
(284,-4,c),
(296,-4,o),
(305,2,o),
(309,13,cs),
(348,123,ls),
(349,125,o),
(346,130,o),
(338,133,cs),
(328,137,o),
(323,136,o),
(321,131,cs),
(303,83,o),
(276,75,o),
(221,75,cs),
(113,75,ls),
(106,75,o),
(101,77,o),
(101,82,cs),
(101,85,o),
(104,91,o),
(108,97,cs),
(214,241,ls),
(271,319,o),
(322,408,o),
(322,489,cs),
(322,582,o),
(273,651,o),
(195,651,cs),
(133,651,o),
(79,599,o),
(44,515,cs),
(43,511,o),
(45,507,o),
(53,500,cs),
(61,494,o),
(66,494,o),
(68,500,cs),
(93,556,o),
(125,585,o),
(164,585,cs),
(208,585,o),
(240,549,o),
(240,484,cs),
(240,369,o),
(132,193,o),
(8,28,cs),
(4,24,o),
(2,21,o),
(2,13,cs),
(2,3,o),
(9,-4,o),
(21,-4,c)
);
}
);
width = 384;
},
{
layerId = "9E6FDE2E-55A6-44A9-9556-F1822294BF26";
shapes = (
{
closed = 1;
nodes = (
(96,-1,o),
(169,0,o),
(239,0,cs),
(309,0,o),
(375,-1,o),
(428,-4,c),
(439,-4,o),
(447,1,o),
(453,11,cs),
(513,116,ls),
(514,118,o),
(514,121,o),
(501,125,cs),
(491,126,o),
(486,126,o),
(484,123,cs),
(460,77,o),
(410,59,o),
(321,59,cs),
(139,59,ls),
(126,59,o),
(122,62,o),
(122,66,cs),
(122,70,o),
(124,74,o),
(130,79,cs),
(302,245,ls),
(375,313,o),
(466,397,o),
(466,495,cs),
(466,586,o),
(403,651,o),
(290,651,cs),
(180,651,o),
(105,580,o),
(66,516,cs),
(63,512,o),
(68,506,o),
(79,502,cs),
(89,498,o),
(95,497,o),
(98,500,cs),
(139,562,o),
(187,592,o),
(243,592,cs),
(312,592,o),
(371,553,o),
(371,489,cs),
(371,370,o),
(241,227,o),
(8,20,cs),
(5,17,o),
(3,15,o),
(3,10,cs),
(3,2,o),
(11,-4,o),
(25,-4,c)
);
}
);
width = 549;
},
{
layerId = "00F4936D-6309-4DEC-83B3-42806ED1A477";
shapes = (
{
closed = 1;
nodes = (
(82,-1,o),
(141,0,o),
(201,0,cs),
(260,0,o),
(312,-1,o),
(356,-4,c),
(368,-4,o),
(376,1,o),
(381,12,cs),
(430,119,ls),
(431,122,o),
(430,125,o),
(419,129,cs),
(410,132,o),
(405,131,o),
(403,127,cs),
(381,80,o),
(343,67,o),
(271,67,cs),
(126,67,ls),
(116,67,o),
(111,69,o),
(111,74,cs),
(111,78,o),
(114,83,o),
(119,88,cs),
(258,243,ls),
(323,316,o),
(394,403,o),
(394,492,cs),
(394,584,o),
(338,651,o),
(242,651,cs),
(156,651,o),
(92,589,o),
(55,515,cs),
(53,511,o),
(57,507,o),
(66,501,cs),
(75,496,o),
(81,496,o),
(83,500,cs),
(116,559,o),
(156,589,o),
(203,589,cs),
(260,589,o),
(305,551,o),
(305,487,cs),
(305,370,o),
(187,210,o),
(8,24,cs),
(5,21,o),
(3,18,o),
(3,12,cs),
(3,2,o),
(10,-4,o),
(23,-4,c)
);
}
);
width = 467;
}
);
metricWidth = zero;
unicode = 50;
}
{
glyphname = A;
kernLeft = A;
kernRight = A;
layers = (
{
anchors = (
{
name = bottom;
pos = (325,0);
},
{
name = ogonek;
pos = (604,0);
},
{
name = ogonek_above;
pos = (356,653);
},
{
name = top;
pos = (339,663);
},
{
name = zzcurly;
pos = (358,655);
}
);
layerId = master01;
shapes = (
{
closed = 1;
nodes = (
(40,-1,o),
(74,0,o),
(109,0,cs),
(143,0,o),
(178,-1,o),
(212,-3,c),
(221,-3,o),
(221,34,o),
(212,34,cs),
(148,34,o),
(127,45,o),
(143,89,cs),
(204,257,l),
(434,257,l),
(487,91,ls),
(501,46,o),
(490,34,o),
(443,34,cs),
(434,34,o),
(433,-3,o),
(443,-3,c),
(480,-1,o),
(518,0,o),
(556,0,cs),
(593,0,o),
(630,-1,o),
(668,-3,c),
(677,-3,o),
(677,34,o),
(668,34,cs),
(618,34,o),
(589,46,o),
(574,91,cs),
(412,575,ls),
(404,597,o),
(396,624,o),
(388,656,cs),
(384,670,o),
(378,677,o),
(371,677,cs),
(367,677,o),
(356,671,o),
(339,659,cs),
(322,647,o),
(307,638,o),
(294,631,cs),
(281,624,o),
(274,619,o),
(274,617,cs),
(274,612,o),
(287,604,o),
(287,595,cs),
(287,590,o),
(286,585,o),
(284,580,cs),
(100,98,ls),
(79,42,o),
(63,34,o),
(5,34,cs),
(-4,34,o),
(-4,-3,o),
(5,-3,c)
);
},
{
closed = 1;
nodes = (
(322,581,l),
(330,581,l),
(421,296,l),
(218,296,l)
);
}
);
width = 683;
},
{
anchors = (
{
name = bottom;
pos = (333,0);
},
{
name = ogonek;
pos = (635,0);
},
{
name = ogonek_above;
pos = (373,653);
},
{
name = top;
pos = (356,663);
},
{
name = zzcurly;
pos = (383,655);
}
);
layerId = "75918100-ED89-42A8-B0FE-888EB9C86810";
shapes = (
{
closed = 1;
nodes = (
(42,-1,o),
(79,0,o),
(117,0,cs),
(154,0,o),
(191,-1,o),
(229,-3,c),
(238,-3,o),
(238,42,o),
(229,42,cs),
(165,42,o),
(146,55,o),
(163,98,cs),
(220,253,l),
(426,253,l),
(478,99,ls),
(492,57,o),
(483,42,o),
(436,42,cs),
(426,42,o),
(426,-3,o),
(436,-3,c),
(480,-1,o),
(524,0,o),
(568,0,cs),
(612,0,o),
(656,-1,o),
(700,-3,c),
(711,-3,o),
(711,42,o),
(700,42,cs),
(645,42,o),
(616,57,o),
(601,99,cs),
(433,575,ls),
(420,612,o),
(411,640,o),
(408,655,cs),
(404,670,o),
(397,678,o),
(386,678,cs),
(379,678,o),
(365,671,o),
(342,658,cs),
(320,645,o),
(303,635,o),
(292,632,cs),
(280,628,o),
(275,624,o),
(275,619,cs),
(275,613,o),
(289,604,o),
(289,598,cs),
(289,595,o),
(287,589,o),
(283,579,cs),
(102,106,ls),
(83,57,o),
(53,42,o),
(4,42,cs),
(-6,42,o),
(-6,-3,o),
(4,-3,c)
);
},
{
closed = 1;
nodes = (
(322,532,l),
(331,532,l),
(411,297,l),
(236,297,l)
);
}
);
width = 715;
},
{
anchors = (
{
name = bottom;
pos = (322,0);
},
{
name = ogonek;
pos = (592,0);
},
{
name = ogonek_above;
pos = (354,653);
},
{
name = top;
pos = (334,663);
},
{
name = zzcurly;
pos = (358,655);
}
);
layerId = "6ABD9449-5E80-4451-809E-12ADEB9E9AB4";
shapes = (
{
closed = 1;
nodes = (
(38,-1,o),
(72,0,o),
(105,0,cs),
(139,0,o),
(172,-1,o),
(206,-3,c),
(215,-3,o),
(216,31,o),
(206,31,cs),
(141,31,o),
(121,44,o),
(136,86,cs),
(198,258,l),
(436,258,l),
(490,88,ls),
(503,45,o),
(491,31,o),
(444,31,cs),
(436,31,o),
(435,-3,o),
(444,-3,c),
(480,-1,o),
(515,0,o),
(551,0,cs),
(586,0,o),
(622,-1,o),
(657,-3,c),
(665,-3,o),
(665,31,o),
(657,31,cs),
(608,31,o),
(578,47,o),
(564,88,cs),
(404,575,ls),
(398,592,o),
(390,619,o),
(380,656,cs),
(376,670,o),
(371,677,o),
(365,677,cs),
(362,677,o),
(353,671,o),
(337,660,cs),
(322,648,o),
(307,639,o),
(294,630,cs),
(280,622,o),
(273,618,o),
(273,617,cs),
(273,611,o),
(286,604,o),
(286,594,cs),
(286,589,o),
(285,584,o),
(284,581,cs),
(99,96,ls),
(79,44,o),
(65,31,o),
(4,31,cs),
(-4,31,o),
(-5,-3,o),
(4,-3,c)
);
},
{
closed = 1;
nodes = (
(321,595,l),
(330,595,l),
(424,295,l),
(212,295,l)
);
}
);
width = 671;
},
{
anchors = (
{
name = bottom;
pos = (263,0);
},
{
name = ogonek;
pos = (493,0);
},
{
name = ogonek_above;
pos = (290,653);
},
{
name = top;
pos = (276,663);
},
{
name = zzcurly;
pos = (295,655);
}
);
layerId = "70B83247-6FA0-4662-9656-C86DD2A17D3B";
shapes = (
{
closed = 1;
nodes = (
(33,-1,o),
(61,0,o),
(90,0,cs),
(118,0,o),
(147,-1,o),
(175,-3,c),
(183,-3,o),
(183,34,o),
(175,34,cs),
(122,34,o),
(108,47,o),
(121,92,cs),
(169,259,l),
(344,259,l),
(387,93,ls),
(399,48,o),
(395,34,o),
(353,34,cs),
(345,34,o),
(345,-3,o),
(353,-3,c),
(384,-1,o),
(417,0,o),
(448,0,cs),
(480,0,o),
(512,-1,o),
(544,-3,c),
(552,-3,o),
(552,34,o),
(544,34,cs),
(503,34,o),
(480,48,o),
(468,93,cs),
(336,575,ls),
(330,596,o),
(322,626,o),
(316,655,cs),
(313,670,o),
(309,678,o),
(301,678,cs),
(297,678,o),
(288,671,o),
(272,659,cs),
(261,649,o),
(243,636,o),
(234,631,cs),
(225,625,o),
(220,620,o),
(220,618,cs),
(220,612,o),
(230,604,o),
(230,596,cs),
(230,591,o),
(229,586,o),
(228,580,cs),
(81,101,ls),
(64,47,o),
(47,34,o),
(4,34,cs),
(-4,34,o),
(-4,-3,o),
(4,-3,c)
);
},
{
closed = 1;
nodes = (
(258,567,l),
(264,567,l),
(335,293,l),
(179,293,l)
);
}
);
width = 557;
},
{
anchors = (
{
name = bottom;
pos = (388,0);
},
{
name = ogonek;
pos = (714,0);
},
{
name = ogonek_above;
pos = (423,653);
},
{
name = top;
pos = (401,663);
},
{
name = zzcurly;
pos = (422,655);
}
);
layerId = "9E6FDE2E-55A6-44A9-9556-F1822294BF26";
shapes = (
{
closed = 1;
nodes = (
(47,-1,o),
(87,0,o),
(128,0,cs),
(169,0,o),
(209,-1,o),
(250,-3,c),
(260,-3,o),
(260,34,o),
(250,34,cs),
(174,34,o),
(147,43,o),
(166,86,cs),
(241,259,l),
(523,259,l),
(587,88,ls),
(604,43,o),
(586,34,o),
(533,34,cs),
(522,34,o),
(521,-3,o),
(533,-3,c),
(576,-1,o),
(619,0,o),
(663,0,cs),
(706,0,o),
(749,-1,o),
(792,-3,c),
(801,-3,o),
(802,34,o),
(792,34,cs),
(733,34,o),
(699,43,o),
(681,89,cs),
(487,575,ls),
(478,598,o),
(470,622,o),
(459,656,cs),
(455,670,o),
(447,677,o),
(440,677,cs),
(437,677,o),
(424,672,o),
(405,660,cs),
(383,645,o),
(370,639,o),
(354,631,cs),
(336,623,o),
(329,618,o),
(329,617,cs),
(329,611,o),
(344,604,o),
(344,594,cs),
(344,589,o),
(343,585,o),
(341,581,cs),
(119,96,ls),
(93,38,o),
(78,34,o),
(6,34,cs),
(-4,34,o),
(-4,-3,o),
(6,-3,c)
);
},
{
closed = 1;
nodes = (
(386,594,l),
(396,594,l),
(510,293,l),
(255,293,l)
);
}
);
width = 809;
},
{
anchors = (
{
name = bottom;
pos = (325,0);
},
{
name = ogonek;
pos = (604,0);
},
{
name = ogonek_above;
pos = (356,653);
},
{
name = top;
pos = (339,663);
},
{
name = zzcurly;
pos = (358,655);
}
);
guides = (
{
angle = 17.7023;
pos = (770,895);
showMeasurement = 1;
}
);
layerId = "00F4936D-6309-4DEC-83B3-42806ED1A477";
shapes = (
{
closed = 1;
nodes = (
(40,-1,o),
(74,0,o),
(109,0,cs),
(143,0,o),
(178,-1,o),
(212,-3,c),
(221,-3,o),
(221,34,o),
(212,34,cs),
(148,34,o),
(127,45,o),
(143,89,cs),
(204,259,l),
(433,259,l),
(487,91,ls),
(502,46,o),
(490,34,o),
(443,34,cs),
(434,34,o),
(433,-3,o),
(443,-3,c),
(480,-1,o),
(518,0,o),
(556,0,cs),
(593,0,o),
(630,-1,o),
(668,-3,c),
(677,-3,o),
(677,34,o),
(668,34,cs),
(618,34,o),
(589,46,o),
(574,91,cs),
(412,575,ls),
(404,597,o),
(396,624,o),
(388,656,cs),
(384,670,o),
(378,677,o),
(371,677,cs),
(367,677,o),
(356,671,o),
(339,659,cs),
(322,647,o),
(307,638,o),
(294,631,cs),
(281,624,o),
(274,619,o),
(274,617,cs),
(274,612,o),
(287,604,o),
(287,595,cs),
(287,590,o),
(286,585,o),
(284,580,cs),
(100,98,ls),
(79,42,o),
(63,34,o),
(5,34,cs),
(-4,34,o),
(-4,-3,o),
(5,-3,c)
);
},
{
closed = 1;
nodes = (
(322,581,l),
(330,581,l),
(422,293,l),
(215,293,l)
);
}
);
width = 683;
}
);
unicode = 65;
}
{
glyphname = F;
kernLeft = B;
kernRight = F;
layers = (
{
anchors = (
{
name = bottom;
pos = (285,0);
},
{
name = top;
pos = (285,663);
},
{
name = zzcurly;
pos = (266,655);
}
);
layerId = master01;
shapes = (
{
closed = 1;
nodes = (
(86,-1,o),
(129,0,o),
(172,0,cs),
(215,0,o),
(258,-1,o),
(301,-3,c),
(311,-3,o),
(310,34,o),
(301,34,cs),
(240,34,o),
(209,43,o),
(209,91,cs),
(209,313,l),
(303,313,ls),
(346,313,o),
(360,299,o),
(360,251,cs),
(360,194,ls),
(360,185,o),
(395,186,o),
(395,194,c),
(391,241,o),
(391,287,o),
(391,333,cs),
(391,379,o),
(391,425,o),
(395,472,c),
(395,481,o),
(360,480,o),
(360,472,cs),
(360,415,ls),
(360,366,o),
(350,352,o),
(303,352,cs),
(209,352,l),
(209,605,ls),
(209,622,o),
(216,629,o),
(229,629,cs),
(376,624,ls),
(463,621,o),
(503,581,o),
(503,496,cs),
(503,484,o),
(540,484,o),
(540,496,cs),
(540,654,ls),
(540,664,o),
(533,666,o),
(504,666,cs),
(460,666,o),
(214,663,o),
(170,663,cs),
(127,663,o),
(83,664,o),
(40,666,c),
(30,666,o),
(31,629,o),
(40,629,cs),
(101,629,o),
(131,620,o),
(131,575,cs),
(131,91,ls),
(131,43,o),
(102,34,o),
(43,34,cs),
(34,34,o),
(35,-3,o),
(43,-3,c)
);
}
);
width = 560;
},
{
anchors = (
{
name = bottom;
pos = (292,0);
},
{
name = top;
pos = (292,663);
},
{
name = zzcurly;
pos = (257,655);
}
);
layerId = "75918100-ED89-42A8-B0FE-888EB9C86810";
shapes = (
{
closed = 1;
nodes = (
(84,-1,o),
(129,0,o),
(175,0,cs),
(221,0,o),
(266,-1,o),
(312,-3,c),
(321,-3,o),
(320,42,o),
(312,42,cs),
(261,42,o),
(236,51,o),
(236,99,cs),
(236,311,l),
(316,311,ls),
(346,311,o),
(361,296,o),
(361,267,cs),
(361,196,ls),
(361,187,o),
(413,188,o),
(413,196,c),
(410,241,o),
(410,286,o),
(410,332,cs),
(410,376,o),
(410,421,o),
(413,466,c),
(413,477,o),
(361,476,o),
(361,466,cs),
(361,399,ls),
(361,370,o),
(346,355,o),
(316,355,cs),
(236,355,l),
(236,598,ls),
(236,614,o),
(241,622,o),
(256,621,cs),
(395,616,ls),
(469,613,o),
(503,574,o),
(503,492,cs),
(503,480,o),
(552,480,o),
(552,492,cs),
(552,649,ls),
(552,663,o),
(546,666,o),
(523,666,cs),
(408,666,o),
(292,663,o),
(177,663,cs),
(129,663,o),
(82,664,o),
(34,666,c),
(24,666,o),
(24,621,o),
(34,621,cs),
(90,621,o),
(118,612,o),
(118,567,cs),
(118,99,ls),
(118,51,o),
(91,42,o),
(39,42,cs),
(28,42,o),
(29,-3,o),
(39,-3,c)
);
}
);
width = 568;
},
{
anchors = (
{
name = bottom;
pos = (284,0);
},
{
name = top;
pos = (284,663);
},
{
name = zzcurly;
pos = (261,655);
}
);
layerId = "6ABD9449-5E80-4451-809E-12ADEB9E9AB4";
shapes = (
{
closed = 1;
nodes = (
(88,-1,o),
(131,0,o),
(173,0,cs),
(215,0,o),
(257,-1,o),
(299,-3,c),
(309,-3,o),
(308,31,o),
(299,31,cs),
(234,31,o),
(202,40,o),
(202,88,cs),
(202,314,l),
(300,314,ls),
(347,314,o),
(361,298,o),
(361,247,cs),
(361,194,ls),
(361,185,o),
(390,185,o),
(390,194,c),
(386,241,o),
(386,287,o),
(386,334,cs),
(386,380,o),
(386,427,o),
(390,474,c),
(390,482,o),
(361,482,o),
(361,474,cs),
(361,419,ls),
(361,367,o),
(353,351,o),
(300,351,cs),
(202,351,l),
(202,607,ls),
(202,625,o),
(209,631,o),
(222,631,cs),
(372,626,ls),
(462,624,o),
(504,583,o),
(504,497,cs),
(504,485,o),
(537,485,o),
(537,497,cs),
(537,654,ls),
(537,663,o),
(530,665,o),
(500,666,cs),
(390,667,o),
(279,663,o),
(169,663,cs),
(127,663,o),
(85,664,o),
(43,666,c),
(34,666,o),
(34,631,o),
(43,631,cs),
(106,631,o),
(137,622,o),
(137,578,cs),
(137,88,ls),
(137,40,o),
(107,31,o),
(46,31,cs),
(38,31,o),
(38,-3,o),
(46,-3,c)
);
}
);
width = 559;
},
{
anchors = (
{
name = bottom;
pos = (233,0);
},
{
name = top;
pos = (233,663);
},
{
name = zzcurly;
pos = (192,655);
}
);
layerId = "70B83247-6FA0-4662-9656-C86DD2A17D3B";
shapes = (
{
closed = 1;
nodes = (
(72,-1,o),
(107,0,o),
(143,0,cs),
(177,0,o),
(212,-1,o),
(248,-3,c),
(255,-3,o),
(255,34,o),
(248,34,cs),
(203,34,o),
(179,43,o),
(179,91,cs),
(179,314,l),
(250,314,ls),
(283,314,o),
(292,294,o),
(292,257,cs),
(292,194,ls),
(292,185,o),
(325,186,o),
(325,194,c),
(323,240,o),
(322,286,o),
(322,332,cs),
(322,378,o),
(323,424,o),
(325,470,c),
(325,479,o),
(292,479,o),
(292,470,cs),
(292,409,ls),
(292,361,o),
(278,351,o),
(250,351,cs),
(179,351,l),
(179,604,ls),
(179,620,o),
(184,628,o),
(199,628,cs),
(310,625,ls),
(376,624,o),
(406,582,o),
(406,494,cs),
(406,482,o),
(439,483,o),
(439,494,cs),
(439,654,ls),
(439,663,o),
(434,666,o),
(413,666,cs),
(323,666,o),
(232,663,o),
(142,663,cs),
(106,663,o),
(70,664,o),
(34,666,c),
(26,666,o),
(26,628,o),
(34,628,cs),
(81,628,o),
(105,619,o),
(105,575,cs),
(105,91,ls),
(105,43,o),
(82,34,o),
(37,34,cs),
(29,34,o),
(30,-3,o),
(37,-3,c)
);
}
);
width = 456;
},
{
anchors = (
{
name = bottom;
pos = (337,0);
},
{
name = top;
pos = (337,663);
},
{
name = zzcurly;
pos = (340,655);
}
);
layerId = "9E6FDE2E-55A6-44A9-9556-F1822294BF26";
shapes = (
{
closed = 1;
nodes = (
(102,-1,o),
(153,0,o),
(204,0,cs),
(255,0,o),
(306,-1,o),
(356,-3,c),
(368,-3,o),
(367,34,o),
(356,34,cs),
(279,34,o),
(241,43,o),
(241,91,cs),
(241,314,l),
(358,314,ls),
(410,314,o),
(430,302,o),
(430,246,cs),
(430,194,ls),
(430,185,o),
(466,185,o),
(466,194,c),
(461,241,o),
(460,287,o),
(460,334,cs),
(460,381,o),
(461,427,o),
(466,474,c),
(466,483,o),
(430,482,o),
(430,474,cs),
(430,420,ls),
(430,373,o),
(423,351,o),
(358,351,cs),
(241,351,l),
(241,606,ls),
(241,624,o),
(250,630,o),
(261,630,cs),
(446,627,ls),
(530,625,o),
(568,585,o),
(568,498,cs),
(568,485,o),
(610,486,o),
(610,498,cs),
(610,654,ls),
(610,664,o),
(601,667,o),
(564,667,cs),
(432,667,o),
(333,663,o),
(200,663,cs),
(149,663,o),
(99,663,o),
(48,667,c),
(36,667,o),
(37,629,o),
(48,629,cs),
(123,629,o),
(159,620,o),
(159,576,cs),
(159,91,ls),
(159,43,o),
(124,34,o),
(51,34,cs),
(41,34,o),
(41,-3,o),
(51,-3,c)
);
}
);
width = 633;
},
{
anchors = (
{
name = bottom;
pos = (285,0);
},
{
name = top;
pos = (285,663);
},
{
name = zzcurly;
pos = (266,655);
}
);
layerId = "00F4936D-6309-4DEC-83B3-42806ED1A477";
shapes = (
{
closed = 1;
nodes = (
(86,-1,o),
(129,0,o),
(172,0,cs),
(215,0,o),
(258,-1,o),
(301,-3,c),
(311,-3,o),
(310,34,o),
(301,34,cs),
(240,34,o),
(209,43,o),
(209,91,cs),
(209,313,l),
(303,313,ls),
(346,313,o),
(360,299,o),
(360,251,cs),
(360,194,ls),
(360,185,o),
(395,186,o),
(395,194,c),
(391,241,o),
(391,287,o),
(391,333,cs),
(391,379,o),
(391,425,o),
(395,472,c),
(395,481,o),
(360,480,o),
(360,472,cs),
(360,415,ls),
(360,366,o),
(350,352,o),
(303,352,cs),
(209,352,l),
(209,605,ls),
(209,622,o),
(216,629,o),
(229,629,cs),
(376,624,ls),
(463,621,o),
(503,581,o),
(503,496,cs),
(503,484,o),
(540,484,o),
(540,496,cs),
(540,654,ls),
(540,664,o),
(533,666,o),
(504,666,cs),
(460,666,o),
(214,663,o),
(170,663,cs),
(127,663,o),
(83,664,o),
(40,666,c),
(30,666,o),
(31,629,o),
(40,629,cs),
(101,629,o),
(131,620,o),
(131,575,cs),
(131,91,ls),
(131,43,o),
(102,34,o),
(43,34,cs),
(34,34,o),
(35,-3,o),
(43,-3,c)
);
}
);
width = 560;
}
);
metricLeft = B;
unicode = 70;
}
{
glyphname = L;
kernLeft = B;
kernRight = L;
layers = (
{
anchors = (
{
name = bottom;
pos = (337,0);
},
{
name = cedilla;
pos = (334,0);
},
{
name = center;
pos = (172,516);
},
{
name = top;
pos = (171,663);
},
{
name = zzcurly;
pos = (124,655);
}
);
layerId = master01;
shapes = (
{
closed = 1;
nodes = (
(88,-1,o),
(129,0,o),
(171,0,cs),
(307,0,o),
(442,-3,o),
(578,-3,cs),
(609,-3,o),
(617,0,o),
(617,13,cs),
(617,185,ls),
(617,194,o),
(579,194,o),
(579,185,cs),
(579,87,o),
(539,41,o),
(450,37,cs),
(297,30,l),
(237,30,o),
(210,66,o),
(210,129,cs),
(210,572,ls),
(210,619,o),
(239,628,o),
(295,628,cs),
(304,628,o),
(305,666,o),
(295,666,c),
(253,664,o),
(210,663,o),
(168,663,cs),
(125,663,o),
(83,664,o),
(40,666,c),
(31,666,o),
(30,628,o),
(40,628,cs),
(102,628,o),
(132,619,o),
(132,572,cs),
(132,86,ls),
(132,43,o),
(104,34,o),
(46,34,cs),
(38,34,o),
(37,-3,o),
(46,-3,c)
);
}
);
width = 656;
},
{
anchors = (
{
name = bottom;
pos = (349,0);
},
{
name = cedilla;
pos = (354,0);
},
{
name = center;
pos = (183,516);
},
{
name = top;
pos = (173,663);
},
{
name = zzcurly;
pos = (131,655);
}
);
guides = (
{
angle = 182.0763;
pos = (793,84);
}
);
layerId = "75918100-ED89-42A8-B0FE-888EB9C86810";
shapes = (
{
closed = 1;
nodes = (
(88,-1,o),
(136,0,o),
(185,0,cs),
(313,0,o),
(442,-3,o),
(570,-3,cs),
(616,-3,o),
(627,3,o),
(627,28,cs),
(627,191,ls),
(627,203,o),
(579,203,o),
(579,191,cs),
(579,93,o),
(544,47,o),
(468,44,cs),
(318,39,l),
(262,39,o),
(237,74,o),
(237,137,cs),
(237,563,ls),
(237,611,o),
(263,620,o),
(314,620,cs),
(322,620,o),
(323,666,o),
(314,666,c),
(267,664,o),
(221,663,o),
(174,663,cs),
(127,663,o),
(81,664,o),
(35,666,c),
(25,666,o),
(24,620,o),
(35,620,cs),
(91,620,o),
(119,611,o),
(119,563,cs),
(119,104,ls),
(119,51,o),
(92,42,o),
(40,42,cs),
(30,42,o),
(29,-3,o),
(40,-3,c)
);
}
);
width = 659;
},
{
anchors = (
{
name = bottom;
pos = (334,0);
},
{
name = cedilla;
pos = (329,0);
},
{
name = center;
pos = (172,516);
},
{
name = top;
pos = (171,663);
},
{
name = zzcurly;
pos = (125,655);
}
);
layerId = "6ABD9449-5E80-4451-809E-12ADEB9E9AB4";
shapes = (
{
closed = 1;
nodes = (
(91,-1,o),
(131,0,o),
(172,0,cs),
(309,0,o),
(445,-3,o),
(582,-3,cs),
(608,-3,o),
(615,0,o),
(615,13,cs),
(615,183,ls),
(615,191,o),
(581,191,o),
(581,183,cs),
(581,85,o),
(538,38,o),
(445,34,cs),
(293,28,l),
(231,28,o),
(203,63,o),
(203,126,cs),
(203,575,ls),
(203,622,o),
(232,631,o),
(291,631,cs),
(299,631,o),
(300,666,o),
(291,666,c),
(250,664,o),
(208,663,o),
(167,663,cs),
(125,663,o),
(84,664,o),
(43,666,c),
(34,666,o),
(34,631,o),
(43,631,cs),
(106,631,o),
(138,622,o),
(138,575,cs),
(138,81,ls),
(138,40,o),
(109,31,o),
(50,31,cs),
(42,31,o),
(41,-3,o),
(50,-3,c)
);
}
);
width = 658;
},
{
anchors = (
{
name = bottom;
pos = (275,0);
},
{
name = cedilla;
pos = (276,0);
},
{
name = center;
pos = (145,516);
},
{
name = top;
pos = (141,663);
},
{
name = zzcurly;
pos = (104,655);
}
);
layerId = "70B83247-6FA0-4662-9656-C86DD2A17D3B";
shapes = (
{
closed = 1;
nodes = (
(73,-1,o),
(107,0,o),
(142,0,cs),
(249,0,o),
(356,-3,o),
(463,-3,cs),
(493,-3,o),
(500,1,o),
(500,18,cs),
(500,187,ls),
(500,197,o),
(466,197,o),
(466,187,cs),
(466,86,o),
(436,40,o),
(369,36,cs),
(249,30,l),
(201,30,o),
(180,68,o),
(180,131,cs),
(180,572,ls),
(180,619,o),
(201,628,o),
(245,628,cs),
(251,628,o),
(252,666,o),
(245,666,c),
(209,664,o),
(174,663,o),
(139,663,cs),
(104,663,o),
(69,664,o),
(34,666,c),
(26,666,o),
(26,628,o),
(34,628,cs),
(81,628,o),
(105,619,o),
(105,572,cs),
(105,89,ls),
(105,43,o),
(83,34,o),
(38,34,cs),
(31,34,o),
(31,-3,o),
(38,-3,c)
);
}
);
width = 533;
},
{
anchors = (
{
name = bottom;
pos = (399,0);
},
{
name = cedilla;
pos = (393,0);
},
{
name = center;
pos = (201,516);
},
{
name = top;
pos = (202,663);
},
{
name = zzcurly;
pos = (145,655);
}
);
layerId = "9E6FDE2E-55A6-44A9-9556-F1822294BF26";
shapes = (
{
closed = 1;
nodes = (
(104,-1,o),
(153,0,o),
(201,0,cs),
(366,0,o),
(456,-3,o),
(620,-3,cs),
(654,-3,o),
(662,-1,o),
(662,9,cs),
(662,183,ls),
(662,191,o),
(620,192,o),
(620,183,cs),
(620,87,o),
(579,42,o),
(489,37,cs),
(347,30,l),
(274,30,o),
(242,63,o),
(242,126,cs),
(242,573,ls),
(242,619,o),
(277,628,o),
(347,628,cs),
(358,628,o),
(358,666,o),
(347,666,c),
(297,664,o),
(248,663,o),
(198,663,cs),
(147,663,o),
(97,664,o),
(47,666,c),
(37,666,o),
(36,628,o),
(47,628,cs),
(123,628,o),
(161,619,o),
(161,573,cs),
(161,83,ls),
(161,43,o),
(125,34,o),
(56,34,cs),
(45,34,o),
(44,-3,o),
(56,-3,c)
);
}
);
width = 705;
},
{
anchors = (
{
name = bottom;
pos = (337,0);
},
{
name = cedilla;
pos = (334,0);
},
{
name = center;
pos = (172,516);
},
{
name = top;
pos = (171,663);
},
{
name = zzcurly;
pos = (124,655);
}
);
layerId = "00F4936D-6309-4DEC-83B3-42806ED1A477";
shapes = (
{
closed = 1;
nodes = (
(88,-1,o),
(129,0,o),
(171,0,cs),
(307,0,o),
(442,-3,o),
(578,-3,cs),
(609,-3,o),
(617,0,o),
(617,13,cs),
(617,185,ls),
(617,194,o),
(579,194,o),
(579,185,cs),
(579,87,o),
(539,41,o),
(450,37,cs),
(297,30,l),
(237,30,o),
(210,66,o),
(210,129,cs),
(210,572,ls),
(210,619,o),
(239,628,o),
(295,628,cs),
(304,628,o),
(305,666,o),
(295,666,c),
(253,664,o),
(210,663,o),
(168,663,cs),
(125,663,o),
(83,664,o),
(40,666,c),
(31,666,o),
(30,628,o),
(40,628,cs),
(102,628,o),
(132,619,o),
(132,572,cs),
(132,86,ls),
(132,43,o),
(104,34,o),
(46,34,cs),
(38,34,o),
(37,-3,o),
(46,-3,c)
);
}
);
width = 656;
}
);
metricLeft = B;
unicode = 76;
}
{
glyphname = V;
kernLeft = V;
kernRight = V;
layers = (
{
anchors = (
{
name = bottom;
pos = (304,0);
},
{
name = center;
pos = (324,374);
},
{
name = top;
pos = (330,663);
},
{
name = zzcurly;
pos = (459,655);
}
);
layerId = master01;
shapes = (
{
closed = 1;
nodes = (
(321,-19,o),
(326,-12,o),
(332,3,cs),
(548,586,ls),
(559,614,o),
(589,628,o),
(640,628,cs),
(649,628,o),
(649,666,o),
(640,666,c),
(608,664,o),
(577,663,o),
(545,663,cs),
(513,663,o),
(482,664,o),
(450,666,c),
(441,666,o),
(440,628,o),
(450,628,cs),
(493,628,o),
(509,607,o),
(495,568,cs),
(344,124,l),
(340,124,l),
(173,572,ls),
(159,611,o),
(180,628,o),
(240,628,cs),
(249,628,o),
(249,666,o),
(240,666,c),
(203,664,o),
(165,663,o),
(128,663,cs),
(91,663,o),
(53,664,o),
(16,666,c),
(7,666,o),
(7,628,o),
(16,628,cs),
(51,628,o),
(74,610,o),
(88,572,cs),
(300,3,ls),
(305,-12,o),
(310,-19,o),
(315,-19,cs)
);
}
);
width = 628;
},
{
anchors = (
{
name = bottom;
pos = (318,0);
},
{
name = center;
pos = (343,374);
},
{
name = top;
pos = (344,663);
},
{
name = zzcurly;
pos = (470,655);
}
);
layerId = "75918100-ED89-42A8-B0FE-888EB9C86810";
shapes = (
{
closed = 1;
nodes = (
(338,-19,o),
(347,-12,o),
(353,3,cs),
(577,579,ls),
(587,606,o),
(618,620,o),
(666,620,cs),
(675,620,o),
(675,666,o),
(666,666,c),
(631,664,o),
(597,663,o),
(563,663,cs),
(529,663,o),
(495,664,o),
(460,666,c),
(451,666,o),
(451,620,o),
(460,620,cs),
(503,620,o),
(517,599,o),
(503,560,cs),
(360,157,l),
(357,157,l),
(198,563,ls),
(182,604,o),
(198,620,o),
(252,620,cs),
(261,620,o),
(261,666,o),
(252,666,c),
(213,664,o),
(173,663,o),
(134,663,cs),
(94,663,o),
(54,664,o),
(15,666,c),
(5,666,o),
(5,620,o),
(15,620,cs),
(47,620,o),
(69,601,o),
(83,563,cs),
(303,3,ls),
(309,-12,o),
(316,-19,o),
(328,-19,cs)
);
}
);
width = 662;
},
{
anchors = (
{
name = bottom;
pos = (300,0);
},
{
name = center;
pos = (320,374);
},
{
name = top;
pos = (325,663);
},
{
name = zzcurly;
pos = (454,655);
}
);
layerId = "6ABD9449-5E80-4451-809E-12ADEB9E9AB4";
shapes = (
{
closed = 1;
nodes = (
(314,-19,o),
(319,-12,o),
(325,3,cs),
(539,589,ls),
(549,617,o),
(581,631,o),
(631,631,cs),
(641,631,o),
(641,666,o),
(631,666,c),
(601,664,o),
(570,663,o),
(540,663,cs),
(509,663,o),
(478,664,o),
(447,666,c),
(438,666,o),
(438,631,o),
(447,631,cs),
(491,631,o),
(506,610,o),
(493,570,cs),
(339,112,l),
(333,112,l),
(166,575,ls),
(152,612,o),
(178,631,o),
(236,631,cs),
(245,631,o),
(246,666,o),
(236,666,c),
(199,664,o),
(163,663,o),
(126,663,cs),
(90,663,o),
(54,664,o),
(17,666,c),
(8,666,o),
(8,631,o),
(17,631,cs),
(53,631,o),
(76,613,o),
(90,575,cs),
(297,3,ls),
(302,-12,o),
(307,-19,o),
(310,-19,cs)
);
}
);
width = 618;
},
{
anchors = (
{
name = bottom;
pos = (249,0);
},
{
name = center;
pos = (266,374);
},
{
name = top;
pos = (269,663);
},
{
name = zzcurly;
pos = (374,655);
}
);
layerId = "70B83247-6FA0-4662-9656-C86DD2A17D3B";
shapes = (
{
closed = 1;
nodes = (
(262,-19,o),
(268,-12,o),
(272,3,cs),
(449,587,ls),
(457,614,o),
(481,628,o),
(521,628,cs),
(527,628,o),
(528,666,o),
(521,666,c),
(495,664,o),
(468,663,o),
(442,663,cs),
(417,663,o),
(390,664,o),
(364,666,c),
(357,666,o),
(356,628,o),
(364,628,cs),
(399,628,o),
(411,607,o),
(400,568,cs),
(280,133,l),
(277,133,l),
(146,572,ls),
(135,611,o),
(151,628,o),
(197,628,cs),
(203,628,o),
(204,666,o),
(197,666,c),
(166,664,o),
(136,663,o),
(105,663,cs),
(74,663,o),
(44,664,o),
(13,666,c),
(6,666,o),
(6,628,o),
(13,628,cs),
(41,628,o),
(58,609,o),
(69,572,cs),
(241,3,ls),
(245,-12,o),
(250,-19,o),
(256,-19,cs)
);
}
);
width = 512;
},
{
anchors = (
{
name = bottom;
pos = (360,0);
},
{
name = center;
pos = (383,374);
},
{
name = top;
pos = (391,663);
},
{
name = zzcurly;
pos = (545,655);
}
);
layerId = "9E6FDE2E-55A6-44A9-9556-F1822294BF26";
shapes = (
{
closed = 1;
nodes = (
(378,-19,o),
(384,-12,o),
(391,3,cs),
(648,586,ls),
(661,614,o),
(688,628,o),
(750,628,cs),
(761,628,o),
(761,666,o),
(750,666,c),
(714,664,o),
(679,663,o),
(643,663,cs),
(607,663,o),
(572,664,o),
(537,666,c),
(525,666,o),
(525,628,o),
(537,628,cs),
(589,628,o),
(607,607,o),
(591,568,cs),
(407,114,l),
(402,114,l),
(201,573,ls),
(185,609,o),
(215,628,o),
(283,628,cs),
(294,628,o),
(295,666,o),
(283,666,c),
(240,664,o),
(195,663,o),
(151,663,cs),
(108,663,o),
(63,664,o),
(20,666,c),
(9,666,o),
(8,628,o),
(20,628,cs),
(62,628,o),
(90,610,o),
(107,573,cs),
(357,3,ls),
(364,-12,o),
(369,-19,o),
(374,-19,cs)
);
}
);
width = 741;
},
{
anchors = (
{
name = bottom;
pos = (304,0);
},
{
name = center;
pos = (324,374);
},
{
name = top;
pos = (330,663);
},
{
name = zzcurly;
pos = (459,655);
}
);
guides = (
{
angle = 20.4159;
pos = (397,589);
showMeasurement = 1;
}
);
layerId = "00F4936D-6309-4DEC-83B3-42806ED1A477";
shapes = (
{
closed = 1;
nodes = (
(321,-19,o),
(326,-12,o),
(332,3,cs),
(548,586,ls),
(559,614,o),
(589,628,o),
(640,628,cs),
(649,628,o),
(649,666,o),
(640,666,c),
(608,664,o),
(577,663,o),
(545,663,cs),
(513,663,o),
(482,664,o),
(450,666,c),
(441,666,o),
(440,628,o),
(450,628,cs),
(493,628,o),
(509,607,o),
(495,568,cs),
(344,124,l),
(340,124,l),
(173,572,ls),
(159,611,o),
(180,628,o),
(240,628,cs),
(249,628,o),
(249,666,o),
(240,666,c),
(203,664,o),
(165,663,o),
(128,663,cs),
(91,663,o),
(53,664,o),
(16,666,c),
(7,666,o),
(7,628,o),
(16,628,cs),
(51,628,o),
(74,610,o),
(88,572,cs),
(300,3,ls),
(305,-12,o),
(310,-19,o),
(315,-19,cs)
);
}
);
width = 628;
}
);
unicode = 86;
}
{
glyphname = bracketright;
kernLeft = braceright;
layers = (
{
layerId = master01;
shapes = (
{
closed = 1;
nodes = (
(210,-173,ls),
(217,-173,o),
(221,-169,o),
(221,-162,cs),
(221,738,ls),
(221,744,o),
(217,747,o),
(211,747,cs),
(33,747,ls),
(26,747,o),
(23,741,o),
(23,728,cs),
(23,715,o),
(27,709,o),
(35,709,cs),
(144,709,ls),
(150,709,o),
(153,706,o),
(153,698,cs),
(153,-123,ls),
(153,-131,o),
(151,-135,o),
(147,-135,cs),
(25,-135,ls),
(18,-135,o),
(15,-141,o),
(15,-154,cs),
(15,-167,o),
(19,-173,o),
(26,-173,cs)
);
}
);
width = 323;
},
{
layerId = "75918100-ED89-42A8-B0FE-888EB9C86810";
shapes = (
{
closed = 1;
nodes = (
(235,-173,ls),
(242,-173,o),
(246,-169,o),
(246,-162,cs),
(246,738,ls),
(246,744,o),
(242,747,o),
(236,747,cs),
(23,747,ls),
(17,747,o),
(13,739,o),
(13,724,cs),
(13,708,o),
(17,700,o),
(23,700,cs),
(134,700,ls),
(140,700,o),
(143,696,o),
(143,689,cs),
(143,-114,ls),
(143,-122,o),
(141,-126,o),
(136,-126,cs),
(23,-126,ls),
(17,-126,o),
(13,-134,o),
(13,-149,cs),
(13,-165,o),
(17,-173,o),
(23,-173,cs)
);
}
);
width = 338;
},
{
layerId = "6ABD9449-5E80-4451-809E-12ADEB9E9AB4";
shapes = (
{
closed = 1;
nodes = (
(202,-173,ls),
(208,-173,o),
(212,-169,o),
(212,-162,cs),
(212,738,ls),
(212,744,o),
(209,747,o),
(203,747,cs),
(36,747,ls),
(29,747,o),
(26,741,o),
(26,729,cs),
(26,718,o),
(30,712,o),
(39,712,cs),
(147,712,ls),
(153,712,o),
(156,708,o),
(156,701,cs),
(156,-126,ls),
(156,-134,o),
(154,-138,o),
(150,-138,cs),
(25,-138,ls),
(19,-138,o),
(15,-144,o),
(15,-155,cs),
(15,-167,o),
(19,-173,o),
(27,-173,cs)
);
}
);
width = 318;
},
{
layerId = "70B83247-6FA0-4662-9656-C86DD2A17D3B";
shapes = (
{
closed = 1;
nodes = (
(176,-173,ls),
(181,-173,o),
(185,-170,o),
(185,-162,cs),
(185,738,ls),
(185,744,o),
(182,747,o),
(177,747,cs),
(24,747,ls),
(19,747,o),
(16,741,o),
(16,727,cs),
(16,712,o),
(20,707,o),
(25,707,cs),
(113,707,ls),
(117,707,o),
(120,703,o),
(120,695,cs),
(120,-120,ls),
(120,-127,o),
(118,-132,o),
(115,-132,cs),
(20,-132,ls),
(15,-132,o),
(12,-139,o),
(12,-152,cs),
(12,-166,o),
(15,-173,o),
(20,-173,cs)
);
}
);
width = 296;
},
{
layerId = "9E6FDE2E-55A6-44A9-9556-F1822294BF26";
shapes = (
{
closed = 1;
nodes = (
(244,-173,ls),
(253,-173,o),
(257,-168,o),
(257,-162,cs),
(257,738,ls),
(257,744,o),
(253,747,o),
(245,747,cs),
(42,747,ls),
(33,747,o),
(30,740,o),
(30,729,cs),
(30,719,o),
(34,711,o),
(44,711,cs),
(175,711,ls),
(183,711,o),
(186,708,o),
(186,701,cs),
(186,-126,ls),
(186,-134,o),
(184,-137,o),
(179,-137,cs),
(30,-137,ls),
(21,-137,o),
(18,-143,o),
(18,-155,cs),
(18,-167,o),
(22,-173,o),
(32,-173,cs)
);
}
);
width = 350;
},
{
layerId = "00F4936D-6309-4DEC-83B3-42806ED1A477";
shapes = (
{
closed = 1;
nodes = (
(210,-173,ls),
(217,-173,o),
(221,-169,o),
(221,-162,cs),
(221,738,ls),
(221,744,o),
(217,747,o),
(211,747,cs),
(33,747,ls),
(26,747,o),
(23,741,o),
(23,728,cs),
(23,715,o),
(27,709,o),
(35,709,cs),
(144,709,ls),
(150,709,o),
(153,706,o),
(153,698,cs),
(153,-123,ls),
(153,-131,o),
(151,-135,o),
(147,-135,cs),
(25,-135,ls),
(18,-135,o),
(15,-141,o),
(15,-154,cs),
(15,-167,o),
(19,-173,o),
(26,-173,cs)
);
}
);
width = 323;
}
);
unicode = 93;
}
{
color = 9;
glyphname = w;
kernLeft = v;
kernRight = v;
layers = (
{
anchors = (
{
name = bottom;
pos = (325,0);
},
{
name = top;
pos = (325,415);
},
{
name = us;
pos = (636,415);
},
{
name = zzcurly;
pos = (591,378);
}
);
layerId = master01;
shapes = (
{
closed = 1;
nodes = (
(222,-11,o),
(229,-5,o),
(233,8,cs),
(329,281,l),
(335,281,l),
(443,2,ls),
(446,-7,o),
(453,-11,o),
(462,-11,cs),
(472,-11,o),
(479,-5,o),
(483,8,cs),
(605,357,ls),
(613,380,o),
(633,392,o),
(664,392,cs),
(673,392,o),
(673,418,o),
(664,418,c),
(641,416,o),
(617,415,o),
(594,415,cs),
(570,415,o),
(546,416,o),
(523,418,c),
(514,418,o),
(514,392,o),
(523,392,cs),
(562,392,o),
(576,378,o),
(568,355,cs),
(480,99,l),
(475,99,l),
(393,351,ls),
(392,355,o),
(391,360,o),
(391,365,cs),
(391,383,o),
(404,392,o),
(429,392,cs),
(438,392,o),
(438,418,o),
(429,418,c),
(400,416,o),
(372,415,o),
(343,415,cs),
(313,415,o),
(285,416,o),
(256,418,c),
(247,418,o),
(247,392,o),
(256,392,cs),
(281,392,o),
(294,387,o),
(298,376,cs),
(313,338,l),
(230,99,l),
(226,99,l),
(143,351,ls),
(134,378,o),
(143,392,o),
(179,392,cs),
(188,392,o),
(188,418,o),
(179,418,c),
(150,416,o),
(122,415,o),
(93,415,cs),
(63,415,o),
(35,416,o),
(6,418,c),
(-3,418,o),
(-3,392,o),
(6,392,cs),
(30,392,o),
(47,380,o),
(56,357,cs),
(193,2,ls),
(196,-7,o),
(203,-11,o),
(212,-11,cs)
);
}
);
width = 659;
},
{
anchors = (
{
name = bottom;
pos = (356,0);
},
{
name = top;
pos = (356,415);
},
{
name = us;
pos = (656,415);
},
{
name = zzcurly;
pos = (621,378);
}
);
layerId = "75918100-ED89-42A8-B0FE-888EB9C86810";
shapes = (
{
closed = 1;
nodes = (
(249,-11,o),
(262,-1,o),
(270,19,cs),
(351,230,l),
(357,230,l),
(447,14,ls),
(455,-3,o),
(467,-11,o),
(484,-11,cs),
(501,-11,o),
(514,-1,o),
(521,19,cs),
(647,348,ls),
(656,371,o),
(677,383,o),
(708,383,cs),
(718,383,o),
(718,418,o),
(708,418,c),
(681,416,o),
(654,415,o),
(626,415,cs),
(599,415,o),
(572,416,o),
(544,418,c),
(535,419,o),
(535,383,o),
(544,383,cs),
(583,383,o),
(595,371,o),
(586,345,cs),
(506,114,l),
(501,114,l),
(429,342,ls),
(426,349,o),
(425,355,o),
(425,360,cs),
(425,375,o),
(437,383,o),
(459,383,cs),
(471,383,o),
(470,418,o),
(459,418,c),
(427,416,o),
(395,415,o),
(362,415,cs),
(330,415,o),
(297,416,o),
(265,418,c),
(254,419,o),
(254,383,o),
(265,383,cs),
(285,383,o),
(297,373,o),
(308,348,cs),
(322,312,l),
(255,114,l),
(249,114,l),
(176,342,ls),
(167,371,o),
(173,383,o),
(208,383,cs),
(217,383,o),
(217,418,o),
(208,418,c),
(174,416,o),
(141,415,o),
(107,415,cs),
(73,415,o),
(40,416,o),
(6,418,c),
(-3,419,o),
(-3,383,o),
(6,383,cs),
(29,383,o),
(46,372,o),
(56,348,cs),
(195,14,ls),
(203,-3,o),
(215,-11,o),
(231,-11,cs)
);
}
);
width = 704;
},
{
anchors = (
{
name = bottom;
pos = (315,0);
},
{
name = top;
pos = (315,415);
},
{
name = us;
pos = (622,415);
},
{
name = zzcurly;
pos = (582,378);
}
);
layerId = "6ABD9449-5E80-4451-809E-12ADEB9E9AB4";
shapes = (
{
closed = 1;
nodes = (
(213,-11,o),
(217,-6,o),
(221,4,cs),
(322,298,l),
(328,298,l),
(441,-2,ls),
(444,-8,o),
(448,-11,o),
(455,-11,cs),
(462,-11,o),
(467,-6,o),
(470,4,cs),
(591,360,ls),
(601,388,o),
(618,396,o),
(649,396,cs),
(658,396,o),
(658,417,o),
(649,417,c),
(627,416,o),
(607,415,o),
(583,415,cs),
(559,415,o),
(539,416,o),
(516,417,c),
(507,417,o),
(507,396,o),
(516,396,cs),
(562,396,o),
(572,387,o),
(562,358,cs),
(473,95,l),
(467,95,l),
(381,354,ls),
(380,357,o),
(380,361,o),
(380,367,cs),
(380,386,o),
(393,395,o),
(419,395,cs),
(428,395,o),
(428,418,o),
(419,418,c),
(392,416,o),
(364,415,o),
(336,415,cs),
(309,415,o),
(281,416,o),
(253,417,c),
(244,417,o),
(244,396,o),
(253,396,cs),
(278,396,o),
(294,390,o),
(298,378,cs),
(310,348,l),
(223,95,l),
(218,95,l),
(132,354,ls),
(122,386,o),
(134,396,o),
(170,396,cs),
(179,396,o),
(179,417,o),
(170,417,c),
(143,416,o),
(115,415,o),
(88,415,cs),
(61,415,o),
(33,416,o),
(6,417,c),
(-3,417,o),
(-3,396,o),
(6,396,cs),
(30,396,o),
(46,388,o),
(57,360,cs),
(192,-2,ls),
(195,-8,o),
(199,-11,o),
(206,-11,cs)
);
}
);
width = 645;
},
{
anchors = (
{
name = bottom;
pos = (271,0);
},
{
name = top;
pos = (271,415);
},
{
name = us;
pos = (517,415);
},
{
name = zzcurly;
pos = (482,378);
}
);
guides = (
{
angle = 180;
pos = (428,803);
},
{
angle = -72.27;
pos = (203,369);
},
{
angle = -72.2287;
pos = (507,708);
},
{
angle = 73.7304;
pos = (922,375);
}
);
layerId = "70B83247-6FA0-4662-9656-C86DD2A17D3B";
shapes = (
{
closed = 1;
nodes = (
(187,-11,o),
(195,-3,o),
(200,12,cs),
(271,261,l),
(275,261,l),
(355,6,ls),
(359,-5,o),
(367,-11,o),
(377,-11,cs),
(388,-11,o),
(396,-4,o),
(400,12,cs),
(501,357,ls),
(508,381,o),
(524,392,o),
(548,392,cs),
(555,392,o),
(555,418,o),
(548,418,c),
(526,416,o),
(506,415,o),
(487,415,cs),
(467,415,o),
(448,416,o),
(426,418,c),
(418,418,o),
(418,392,o),
(426,392,cs),
(458,392,o),
(469,381,o),
(461,355,cs),
(393,104,l),
(390,104,l),
(327,351,ls),
(325,357,o),
(325,362,o),
(325,367,cs),
(325,384,o),
(335,392,o),
(354,392,cs),
(362,392,o),
(362,418,o),
(354,418,c),
(330,416,o),
(310,415,o),
(281,415,cs),
(251,415,o),
(232,416,o),
(207,418,c),
(199,418,o),
(200,392,o),
(207,392,cs),
(225,392,o),
(235,385,o),
(240,369,cs),
(252,331,l),
(193,104,l),
(189,104,l),
(125,351,ls),
(117,380,o),
(123,392,o),
(154,392,cs),
(161,392,o),
(161,418,o),
(154,418,c),
(133,416,o),
(113,415,o),
(79,415,cs),
(50,415,o),
(30,416,o),
(4,418,c),
(-4,418,o),
(-4,392,o),
(4,392,cs),
(23,392,o),
(35,380,o),
(42,357,cs),
(154,7,ls),
(158,-5,o),
(166,-11,o),
(176,-11,cs)
);
}
);
width = 542;
},
{
anchors = (
{
name = bottom;
pos = (378,0);
},
{
name = top;
pos = (378,415);
},
{
name = us;
pos = (754,415);
},
{
name = zzcurly;
pos = (700,378);
}
);
guides = (
{
angle = 180;
pos = (430,803);
},
{
angle = -65.8876;
pos = (306,366);
},
{
angle = -65.556;
pos = (746,748);
},
{
angle = 67.9558;
pos = (1304,373);
}
);
layerId = "9E6FDE2E-55A6-44A9-9556-F1822294BF26";
shapes = (
{
closed = 1;
nodes = (
(255,-11,o),
(261,-6,o),
(265,3,cs),
(386,302,l),
(394,302,l),
(529,-2,ls),
(532,-9,o),
(539,-11,o),
(546,-11,cs),
(555,-11,o),
(561,-5,o),
(564,3,cs),
(708,356,ls),
(717,379,o),
(740,392,o),
(779,392,cs),
(791,392,o),
(791,418,o),
(779,418,c),
(754,416,o),
(727,415,o),
(700,415,cs),
(671,415,o),
(644,416,o),
(619,418,c),
(608,418,o),
(608,392,o),
(619,392,cs),
(673,392,o),
(684,382,o),
(673,355,cs),
(567,93,l),
(560,94,l),
(459,351,ls),
(458,354,o),
(458,357,o),
(458,363,cs),
(458,383,o),
(473,392,o),
(505,392,cs),
(516,392,o),
(514,418,o),
(503,418,c),
(470,416,o),
(432,415,o),
(404,415,cs),
(375,415,o),
(336,416,o),
(304,418,c),
(293,418,o),
(294,392,o),
(306,392,cs),
(336,392,o),
(354,387,o),
(359,377,cs),
(374,345,l),
(267,93,l),
(261,93,l),
(161,351,ls),
(152,375,o),
(165,392,o),
(206,392,cs),
(217,392,o),
(215,418,o),
(204,418,c),
(167,416,o),
(129,415,o),
(105,415,cs),
(76,415,o),
(38,416,o),
(7,418,c),
(-3,418,o),
(-2,392,o),
(9,392,cs),
(38,392,o),
(59,380,o),
(70,356,cs),
(230,-3,ls),
(233,-9,o),
(239,-11,o),
(248,-11,cs)
);
}
);
width = 775;
},
{
anchors = (
{
name = bottom;
pos = (484,4);
},
{
name = top;
pos = (484,663);
},
{
name = us;
pos = (981,661);
},
{
name = zzcurly;
pos = (906,603);
}
);
layerId = "00F4936D-6309-4DEC-83B3-42806ED1A477";
shapes = (
{
closed = 1;
nodes = (
(310,-13,o),
(313,-8,o),
(316,3,cs),
(478,507,l),
(488,507,l),
(671,-6,ls),
(673,-11,o),
(676,-13,o),
(681,-13,cs),
(687,-13,o),
(691,-9,o),
(695,3,cs),
(876,580,ls),
(888,618,o),
(914,636,o),
(963,636,cs),
(977,636,o),
(978,665,o),
(963,665,c),
(939,663,o),
(907,663,o),
(866,663,cs),
(822,663,o),
(793,663,o),
(770,665,c),
(755,665,o),
(757,636,o),
(770,636,cs),
(846,636,o),
(851,605,o),
(842,578,cs),
(707,148,l),
(694,148,l),
(559,571,ls),
(558,574,o),
(557,579,o),
(557,589,cs),
(557,621,o),
(579,636,o),
(620,636,cs),
(632,636,o),
(634,666,o),
(620,666,c),
(592,663,o),
(558,663,o),
(503,663,cs),
(444,663,o),
(406,663,o),
(381,665,c),
(369,665,o),
(369,636,o),
(381,636,cs),
(424,636,o),
(446,628,o),
(456,610,cs),
(471,579,l),
(332,149,l),
(318,149,l),
(184,571,ls),
(171,609,o),
(190,636,o),
(244,636,cs),
(258,636,o),
(259,665,o),
(244,665,c),
(218,663,o),
(185,663,o),
(127,663,cs),
(69,663,o),
(35,663,o),
(11,665,c),
(-4,665,o),
(-2,636,o),
(11,636,cs),
(48,636,o),
(74,619,o),
(88,580,cs),
(293,-6,ls),
(295,-11,o),
(297,-13,o),
(304,-13,cs)
);
}
);
width = 963;
}
);
metricLeft = v;
metricRight = v;
unicode = 119;
}
{
color = 9;
glyphname = x;
kernLeft = x;
kernRight = x;
layers = (
{
anchors = (
{
name = bottom;
pos = (224,0);
},
{
name = top;
pos = (244,415);
},
{
name = us;
pos = (402,415);
},
{
name = zzcurly;
pos = (357,378);
}
);
guides = (
{
angle = 180;
pos = (487,803);
},
{
angle = 180;
pos = (471,49);
}
);
layerId = master01;
shapes = (
{
closed = 1;
nodes = (
(35,-1,o),
(59,0,o),
(83,0,cs),
(107,0,o),
(131,-1,o),
(155,-4,c),
(164,-4,o),
(164,24,o),
(155,24,cs),
(134,24,o),
(123,29,o),
(123,38,cs),
(123,44,o),
(128,56,o),
(139,71,cs),
(217,180,l),
(292,63,ls),
(299,52,o),
(303,44,o),
(303,40,cs),
(303,29,o),
(288,24,o),
(256,24,cs),
(247,24,o),
(247,-4,o),
(256,-4,c),
(288,-1,o),
(320,0,o),
(352,0,cs),
(384,0,o),
(416,-1,o),
(448,-4,c),
(457,-4,o),
(457,24,o),
(448,24,cs),
(419,24,o),
(395,38,o),
(376,65,cs),
(264,228,l),
(370,357,ls),
(389,380,o),
(409,392,o),
(431,392,cs),
(440,392,o),
(440,418,o),
(431,418,c),
(407,416,o),
(383,415,o),
(359,415,cs),
(335,415,o),
(311,416,o),
(287,418,c),
(278,418,o),
(278,392,o),
(287,392,cs),
(314,392,o),
(327,385,o),
(327,372,cs),
(327,365,o),
(323,355,o),
(314,344,cs),
(245,252,l),
(182,352,ls),
(177,361,o),
(174,368,o),
(174,374,cs),
(174,386,o),
(186,392,o),
(211,392,cs),
(220,392,o),
(220,418,o),
(211,418,c),
(183,416,o),
(155,415,o),
(127,415,cs),
(100,415,o),
(72,416,o),
(44,418,c),
(35,418,o),
(35,392,o),
(44,392,cs),
(59,392,o),
(76,381,o),
(92,358,cs),
(201,205,l),
(83,57,ls),
(66,36,o),
(42,24,o),
(11,24,cs),
(2,24,o),
(2,-4,o),
(11,-4,c)
);
}
);
width = 448;
},
{
anchors = (
{
name = bottom;
pos = (249,0);
},
{
name = top;
pos = (264,415);
},
{
name = us;
pos = (419,415);
},
{
name = zzcurly;
pos = (365,378);
}
);
layerId = "75918100-ED89-42A8-B0FE-888EB9C86810";
shapes = (
{
closed = 1;
nodes = (
(37,-1,o),
(63,0,o),
(90,0,cs),
(117,0,o),
(143,-1,o),
(169,-4,c),
(178,-4,o),
(178,33,o),
(169,33,cs),
(150,33,o),
(141,36,o),
(141,44,cs),
(141,50,o),
(148,62,o),
(164,80,cs),
(228,156,l),
(286,72,ls),
(296,57,o),
(301,48,o),
(301,45,cs),
(301,37,o),
(288,33,o),
(261,33,cs),
(252,33,o),
(252,-4,o),
(261,-4,c),
(297,-1,o),
(333,0,o),
(370,0,cs),
(407,0,o),
(443,-1,o),
(479,-4,c),
(488,-4,o),
(488,33,o),
(479,33,cs),
(456,33,o),
(435,47,o),
(414,75,cs),
(294,234,l),
(392,351,ls),
(409,372,o),
(429,383,o),
(450,383,cs),
(458,383,o),
(458,418,o),
(450,418,c),
(422,416,o),
(396,415,o),
(368,415,cs),
(341,415,o),
(314,416,o),
(287,418,c),
(278,418,o),
(278,383,o),
(287,383,cs),
(310,383,o),
(322,378,o),
(322,367,cs),
(322,360,o),
(317,349,o),
(306,335,cs),
(261,279,l),
(216,343,ls),
(208,354,o),
(204,363,o),
(204,369,cs),
(204,378,o),
(213,383,o),
(233,383,cs),
(242,383,o),
(242,418,o),
(233,418,c),
(199,416,o),
(164,415,o),
(129,415,cs),
(95,415,o),
(60,416,o),
(25,418,c),
(17,418,o),
(17,383,o),
(25,383,cs),
(45,383,o),
(63,371,o),
(81,349,cs),
(197,201,l),
(86,66,ls),
(68,44,o),
(43,33,o),
(11,33,cs),
(2,33,o),
(2,-4,o),
(11,-4,c)
);
}
);
width = 480;
},
{
anchors = (
{
name = bottom;
pos = (216,0);
},
{
name = top;
pos = (237,415);
},
{
name = us;
pos = (396,415);
},
{
name = zzcurly;
pos = (352,378);
}
);
layerId = "6ABD9449-5E80-4451-809E-12ADEB9E9AB4";
shapes = (
{
closed = 1;
nodes = (
(35,-1,o),
(58,0,o),
(81,0,cs),
(104,0,o),
(127,-1,o),
(150,-4,c),
(159,-4,o),
(159,21,o),
(150,21,cs),
(129,21,o),
(118,26,o),
(118,36,cs),
(118,42,o),
(122,54,o),
(131,68,cs),
(215,188,l),
(294,60,ls),
(301,50,o),
(305,42,o),
(305,39,cs),
(305,27,o),
(288,21,o),
(255,21,cs),
(246,21,o),
(246,-4,o),
(255,-4,c),
(286,-1,o),
(316,0,o),
(347,0,cs),
(377,0,o),
(408,-1,o),
(438,-4,c),
(447,-4,o),
(447,21,o),
(438,21,cs),
(407,21,o),
(382,34,o),
(364,62,cs),
(254,225,l),
(363,359,ls),
(384,384,o),
(403,395,o),
(425,395,cs),
(434,395,o),
(434,418,o),
(425,418,c),
(402,416,o),
(379,415,o),
(356,415,cs),
(333,415,o),
(311,416,o),
(288,418,c),
(279,418,o),
(279,395,o),
(288,395,cs),
(316,395,o),
(330,388,o),
(330,374,cs),
(330,366,o),
(326,358,o),
(317,347,cs),
(240,244,l),
(171,355,ls),
(167,363,o),
(165,370,o),
(165,375,cs),
(165,389,o),
(177,395,o),
(204,395,cs),
(213,395,o),
(213,418,o),
(204,418,c),
(179,416,o),
(153,415,o),
(127,415,cs),
(102,415,o),
(76,416,o),
(51,418,c),
(42,418,o),
(42,395,o),
(51,395,cs),
(64,395,o),
(80,384,o),
(96,361,cs),
(203,207,l),
(83,54,ls),
(65,33,o),
(42,21,o),
(12,21,cs),
(3,21,o),
(3,-4,o),
(12,-4,c)
);
}
);
width = 438;
},
{
anchors = (
{
name = bottom;
pos = (190,0);
},
{
name = top;
pos = (205,415);
},
{
name = us;
pos = (330,415);
},
{
name = zzcurly;
pos = (290,378);
}
);
layerId = "70B83247-6FA0-4662-9656-C86DD2A17D3B";
shapes = (
{
closed = 1;
nodes = (
(30,-1,o),
(51,0,o),
(71,0,cs),
(91,0,o),
(111,-1,o),
(131,-4,c),
(140,-4,o),
(140,24,o),
(131,24,cs),
(116,24,o),
(105,27,o),
(105,37,cs),
(105,43,o),
(111,55,o),
(121,71,cs),
(180,171,l),
(235,63,ls),
(242,50,o),
(246,42,o),
(246,38,cs),
(246,29,o),
(232,24,o),
(208,24,cs),
(199,24,o),
(199,-4,o),
(208,-4,c),
(235,-1,o),
(263,0,o),
(291,0,cs),
(318,0,o),
(345,-1,o),
(373,-4,c),
(381,-4,o),
(381,24,o),
(373,24,cs),
(352,24,o),
(335,38,o),
(320,65,cs),
(224,231,l),
(309,358,ls),
(324,380,o),
(337,392,o),
(354,392,cs),
(363,392,o),
(363,418,o),
(354,418,c),
(333,416,o),
(313,415,o),
(292,415,cs),
(272,415,o),
(251,416,o),
(231,418,c),
(222,418,o),
(222,392,o),
(231,392,cs),
(251,392,o),
(264,386,o),
(264,374,cs),
(264,367,o),
(261,358,o),
(252,344,cs),
(204,262,l),
(159,352,ls),
(154,361,o),
(150,369,o),
(150,376,cs),
(150,387,o),
(162,392,o),
(180,392,cs),
(188,392,o),
(188,418,o),
(180,418,c),
(155,416,o),
(130,415,o),
(105,415,cs),
(80,415,o),
(55,416,o),
(30,418,c),
(21,418,o),
(21,392,o),
(30,392,cs),
(43,392,o),
(55,381,o),
(68,358,cs),
(161,204,l),
(67,57,ls),
(54,35,o),
(36,24,o),
(10,24,cs),
(1,24,o),
(1,-4,o),
(10,-4,c)
);
}
);
width = 373;
},
{
anchors = (
{
name = bottom;
pos = (258,0);
},
{
name = top;
pos = (282,415);
},
{
name = us;
pos = (474,415);
},
{
name = zzcurly;
pos = (424,378);
}
);
layerId = "9E6FDE2E-55A6-44A9-9556-F1822294BF26";
shapes = (
{
closed = 1;
nodes = (
(40,-1,o),
(67,0,o),
(95,0,cs),
(123,0,o),
(150,-1,o),
(178,-4,c),
(187,-4,o),
(187,24,o),
(178,24,cs),
(151,24,o),
(143,30,o),
(143,40,cs),
(143,46,o),
(147,56,o),
(160,71,cs),
(255,188,l),
(348,63,ls),
(355,53,o),
(360,46,o),
(360,42,cs),
(360,30,o),
(343,24,o),
(304,24,cs),
(295,24,o),
(295,-4,o),
(304,-4,c),
(341,-1,o),
(377,0,o),
(414,0,cs),
(451,0,o),
(487,-1,o),
(524,-4,c),
(533,-4,o),
(533,24,o),
(524,24,cs),
(486,24,o),
(454,38,o),
(432,65,cs),
(303,224,l),
(430,355,ls),
(454,380,o),
(481,392,o),
(508,392,cs),
(517,392,o),
(517,418,o),
(508,418,c),
(481,416,o),
(454,415,o),
(426,415,cs),
(398,415,o),
(371,416,o),
(343,418,c),
(334,418,o),
(334,392,o),
(343,392,cs),
(376,392,o),
(390,385,o),
(390,370,cs),
(390,362,o),
(383,354,o),
(375,344,cs),
(285,243,l),
(207,352,ls),
(201,361,o),
(199,367,o),
(199,372,cs),
(199,386,o),
(210,392,o),
(242,392,cs),
(251,392,o),
(251,418,o),
(242,418,c),
(211,416,o),
(181,415,o),
(150,415,cs),
(120,415,o),
(89,416,o),
(58,418,c),
(49,418,o),
(49,392,o),
(58,392,cs),
(75,392,o),
(97,381,o),
(117,357,cs),
(242,206,l),
(101,58,ls),
(80,36,o),
(48,24,o),
(12,24,cs),
(3,24,o),
(3,-4,o),
(12,-4,c)
);
}
);
width = 523;
},
{
anchors = (
{
name = bottom;
pos = (324,1);
},
{
name = top;
pos = (357,661);
},
{
name = us;
pos = (609,661);
},
{
name = zzcurly;
pos = (540,603);
}
);
layerId = "00F4936D-6309-4DEC-83B3-42806ED1A477";
shapes = (
{
closed = 1;
nodes = (
(50,0,o),
(85,0,o),
(120,0,cs),
(156,0,o),
(190,0,o),
(227,-3,c),
(240,-3,o),
(241,31,o),
(227,31,cs),
(194,31,o),
(177,42,o),
(177,57,cs),
(177,69,o),
(185,88,o),
(198,108,cs),
(325,303,l),
(448,96,ls),
(459,78,o),
(463,66,o),
(463,61,cs),
(463,42,o),
(438,31,o),
(387,31,cs),
(373,31,o),
(373,-3,o),
(387,-3,c),
(424,0,o),
(469,0,o),
(529,0,cs),
(587,0,o),
(631,0,o),
(667,-3,c),
(679,-3,o),
(680,31,o),
(667,31,cs),
(619,31,o),
(580,55,o),
(552,98,cs),
(385,358,l),
(552,573,ls),
(583,614,o),
(615,632,o),
(647,632,cs),
(661,632,o),
(661,666,o),
(647,666,c),
(621,663,o),
(583,663,o),
(541,663,cs),
(498,663,o),
(463,663,o),
(437,666,c),
(423,666,o),
(424,632,o),
(437,632,cs),
(480,632,o),
(502,619,o),
(502,596,cs),
(502,585,o),
(496,572,o),
(483,554,cs),
(364,386,l),
(258,567,ls),
(251,579,o),
(248,590,o),
(248,599,cs),
(248,621,o),
(269,632,o),
(309,632,cs),
(322,632,o),
(323,666,o),
(309,666,c),
(284,663,o),
(244,663,o),
(192,663,cs),
(135,663,o),
(101,663,o),
(76,666,c),
(63,666,o),
(62,632,o),
(76,632,cs),
(96,632,o),
(120,614,o),
(146,576,cs),
(308,331,l),
(124,87,ls),
(98,53,o),
(63,31,o),
(16,31,cs),
(2,31,o),
(2,-3,o),
(16,-3,c)
);
}
);
width = 669;
}
);
unicode = 120;
}
{
glyphname = section;
layers = (
{
layerId = master01;
shapes = (
{
closed = 1;
nodes = (
(324,-197,o),
(404,-123,o),
(404,-30,cs),
(404,143,o),
(105,158,o),
(105,300,cs),
(105,338,o),
(128,370,o),
(172,394,c),
(146,410,l),
(86,390,o),
(46,336,o),
(46,270,cs),
(46,94,o),
(330,77,o),
(330,-65,cs),
(330,-118,o),
(290,-159,o),
(230,-159,cs),
(197,-159,o),
(171,-146,o),
(146,-117,cs),
(122,-89,o),
(107,-75,o),
(101,-75,cs),
(94,-75,o),
(85,-80,o),
(75,-89,cs),
(64,-98,o),
(58,-105,o),
(58,-113,cs),
(58,-138,o),
(78,-158,o),
(117,-173,cs),
(155,-189,o),
(192,-197,o),
(223,-197,cs)
);
},
{
closed = 1;
nodes = (
(398,121,o),
(429,175,o),
(429,232,cs),
(429,405,o),
(149,429,o),
(149,552,cs),
(149,597,o),
(185,636,o),
(237,636,cs),
(263,636,o),
(289,624,o),
(310,603,cs),
(332,580,o),
(344,569,o),
(347,569,cs),
(354,569,o),
(362,573,o),
(371,581,cs),
(380,589,o),
(385,598,o),
(385,607,cs),
(385,642,o),
(321,674,o),
(249,674,cs),
(157,674,o),
(83,606,o),
(83,521,cs),
(83,350,o),
(368,342,o),
(368,204,cs),
(368,166,o),
(346,129,o),
(305,104,c),
(331,84,l)
);
}
);
width = 467;
},
{
layerId = "75918100-ED89-42A8-B0FE-888EB9C86810";
shapes = (
{
closed = 1;
nodes = (
(326,-197,o),
(422,-118,o),
(422,-24,cs),
(422,148,o),
(118,170,o),
(118,293,cs),
(118,328,o),
(141,357,o),
(190,378,c),
(141,406,l),
(73,384,o),
(28,323,o),
(28,258,cs),
(28,85,o),
(322,74,o),
(322,-64,cs),
(322,-115,o),
(284,-156,o),
(230,-156,cs),
(199,-156,o),
(183,-145,o),
(149,-95,cs),
(123,-56,o),
(114,-45,o),
(101,-45,cs),
(91,-45,o),
(80,-50,o),
(67,-59,cs),
(49,-72,o),
(40,-85,o),
(40,-99,cs),
(40,-128,o),
(71,-156,o),
(126,-176,cs),
(161,-189,o),
(191,-197,o),
(223,-197,cs)
);
},
{
closed = 1;
nodes = (
(413,128,o),
(447,173,o),
(447,235,cs),
(447,420,o),
(157,427,o),
(157,556,cs),
(157,596,o),
(184,633,o),
(234,633,cs),
(261,633,o),
(283,622,o),
(308,581,cs),
(330,545,o),
(335,538,o),
(347,538,cs),
(358,538,o),
(369,542,o),
(380,551,cs),
(395,563,o),
(403,577,o),
(403,592,cs),
(403,633,o),
(326,674,o),
(249,674,cs),
(146,674,o),
(65,600,o),
(65,514,cs),
(65,353,o),
(361,331,o),
(361,211,cs),
(361,177,o),
(338,142,o),
(296,120,c),
(345,95,l)
);
}
);
width = 466;
},
{
layerId = "6ABD9449-5E80-4451-809E-12ADEB9E9AB4";
shapes = (
{
closed = 1;
nodes = (
(332,-197,o),
(398,-136,o),
(398,-47,cs),
(398,140,o),
(101,144,o),
(101,294,cs),
(101,333,o),
(122,373,o),
(174,400,c),
(151,418,l),
(88,398,o),
(52,338,o),
(52,271,cs),
(52,87,o),
(333,91,o),
(333,-70,cs),
(333,-123,o),
(301,-170,o),
(239,-170,cs),
(196,-170,o),
(172,-158,o),
(145,-125,cs),
(126,-102,o),
(109,-85,o),
(100,-85,cs),
(95,-85,o),
(87,-90,o),
(77,-99,cs),
(68,-106,o),
(64,-112,o),
(64,-117,cs),
(64,-138,o),
(84,-160,o),
(114,-172,cs),
(154,-188,o),
(191,-197,o),
(221,-197,cs)
);
},
{
closed = 1;
nodes = (
(392,116,o),
(423,160,o),
(423,220,cs),
(423,397,o),
(146,411,o),
(146,553,cs),
(146,603,o),
(182,637,o),
(237,637,cs),
(266,637,o),
(293,627,o),
(310,610,cs),
(329,592,o),
(343,579,o),
(347,579,cs),
(352,579,o),
(359,583,o),
(368,591,cs),
(375,597,o),
(379,605,o),
(379,615,cs),
(379,654,o),
(343,674,o),
(273,674,cs),
(163,674,o),
(89,615,o),
(89,527,cs),
(89,355,o),
(373,350,o),
(373,206,cs),
(373,169,o),
(355,130,o),
(300,98,c),
(325,79,l)
);
}
);
width = 467;
},
{
layerId = "70B83247-6FA0-4662-9656-C86DD2A17D3B";
shapes = (
{
closed = 1;
nodes = (
(268,-197,o),
(335,-122,o),
(335,-27,cs),
(335,145,o),
(96,167,o),
(96,299,cs),
(96,335,o),
(111,366,o),
(141,389,c),
(115,407,l),
(69,385,o),
(37,322,o),
(37,254,cs),
(37,111,o),
(267,57,o),
(267,-56,cs),
(267,-115,o),
(236,-156,o),
(191,-156,cs),
(166,-156,o),
(142,-140,o),
(125,-111,cs),
(108,-82,o),
(93,-66,o),
(87,-66,cs),
(81,-66,o),
(73,-71,o),
(63,-80,cs),
(53,-90,o),
(46,-100,o),
(46,-109,cs),
(46,-136,o),
(69,-157,o),
(95,-171,cs),
(127,-188,o),
(156,-197,o),
(183,-197,cs)
);
},
{
closed = 1;
nodes = (
(330,121,o),
(355,173,o),
(355,237,cs),
(355,399,o),
(129,434,o),
(129,547,cs),
(129,598,o),
(158,635,o),
(194,635,cs),
(216,635,o),
(237,621,o),
(252,596,cs),
(267,570,o),
(278,560,o),
(283,560,cs),
(290,560,o),
(297,562,o),
(306,572,cs),
(314,581,o),
(320,589,o),
(320,603,cs),
(320,641,o),
(267,674,o),
(207,674,cs),
(128,674,o),
(66,605,o),
(66,519,cs),
(66,342,o),
(294,336,o),
(294,202,cs),
(294,165,o),
(281,134,o),
(254,109,c),
(278,88,l)
);
}
);
width = 385;
},
{
layerId = "9E6FDE2E-55A6-44A9-9556-F1822294BF26";
shapes = (
{
closed = 1;
nodes = (
(373,-197,o),
(472,-124,o),
(472,-32,cs),
(472,135,o),
(114,160,o),
(114,300,cs),
(114,343,o),
(144,374,o),
(203,399,c),
(178,414,l),
(94,391,o),
(55,323,o),
(55,263,cs),
(55,118,o),
(394,54,o),
(394,-47,cs),
(394,-100,o),
(349,-162,o),
(269,-162,cs),
(231,-162,o),
(197,-149,o),
(167,-124,cs),
(137,-99,o),
(119,-84,o),
(114,-84,cs),
(107,-84,o),
(98,-88,o),
(86,-98,cs),
(75,-106,o),
(70,-111,o),
(70,-117,cs),
(70,-139,o),
(86,-160,o),
(139,-176,cs),
(185,-190,o),
(228,-197,o),
(264,-197,cs)
);
},
{
closed = 1;
nodes = (
(464,115,o),
(503,164,o),
(503,232,cs),
(503,380,o),
(169,438,o),
(169,534,cs),
(169,597,o),
(220,637,o),
(279,637,cs),
(309,637,o),
(339,630,o),
(367,609,cs),
(395,588,o),
(410,578,o),
(411,578,cs),
(417,578,o),
(427,583,o),
(437,590,cs),
(446,597,o),
(450,606,o),
(450,611,cs),
(450,656,o),
(337,674,o),
(291,674,cs),
(193,674,o),
(100,610,o),
(100,523,cs),
(100,356,o),
(442,339,o),
(442,206,cs),
(442,165,o),
(413,127,o),
(357,98,c),
(385,79,l)
);
}
);
width = 548;
},
{
layerId = "00F4936D-6309-4DEC-83B3-42806ED1A477";
shapes = (
{
closed = 1;
nodes = (
(324,-197,o),
(404,-123,o),
(404,-30,cs),
(404,143,o),
(105,158,o),
(105,300,cs),
(105,338,o),
(128,370,o),
(172,394,c),
(146,410,l),
(86,390,o),
(46,336,o),
(46,270,cs),
(46,94,o),
(330,77,o),
(330,-65,cs),
(330,-118,o),
(290,-159,o),
(230,-159,cs),
(197,-159,o),
(171,-146,o),
(146,-117,cs),
(122,-89,o),
(107,-75,o),
(101,-75,cs),
(94,-75,o),
(85,-80,o),
(75,-89,cs),
(64,-98,o),
(58,-105,o),
(58,-113,cs),
(58,-138,o),
(79,-157,o),
(117,-173,cs),
(155,-189,o),
(192,-197,o),
(223,-197,cs)
);
},
{
closed = 1;
nodes = (
(398,121,o),
(429,175,o),
(429,232,cs),
(429,405,o),
(149,429,o),
(149,552,cs),
(149,597,o),
(185,636,o),
(237,636,cs),
(263,636,o),
(289,624,o),
(310,603,cs),
(332,580,o),
(344,569,o),
(347,569,cs),
(354,569,o),
(362,573,o),
(371,581,cs),
(380,589,o),
(385,598,o),
(385,607,cs),
(385,642,o),
(321,674,o),
(249,674,cs),
(157,674,o),
(83,606,o),
(83,521,cs),
(83,350,o),
(368,342,o),
(368,204,cs),
(368,166,o),
(346,129,o),
(305,104,c),
(331,84,l)
);
}
);
width = 467;
}
);
unicode = 167;
}
{
glyphname = copyright;
layers = (
{
layerId = master01;
shapes = (
{
closed = 1;
nodes = (
(597,13,o),
(753,169,o),
(753,365,cs),
(753,562,o),
(597,717,o),
(401,717,cs),
(205,717,o),
(49,562,o),
(49,365,cs),
(49,169,o),
(205,13,o),
(401,13,cs)
);
},
{
closed = 1;
nodes = (
(217,47,o),
(83,195,o),
(83,369,cs),
(83,542,o),
(225,683,o),
(401,683,cs),
(579,683,o),
(719,542,o),
(719,366,cs),
(719,188,o),
(578,47,o),
(397,47,cs)
);
},
{
closed = 1;
nodes = (
(440,158,o),
(477,163,o),
(506,171,c),
(515,174,o),
(522,176,o),
(528,177,c),
(539,192,o),
(547,218,o),
(555,256,c),
(555,258,o),
(554,259,o),
(553,261,cs),
(551,264,o),
(537,263,o),
(535,259,cs),
(513,208,o),
(472,180,o),
(403,180,cs),
(313,180,o),
(257,273,o),
(257,373,cs),
(257,463,o),
(320,551,o),
(404,551,cs),
(478,551,o),
(518,521,o),
(523,463,cs),
(523,458,o),
(542,457,o),
(543,464,c),
(543,498,o),
(540,529,o),
(535,555,c),
(504,561,o),
(481,564,o),
(464,567,cs),
(447,570,o),
(430,572,o),
(412,572,cs),
(275,572,o),
(201,470,o),
(201,355,cs),
(201,234,o),
(296,158,o),
(396,158,cs)
);
}
);
width = 802;
},
{
layerId = "75918100-ED89-42A8-B0FE-888EB9C86810";
shapes = (
{
closed = 1;
nodes = (
(560,13,o),
(733,156,o),
(733,365,cs),
(733,534,o),
(604,717,o),
(381,717,cs),
(184,717,o),
(29,556,o),
(29,365,cs),
(29,199,o),
(160,13,o),
(381,13,cs)
);
},
{
closed = 1;
nodes = (
(208,58,o),
(80,199,o),
(80,365,cs),
(80,526,o),
(205,672,o),
(381,672,cs),
(553,672,o),
(684,531,o),
(684,365,cs),
(684,194,o),
(542,58,o),
(381,58,cs)
);
},
{
closed = 1;
nodes = (
(428,158,o),
(462,162,o),
(493,171,cs),
(501,173,o),
(510,176,o),
(519,177,c),
(529,192,o),
(545,239,o),
(549,260,c),
(549,262,o),
(548,264,o),
(545,266,cs),
(537,270,o),
(523,272,o),
(521,267,cs),
(503,212,o),
(458,186,o),
(392,186,cs),
(310,186,o),
(258,274,o),
(258,373,cs),
(258,467,o),
(307,546,o),
(393,546,cs),
(451,546,o),
(504,526,o),
(510,458,cs),
(510,451,o),
(537,453,o),
(537,460,cs),
(537,506,o),
(532,538,o),
(525,555,c),
(515,556,o),
(505,557,o),
(494,559,cs),
(453,568,o),
(420,571,o),
(395,571,cs),
(267,571,o),
(178,480,o),
(178,355,cs),
(178,239,o),
(273,158,o),
(388,158,cs)
);
}
);
width = 763;
},
{
layerId = "6ABD9449-5E80-4451-809E-12ADEB9E9AB4";
shapes = (
{
closed = 1;
nodes = (
(608,13,o),
(759,173,o),
(759,365,cs),
(759,571,o),
(594,717,o),
(407,717,cs),
(212,717,o),
(55,564,o),
(55,365,cs),
(55,160,o),
(219,13,o),
(407,13,cs)
);
},
{
closed = 1;
nodes = (
(220,43,o),
(84,194,o),
(84,370,cs),
(84,546,o),
(231,687,o),
(407,687,cs),
(587,687,o),
(730,546,o),
(730,366,cs),
(730,187,o),
(589,43,o),
(402,43,cs)
);
},
{
closed = 1;
nodes = (
(444,158,o),
(481,163,o),
(510,171,cs),
(519,175,o),
(526,176,o),
(531,177,c),
(542,192,o),
(548,211,o),
(556,254,c),
(556,256,o),
(556,258,o),
(556,259,cs),
(556,262,o),
(542,260,o),
(540,256,cs),
(516,207,o),
(477,178,o),
(406,178,cs),
(314,178,o),
(256,272,o),
(256,373,cs),
(256,461,o),
(324,552,o),
(407,552,cs),
(487,552,o),
(521,520,o),
(527,465,cs),
(527,459,o),
(542,458,o),
(544,465,cs),
(544,495,o),
(542,526,o),
(538,555,c),
(500,562,o),
(473,567,o),
(454,570,cs),
(445,571,o),
(433,572,o),
(417,572,cs),
(278,572,o),
(208,467,o),
(208,355,cs),
(208,232,o),
(304,158,o),
(398,158,cs)
);
}
);
width = 815;
},
{
layerId = "70B83247-6FA0-4662-9656-C86DD2A17D3B";
shapes = (
{
closed = 1;
nodes = (
(580,13,o),
(743,165,o),
(743,365,cs),
(743,554,o),
(596,717,o),
(391,717,cs),
(194,717,o),
(39,560,o),
(39,365,cs),
(39,178,o),
(185,13,o),
(391,13,cs)
);
},
{
closed = 1;
nodes = (
(209,50,o),
(76,197,o),
(76,368,cs),
(76,537,o),
(212,680,o),
(391,680,cs),
(567,680,o),
(706,539,o),
(706,366,cs),
(706,190,o),
(563,50,o),
(388,50,cs)
);
},
{
closed = 1;
nodes = (
(425,158,o),
(453,163,o),
(477,171,c),
(485,175,o),
(491,176,o),
(496,177,c),
(503,192,o),
(513,224,o),
(518,257,c),
(518,259,o),
(517,261,o),
(516,262,cs),
(512,266,o),
(501,266,o),
(500,261,cs),
(483,209,o),
(450,182,o),
(395,182,cs),
(325,182,o),
(282,273,o),
(282,373,cs),
(282,464,o),
(328,549,o),
(396,549,cs),
(451,549,o),
(486,521,o),
(490,461,cs),
(491,456,o),
(508,456,o),
(508,463,c),
(508,500,o),
(505,531,o),
(500,555,c),
(482,559,o),
(471,562,o),
(456,565,cs),
(436,570,o),
(416,572,o),
(400,572,cs),
(293,572,o),
(230,473,o),
(230,355,cs),
(230,235,o),
(306,158,o),
(390,158,cs)
);
}
);
width = 782;
},
{
layerId = "9E6FDE2E-55A6-44A9-9556-F1822294BF26";
shapes = (
{
closed = 1;
nodes = (
(614,13,o),
(763,173,o),
(763,365,cs),
(763,570,o),
(597,717,o),
(411,717,cs),
(216,717,o),
(59,564,o),
(59,365,cs),
(59,161,o),
(224,13,o),
(411,13,cs)
);
},
{
closed = 1;
nodes = (
(226,43,o),
(90,194,o),
(90,370,cs),
(90,546,o),
(237,687,o),
(411,687,cs),
(590,687,o),
(732,546,o),
(732,366,cs),
(732,187,o),
(593,43,o),
(407,43,cs)
);
},
{
closed = 1;
nodes = (
(456,158,o),
(501,163,o),
(535,171,c),
(544,174,o),
(554,176,o),
(561,177,c),
(574,192,o),
(582,213,o),
(591,254,c),
(591,256,o),
(591,258,o),
(591,259,cs),
(590,262,o),
(573,260,o),
(571,257,cs),
(542,207,o),
(495,178,o),
(411,178,cs),
(301,178,o),
(232,272,o),
(232,373,cs),
(232,462,o),
(312,552,o),
(412,552,cs),
(505,552,o),
(549,521,o),
(556,464,cs),
(556,459,o),
(575,458,o),
(578,465,c),
(578,496,o),
(575,526,o),
(569,555,c),
(526,562,o),
(491,567,o),
(472,570,cs),
(459,571,o),
(444,572,o),
(424,572,cs),
(257,572,o),
(172,467,o),
(172,355,cs),
(172,232,o),
(287,158,o),
(402,158,cs)
);
}
);
width = 822;
},
{
layerId = "00F4936D-6309-4DEC-83B3-42806ED1A477";
shapes = (
{
closed = 1;
nodes = (
(597,13,o),
(753,169,o),
(753,365,cs),
(753,562,o),
(597,717,o),
(401,717,cs),
(205,717,o),
(49,562,o),
(49,365,cs),
(49,169,o),
(205,13,o),
(401,13,cs)
);
},
{
closed = 1;
nodes = (
(217,47,o),
(83,195,o),
(83,369,cs),
(83,542,o),
(225,683,o),
(401,683,cs),
(579,683,o),
(719,542,o),
(719,366,cs),
(719,188,o),
(578,47,o),
(397,47,cs)
);
},
{
closed = 1;
nodes = (
(440,158,o),
(477,163,o),
(506,171,c),
(515,174,o),
(522,176,o),
(528,177,c),
(539,192,o),
(547,218,o),
(555,256,c),
(555,258,o),
(554,259,o),
(553,261,cs),
(551,264,o),
(537,263,o),
(535,259,cs),
(513,208,o),
(472,180,o),
(403,180,cs),
(313,180,o),
(257,273,o),
(257,373,cs),
(257,463,o),
(320,551,o),
(404,551,cs),
(478,551,o),
(518,521,o),
(523,463,cs),
(523,458,o),
(542,457,o),
(543,464,c),
(543,498,o),
(540,529,o),
(535,555,c),
(504,561,o),
(481,564,o),
(464,567,cs),
(447,570,o),
(430,572,o),
(412,572,cs),
(275,572,o),
(201,470,o),
(201,355,cs),
(201,234,o),
(296,158,o),
(396,158,cs)
);
}
);
width = 802;
}
);
unicode = 169;
}
{
glyphname = macron;
layers = (
{
layerId = master01;
shapes = (
{
closed = 1;
nodes = (
(256,512,ls),
(265,512,o),
(267,558,o),
(258,558,cs),
(38,558,ls),
(29,558,o),
(29,512,o),
(38,512,cs)
);
}
);
width = 297;
},
{
layerId = "75918100-ED89-42A8-B0FE-888EB9C86810";
shapes = (
{
closed = 1;
nodes = (
(254,512,ls),
(264,512,o),
(266,564,o),
(256,564,cs),
(37,564,ls),
(27,564,o),
(27,512,o),
(37,512,cs)
);
}
);
width = 296;
},
{
layerId = "6ABD9449-5E80-4451-809E-12ADEB9E9AB4";
shapes = (
{
closed = 1;
nodes = (
(256,512,ls),
(266,512,o),
(268,556,o),
(258,556,cs),
(39,556,ls),
(29,556,o),
(29,512,o),
(39,512,cs)
);
}
);
width = 297;
},
{
layerId = "70B83247-6FA0-4662-9656-C86DD2A17D3B";
shapes = (
{
closed = 1;
nodes = (
(204,512,ls),
(213,512,o),
(214,558,o),
(205,558,cs),
(29,558,ls),
(20,558,o),
(20,512,o),
(29,512,cs)
);
}
);
width = 236;
},
{
layerId = "9E6FDE2E-55A6-44A9-9556-F1822294BF26";
shapes = (
{
closed = 1;
nodes = (
(308,512,ls),
(317,512,o),
(320,558,o),
(311,558,cs),
(47,558,ls),
(38,558,o),
(38,512,o),
(47,512,cs)
);
}
);
width = 357;
},
{
layerId = "00F4936D-6309-4DEC-83B3-42806ED1A477";
shapes = (
{
closed = 1;
nodes = (
(256,512,ls),
(265,512,o),
(267,558,o),
(258,558,cs),
(38,558,ls),
(29,558,o),
(29,512,o),
(38,512,cs)
);
}
);
width = 297;
}
);
unicode = 175;
}
{
glyphname = threesuperior;
layers = (
{
layerId = master01;
shapes = (
{
closed = 1;
nodes = (
(193,246,o),
(255,300,o),
(255,376,cs),
(255,419,o),
(235,456,o),
(192,470,cs),
(183,474,o),
(184,479,o),
(192,484,cs),
(222,503,o),
(235,529,o),
(235,558,cs),
(235,607,o),
(198,644,o),
(147,644,cs),
(105,644,o),
(76,619,o),
(46,577,cs),
(42,570,o),
(60,559,o),
(65,565,cs),
(87,595,o),
(105,608,o),
(126,608,cs),
(155,608,o),
(176,583,o),
(176,550,cs),
(176,503,o),
(137,476,o),
(82,476,cs),
(74,476,o),
(74,447,o),
(83,447,c),
(93,451,o),
(105,452,o),
(115,452,cs),
(160,452,o),
(190,416,o),
(190,361,cs),
(190,308,o),
(168,273,o),
(135,273,cs),
(120,273,o),
(106,280,o),
(91,297,cs),
(78,313,o),
(68,319,o),
(53,319,cs),
(40,319,o),
(28,310,o),
(28,292,cs),
(28,260,o),
(74,246,o),
(116,246,cs)
);
}
);
width = 293;
},
{
layerId = "75918100-ED89-42A8-B0FE-888EB9C86810";
shapes = (
{
closed = 1;
nodes = (
(202,246,o),
(266,307,o),
(266,379,cs),
(266,419,o),
(246,456,o),
(214,471,cs),
(206,475,o),
(204,481,o),
(212,486,cs),
(238,502,o),
(246,531,o),
(246,555,cs),
(246,609,o),
(206,644,o),
(151,644,cs),
(100,644,o),
(65,614,o),
(38,567,cs),
(32,556,o),
(54,542,o),
(59,551,cs),
(76,583,o),
(97,601,o),
(120,601,cs),
(148,601,o),
(165,574,o),
(165,546,cs),
(165,505,o),
(128,479,o),
(82,479,cs),
(70,479,o),
(70,442,o),
(85,442,c),
(94,445,o),
(104,447,o),
(115,447,cs),
(149,447,o),
(179,420,o),
(179,359,cs),
(179,307,o),
(165,281,o),
(136,281,cs),
(121,281,o),
(110,288,o),
(94,308,cs),
(79,326,o),
(70,331,o),
(48,331,cs),
(29,331,o),
(17,321,o),
(17,300,cs),
(17,258,o),
(69,246,o),
(111,246,cs)
);
}
);
width = 288;
},
{
layerId = "6ABD9449-5E80-4451-809E-12ADEB9E9AB4";
shapes = (
{
closed = 1;
nodes = (
(190,246,o),
(251,297,o),
(251,374,cs),
(251,419,o),
(230,458,o),
(182,470,cs),
(173,472,o),
(172,476,o),
(183,483,cs),
(216,503,o),
(231,530,o),
(231,560,cs),
(231,607,o),
(195,644,o),
(146,644,cs),
(107,644,o),
(79,620,o),
(49,581,cs),
(45,575,o),
(61,562,o),
(66,569,cs),
(90,598,o),
(108,610,o),
(127,610,cs),
(157,610,o),
(180,587,o),
(180,551,cs),
(180,503,o),
(139,475,o),
(81,475,cs),
(75,475,o),
(75,448,o),
(82,448,c),
(93,453,o),
(105,453,o),
(114,453,cs),
(164,453,o),
(194,417,o),
(194,361,cs),
(194,306,o),
(171,271,o),
(134,271,cs),
(119,271,o),
(104,277,o),
(90,294,cs),
(77,310,o),
(66,315,o),
(54,315,cs),
(43,315,o),
(32,306,o),
(32,290,cs),
(32,260,o),
(73,246,o),
(115,246,cs)
);
}
);
width = 296;
},
{
layerId = "70B83247-6FA0-4662-9656-C86DD2A17D3B";
shapes = (
{
closed = 1;
nodes = (
(156,246,o),
(203,302,o),
(203,377,cs),
(203,419,o),
(186,456,o),
(158,471,cs),
(152,474,o),
(152,479,o),
(158,484,cs),
(177,500,o),
(188,528,o),
(188,557,cs),
(188,607,o),
(159,644,o),
(119,644,cs),
(83,644,o),
(60,617,o),
(36,569,cs),
(33,563,o),
(48,552,o),
(54,562,cs),
(71,593,o),
(84,606,o),
(99,606,cs),
(120,606,o),
(135,581,o),
(135,549,cs),
(135,504,o),
(106,477,o),
(69,477,cs),
(61,477,o),
(61,445,o),
(70,445,c),
(77,449,o),
(87,450,o),
(94,450,cs),
(122,450,o),
(145,417,o),
(145,361,cs),
(145,309,o),
(131,276,o),
(109,276,cs),
(97,276,o),
(89,283,o),
(77,301,cs),
(66,318,o),
(59,323,o),
(45,323,cs),
(33,323,o),
(23,313,o),
(23,295,cs),
(23,259,o),
(62,246,o),
(94,246,cs)
);
}
);
width = 239;
},
{
layerId = "9E6FDE2E-55A6-44A9-9556-F1822294BF26";
shapes = (
{
closed = 1;
nodes = (
(231,246,o),
(307,297,o),
(307,375,cs),
(307,420,o),
(285,455,o),
(227,470,cs),
(214,473,o),
(217,478,o),
(228,483,cs),
(268,505,o),
(282,530,o),
(282,559,cs),
(282,607,o),
(237,644,o),
(176,644,cs),
(128,644,o),
(92,620,o),
(57,584,cs),
(51,578,o),
(72,566,o),
(77,568,cs),
(106,597,o),
(129,610,o),
(153,610,cs),
(189,610,o),
(218,586,o),
(218,551,cs),
(218,503,o),
(168,475,o),
(95,475,cs),
(87,475,o),
(87,448,o),
(96,448,c),
(109,452,o),
(124,453,o),
(136,453,cs),
(198,453,o),
(236,417,o),
(236,362,cs),
(236,306,o),
(207,271,o),
(161,271,cs),
(142,271,o),
(125,277,o),
(106,294,cs),
(89,309,o),
(77,316,o),
(61,316,cs),
(47,316,o),
(34,306,o),
(34,290,cs),
(34,260,o),
(85,246,o),
(138,246,cs)
);
}
);
width = 348;
},
{
layerId = "00F4936D-6309-4DEC-83B3-42806ED1A477";
shapes = (
{
closed = 1;
nodes = (
(193,246,o),
(255,300,o),
(255,376,cs),
(255,419,o),
(235,456,o),
(192,470,cs),
(183,474,o),
(184,479,o),
(192,484,cs),
(222,503,o),
(235,529,o),
(235,558,cs),
(235,607,o),
(198,644,o),
(147,644,cs),
(105,644,o),
(76,619,o),
(46,577,cs),
(42,570,o),
(60,559,o),
(65,565,cs),
(87,595,o),
(105,608,o),
(126,608,cs),
(155,608,o),
(176,583,o),
(176,550,cs),
(176,503,o),
(137,476,o),
(82,476,cs),
(74,476,o),
(74,447,o),
(83,447,c),
(93,451,o),
(105,452,o),
(115,452,cs),
(160,452,o),
(190,416,o),
(190,361,cs),
(190,308,o),
(168,273,o),
(135,273,cs),
(120,273,o),
(106,280,o),
(91,297,cs),
(78,313,o),
(68,319,o),
(53,319,cs),
(40,319,o),
(28,310,o),
(28,292,cs),
(28,260,o),
(74,246,o),
(116,246,cs)
);
}
);
width = 293;
}
);
metricLeft = "=three*0.6";
metricWidth = "=zerosuperior";
unicode = 179;
}
{
glyphname = acute;
layers = (
{
guides = (
{
angle = -27.7324;
pos = (164,1022);
}
);
layerId = master01;
shapes = (
{
closed = 1;
nodes = (
(94,496,o),
(101,500,o),
(107,509,cs),
(196,650,ls),
(204,662,o),
(170,684,o),
(152,684,cs),
(147,684,o),
(144,683,o),
(142,679,cs),
(75,526,ls),
(67,509,o),
(76,496,o),
(88,496,cs)
);
}
);
width = 278;
},
{
guides = (
{
angle = 151.9538;
pos = (168,1021);
}
);
layerId = "75918100-ED89-42A8-B0FE-888EB9C86810";
shapes = (
{
closed = 1;
nodes = (
(101,495,o),
(112,501,o),
(123,518,cs),
(210,649,ls),
(222,666,o),
(173,698,o),
(147,698,cs),
(140,698,o),
(135,696,o),
(133,690,cs),
(75,543,ls),
(64,515,o),
(75,495,o),
(91,495,cs)
);
}
);
width = 277;
},
{
layerId = "6ABD9449-5E80-4451-809E-12ADEB9E9AB4";
shapes = (
{
closed = 1;
nodes = (
(92,496,o),
(98,499,o),
(102,506,cs),
(191,651,ls),
(197,661,o),
(169,679,o),
(154,679,cs),
(150,679,o),
(146,678,o),
(145,675,cs),
(75,520,ls),
(69,507,o),
(77,496,o),
(87,496,cs)
);
}
);
width = 278;
},
{
guides = (
{
angle = -15.3008;
pos = (172,1381);
},
{
angle = -15.3008;
pos = (107,1018);
}
);
layerId = "70B83247-6FA0-4662-9656-C86DD2A17D3B";
shapes = (
{
closed = 1;
nodes = (
(75,494,o),
(84,500,o),
(90,512,cs),
(165,657,ls),
(172,671,o),
(142,689,o),
(124,689,cs),
(118,689,o),
(113,687,o),
(111,682,cs),
(58,525,ls),
(51,505,o),
(58,494,o),
(68,494,cs)
);
}
);
width = 226;
},
{
layerId = "9E6FDE2E-55A6-44A9-9556-F1822294BF26";
shapes = (
{
closed = 1;
nodes = (
(113,497,o),
(119,499,o),
(124,506,cs),
(227,644,ls),
(234,653,o),
(198,679,o),
(181,679,cs),
(177,679,o),
(175,678,o),
(173,675,cs),
(92,527,ls),
(85,514,o),
(95,497,o),
(108,497,cs)
);
}
);
width = 330;
},
{
guides = (
{
angle = -27.7324;
pos = (164,1022);
}
);
layerId = "00F4936D-6309-4DEC-83B3-42806ED1A477";
shapes = (
{
closed = 1;
nodes = (
(94,496,o),
(101,500,o),
(107,509,cs),
(196,650,ls),
(204,662,o),
(169,684,o),
(152,684,cs),
(147,684,o),
(144,683,o),
(142,679,cs),
(75,526,ls),
(67,509,o),
(76,496,o),
(88,496,cs)
);
}
);
width = 278;
}
);
unicode = 180;
}
{
glyphname = paragraph;
layers = (
{
layerId = master01;
shapes = (
{
closed = 1;
nodes = (
(210,-1,o),
(237,0,o),
(264,0,cs),
(389,0,ls),
(413,0,o),
(439,-1,o),
(466,-4,c),
(470,-4,o),
(473,1,o),
(473,10,cs),
(473,20,o),
(470,24,o),
(466,24,cs),
(427,24,o),
(408,37,o),
(408,62,cs),
(408,599,ls),
(408,624,o),
(427,636,o),
(466,636,cs),
(470,636,o),
(473,641,o),
(473,650,cs),
(473,660,o),
(470,664,o),
(466,664,c),
(438,662,o),
(412,661,o),
(384,661,cs),
(357,661,o),
(330,661,o),
(303,662,cs),
(275,663,o),
(249,663,o),
(221,663,cs),
(107,663,o),
(8,601,o),
(8,487,cs),
(8,370,o),
(81,299,o),
(213,292,cs),
(229,291,o),
(238,283,o),
(238,267,cs),
(238,61,ls),
(238,36,o),
(219,24,o),
(181,24,cs),
(177,24,o),
(174,20,o),
(174,10,cs),
(174,1,o),
(177,-4,o),
(181,-4,c)
);
},
{
closed = 1;
nodes = (
(296,24,o),
(283,37,o),
(283,62,cs),
(283,599,ls),
(283,623,o),
(296,635,o),
(323,635,cs),
(350,635,o),
(363,623,o),
(363,599,cs),
(363,61,ls),
(363,36,o),
(350,24,o),
(323,24,cs)
);
}
);
width = 487;
},
{
layerId = "75918100-ED89-42A8-B0FE-888EB9C86810";
shapes = (
{
closed = 1;
nodes = (
(207,-1,o),
(241,0,o),
(283,0,cs),
(433,0,ls),
(470,0,o),
(502,-1,o),
(528,-4,c),
(533,-4,o),
(536,2,o),
(536,15,cs),
(536,27,o),
(533,33,o),
(528,33,cs),
(489,33,o),
(470,45,o),
(470,71,cs),
(470,590,ls),
(470,614,o),
(489,626,o),
(528,626,cs),
(533,626,o),
(536,632,o),
(536,645,cs),
(536,657,o),
(533,663,o),
(528,663,c),
(494,661,o),
(461,660,o),
(427,660,cs),
(394,660,o),
(360,661,o),
(327,662,cs),
(293,663,o),
(260,663,o),
(226,663,cs),
(106,663,o),
(8,593,o),
(8,471,cs),
(8,355,o),
(96,283,o),
(226,283,cs),
(234,283,o),
(238,279,o),
(238,272,cs),
(238,70,ls),
(238,45,o),
(219,33,o),
(181,33,cs),
(176,33,o),
(173,27,o),
(173,15,cs),
(173,2,o),
(176,-4,o),
(181,-4,c)
);
},
{
closed = 1;
nodes = (
(330,33,o),
(319,45,o),
(319,71,cs),
(319,590,ls),
(319,614,o),
(332,626,o),
(357,626,cs),
(378,626,o),
(389,614,o),
(389,590,cs),
(389,70,ls),
(389,45,o),
(377,33,o),
(353,33,cs)
);
}
);
width = 545;
},
{
layerId = "6ABD9449-5E80-4451-809E-12ADEB9E9AB4";
shapes = (
{
closed = 1;
nodes = (
(211,-1,o),
(236,0,o),
(258,0,cs),
(375,0,ls),
(394,0,o),
(418,-1,o),
(445,-4,cs),
(449,-4,o),
(452,0,o),
(452,9,cs),
(452,17,o),
(449,21,o),
(445,21,cs),
(407,21,o),
(388,34,o),
(388,59,cs),
(388,602,ls),
(388,627,o),
(407,640,o),
(445,640,cs),
(449,640,o),
(452,644,o),
(452,652,cs),
(452,661,o),
(449,665,o),
(445,665,c),
(420,662,o),
(395,661,o),
(370,661,cs),
(345,661,o),
(320,661,o),
(295,662,cs),
(270,663,o),
(245,663,o),
(220,663,cs),
(107,663,o),
(8,604,o),
(8,493,cs),
(8,375,o),
(75,305,o),
(208,294,cs),
(228,293,o),
(238,284,o),
(238,266,cs),
(238,58,ls),
(238,33,o),
(219,21,o),
(181,21,cs),
(177,21,o),
(175,17,o),
(175,9,cs),
(175,0,o),
(177,-4,o),
(181,-4,cs)
);
},
{
closed = 1;
nodes = (
(285,21,o),
(271,34,o),
(271,59,cs),
(271,602,ls),
(271,625,o),
(285,638,o),
(312,638,cs),
(340,638,o),
(354,625,o),
(354,602,cs),
(354,58,ls),
(354,33,o),
(340,21,o),
(313,21,cs)
);
}
);
width = 467;
},
{
layerId = "70B83247-6FA0-4662-9656-C86DD2A17D3B";
shapes = (
{
closed = 1;
nodes = (
(167,-1,o),
(191,0,o),
(217,0,cs),
(325,0,ls),
(348,0,o),
(370,-1,o),
(391,-4,c),
(395,-4,o),
(397,2,o),
(397,12,cs),
(397,21,o),
(395,27,o),
(391,27,cs),
(360,27,o),
(345,40,o),
(345,64,cs),
(345,596,ls),
(345,621,o),
(361,633,o),
(391,633,cs),
(395,633,o),
(397,639,o),
(397,648,cs),
(397,658,o),
(395,664,o),
(391,664,c),
(368,662,o),
(344,661,o),
(320,661,cs),
(296,661,o),
(273,661,o),
(249,662,cs),
(226,663,o),
(202,663,o),
(178,663,cs),
(85,663,o),
(6,599,o),
(6,482,cs),
(6,365,o),
(69,294,o),
(174,289,cs),
(185,289,o),
(190,282,o),
(190,269,cs),
(190,63,ls),
(190,39,o),
(175,27,o),
(145,27,cs),
(141,27,o),
(139,21,o),
(139,12,cs),
(139,2,o),
(141,-4,o),
(145,-4,c)
);
},
{
closed = 1;
nodes = (
(248,27,o),
(237,40,o),
(237,64,cs),
(237,596,ls),
(237,620,o),
(248,632,o),
(269,632,cs),
(289,632,o),
(298,620,o),
(298,596,cs),
(298,63,ls),
(298,39,o),
(288,27,o),
(268,27,cs)
);
}
);
width = 409;
},
{
layerId = "9E6FDE2E-55A6-44A9-9556-F1822294BF26";
shapes = (
{
closed = 1;
nodes = (
(253,-1,o),
(284,0,o),
(311,0,cs),
(454,0,ls),
(479,0,o),
(508,-1,o),
(541,-4,c),
(545,-4,o),
(548,0,o),
(548,9,cs),
(548,18,o),
(545,21,o),
(541,21,cs),
(494,21,o),
(471,34,o),
(471,60,cs),
(471,601,ls),
(471,626,o),
(494,639,o),
(541,639,cs),
(545,639,o),
(548,643,o),
(548,652,cs),
(548,661,o),
(545,665,o),
(541,665,c),
(510,662,o),
(479,662,o),
(448,662,cs),
(417,662,o),
(387,662,o),
(356,662,cs),
(326,663,o),
(295,663,o),
(264,663,cs),
(128,663,o),
(9,604,o),
(9,492,cs),
(9,374,o),
(92,304,o),
(251,294,cs),
(274,292,o),
(285,284,o),
(285,266,cs),
(285,59,ls),
(285,33,o),
(263,21,o),
(217,21,cs),
(212,21,o),
(209,18,o),
(209,9,cs),
(209,0,o),
(212,-4,o),
(217,-4,c)
);
},
{
closed = 1;
nodes = (
(345,21,o),
(329,34,o),
(329,60,cs),
(329,601,ls),
(329,625,o),
(345,637,o),
(377,637,cs),
(411,637,o),
(428,625,o),
(428,601,cs),
(428,59,ls),
(428,33,o),
(411,21,o),
(379,21,cs)
);
}
);
width = 565;
},
{
layerId = "00F4936D-6309-4DEC-83B3-42806ED1A477";
shapes = (
{
closed = 1;
nodes = (
(210,-1,o),
(237,0,o),
(264,0,cs),
(389,0,ls),
(413,0,o),
(439,-1,o),
(466,-4,c),
(470,-4,o),
(473,1,o),
(473,10,cs),
(473,20,o),
(470,24,o),
(466,24,cs),
(427,24,o),
(408,37,o),
(408,62,cs),
(408,599,ls),
(408,624,o),
(427,636,o),
(466,636,cs),
(470,636,o),
(473,641,o),
(473,650,cs),
(473,660,o),
(470,664,o),
(466,664,c),
(430,662,o),
(405,661,o),
(390,661,cs),
(374,661,o),
(349,661,o),
(314,662,cs),
(280,663,o),
(249,663,o),
(221,663,cs),
(107,663,o),
(8,601,o),
(8,487,cs),
(8,370,o),
(81,299,o),
(213,292,cs),
(229,291,o),
(238,283,o),
(238,267,cs),
(238,61,ls),
(238,36,o),
(219,24,o),
(181,24,cs),
(177,24,o),
(174,20,o),
(174,10,cs),
(174,1,o),
(177,-4,o),
(181,-4,c)
);
},
{
closed = 1;
nodes = (
(296,24,o),
(283,37,o),
(283,62,cs),
(283,599,ls),
(283,623,o),
(296,635,o),
(323,635,cs),
(350,635,o),
(363,623,o),
(363,599,cs),
(363,61,ls),
(363,36,o),
(350,24,o),
(323,24,cs)
);
}
);
width = 487;
}
);
unicode = 182;
}
{
glyphname = periodcentered;
layers = (
{
layerId = master01;
shapes = (
{
closed = 1;
nodes = (
(167,245,o),
(192,269,o),
(192,303,cs),
(192,336,o),
(167,360,o),
(133,360,cs),
(98,360,o),
(74,336,o),
(74,303,cs),
(74,269,o),
(98,245,o),
(133,245,cs)
);
}
);
width = 265;
},
{
layerId = "75918100-ED89-42A8-B0FE-888EB9C86810";
shapes = (
{
closed = 1;
nodes = (
(168,228,o),
(200,258,o),
(200,302,cs),
(200,346,o),
(168,376,o),
(124,376,cs),
(79,376,o),
(47,346,o),
(47,302,cs),
(47,258,o),
(79,228,o),
(124,228,cs)
);
}
);
width = 246;
},
{
layerId = "6ABD9449-5E80-4451-809E-12ADEB9E9AB4";
shapes = (
{
closed = 1;
nodes = (
(158,251,o),
(180,273,o),
(180,303,cs),
(180,333,o),
(158,355,o),
(127,355,cs),
(96,355,o),
(74,333,o),
(74,303,cs),
(74,273,o),
(96,251,o),
(127,251,cs)
);
}
);
width = 252;
},
{
layerId = "70B83247-6FA0-4662-9656-C86DD2A17D3B";
shapes = (
{
closed = 1;
nodes = (
(168,245,o),
(192,269,o),
(192,302,cs),
(192,336,o),
(168,360,o),
(133,360,cs),
(99,360,o),
(74,336,o),
(74,302,cs),
(74,269,o),
(99,245,o),
(133,245,cs)
);
}
);
width = 264;
},
{
layerId = "9E6FDE2E-55A6-44A9-9556-F1822294BF26";
shapes = (
{
closed = 1;
nodes = (
(167,245,o),
(192,269,o),
(192,302,cs),
(192,336,o),
(167,360,o),
(133,360,cs),
(98,360,o),
(74,336,o),
(74,302,cs),
(74,269,o),
(98,245,o),
(133,245,cs)
);
}
);
width = 265;
},
{
layerId = "00F4936D-6309-4DEC-83B3-42806ED1A477";
shapes = (
{
closed = 1;
nodes = (
(167,245,o),
(192,269,o),
(192,303,cs),
(192,336,o),
(167,360,o),
(133,360,cs),
(98,360,o),
(74,336,o),
(74,303,cs),
(74,269,o),
(98,245,o),
(133,245,cs)
);
}
);
width = 265;
}
);
unicode = 183;
}
{
glyphname = cedilla;
layers = (
{
layerId = master01;
shapes = (
{
closed = 1;
nodes = (
(208,-221,o),
(261,-188,o),
(261,-131,cs),
(261,-103,o),
(244,-78,o),
(208,-54,cs),
(205,-51,o),
(203,-49,o),
(203,-46,cs),
(203,-44,o),
(204,-42,o),
(206,-39,cs),
(237,5,l),
(202,5,l),
(146,-78,ls),
(144,-80,o),
(143,-83,o),
(143,-86,cs),
(143,-89,o),
(146,-92,o),
(152,-96,cs),
(187,-114,o),
(204,-134,o),
(204,-156,cs),
(204,-178,o),
(195,-189,o),
(177,-189,cs),
(172,-189,o),
(164,-184,o),
(153,-175,cs),
(141,-165,o),
(131,-160,o),
(124,-160,cs),
(107,-160,o),
(99,-169,o),
(99,-186,cs),
(99,-209,o),
(119,-221,o),
(157,-221,cs)
);
}
);
width = 360;
},
{
layerId = "75918100-ED89-42A8-B0FE-888EB9C86810";
shapes = (
{
closed = 1;
nodes = (
(237,-251,o),
(302,-216,o),
(302,-158,cs),
(302,-123,o),
(282,-94,o),
(241,-73,cs),
(232,-69,o),
(228,-64,o),
(228,-61,cs),
(228,-59,o),
(229,-56,o),
(232,-52,cs),
(273,5,l),
(220,5,l),
(148,-102,ls),
(146,-105,o),
(145,-106,o),
(145,-108,cs),
(145,-111,o),
(148,-114,o),
(155,-117,cs),
(201,-138,o),
(224,-161,o),
(224,-186,cs),
(224,-203,o),
(215,-211,o),
(198,-211,cs),
(191,-211,o),
(181,-205,o),
(167,-193,cs),
(152,-180,o),
(140,-174,o),
(130,-174,cs),
(114,-174,o),
(98,-186,o),
(98,-207,cs),
(98,-233,o),
(122,-251,o),
(175,-251,cs)
);
}
);
width = 379;
},
{
layerId = "6ABD9449-5E80-4451-809E-12ADEB9E9AB4";
shapes = (
{
closed = 1;
nodes = (
(199,-211,o),
(248,-178,o),
(248,-122,cs),
(248,-97,o),
(231,-72,o),
(198,-47,cs),
(196,-45,o),
(195,-43,o),
(195,-42,cs),
(195,-39,o),
(196,-37,o),
(197,-35,cs),
(225,5,l),
(195,5,l),
(145,-69,ls),
(144,-72,o),
(143,-75,o),
(143,-79,cs),
(143,-82,o),
(145,-85,o),
(151,-88,cs),
(182,-106,o),
(197,-125,o),
(197,-146,cs),
(197,-170,o),
(188,-182,o),
(169,-182,cs),
(166,-182,o),
(158,-177,o),
(148,-169,cs),
(137,-160,o),
(128,-156,o),
(122,-156,cs),
(105,-156,o),
(100,-164,o),
(100,-179,cs),
(100,-202,o),
(118,-211,o),
(151,-211,cs)
);
}
);
width = 354;
},
{
layerId = "70B83247-6FA0-4662-9656-C86DD2A17D3B";
shapes = (
{
closed = 1;
nodes = (
(176,-230,o),
(222,-196,o),
(222,-139,cs),
(222,-108,o),
(207,-83,o),
(177,-60,cs),
(173,-57,o),
(170,-53,o),
(170,-51,cs),
(170,-48,o),
(171,-45,o),
(173,-43,cs),
(201,5,l),
(167,5,l),
(117,-85,ls),
(116,-87,o),
(115,-90,o),
(115,-93,cs),
(115,-96,o),
(118,-99,o),
(123,-102,cs),
(154,-121,o),
(169,-143,o),
(169,-165,cs),
(169,-186,o),
(162,-196,o),
(148,-196,cs),
(144,-196,o),
(137,-190,o),
(126,-180,cs),
(115,-168,o),
(107,-164,o),
(101,-164,cs),
(88,-164,o),
(79,-174,o),
(79,-192,cs),
(79,-216,o),
(96,-230,o),
(131,-230,cs)
);
}
);
width = 301;
},
{
layerId = "9E6FDE2E-55A6-44A9-9556-F1822294BF26";
shapes = (
{
closed = 1;
nodes = (
(241,-212,o),
(301,-179,o),
(301,-123,cs),
(301,-98,o),
(281,-73,o),
(240,-47,cs),
(237,-46,o),
(236,-44,o),
(236,-42,cs),
(236,-40,o),
(237,-38,o),
(238,-35,cs),
(273,5,l),
(236,5,l),
(174,-70,ls),
(172,-73,o),
(171,-76,o),
(171,-80,cs),
(171,-83,o),
(174,-85,o),
(182,-89,cs),
(220,-106,o),
(239,-126,o),
(239,-147,cs),
(239,-171,o),
(228,-182,o),
(205,-182,cs),
(201,-182,o),
(191,-178,o),
(179,-169,cs),
(167,-162,o),
(155,-156,o),
(147,-156,cs),
(126,-156,o),
(119,-164,o),
(119,-180,cs),
(119,-203,o),
(141,-212,o),
(183,-212,cs)
);
}
);
width = 419;
},
{
layerId = "00F4936D-6309-4DEC-83B3-42806ED1A477";
shapes = (
{
closed = 1;
nodes = (
(208,-221,o),
(261,-188,o),
(261,-131,cs),
(261,-103,o),
(244,-78,o),
(208,-54,cs),
(205,-51,o),
(203,-49,o),
(203,-46,cs),
(203,-44,o),
(204,-42,o),
(206,-39,cs),
(237,5,l),
(202,5,l),
(146,-78,ls),
(144,-80,o),
(143,-83,o),
(143,-86,cs),
(143,-89,o),
(146,-92,o),
(152,-96,cs),
(187,-114,o),
(204,-134,o),
(204,-156,cs),
(204,-178,o),
(195,-189,o),
(177,-189,cs),
(172,-189,o),
(164,-184,o),
(153,-175,cs),
(141,-165,o),
(131,-160,o),
(124,-160,cs),
(107,-160,o),
(99,-169,o),
(99,-186,cs),
(99,-209,o),
(119,-221,o),
(157,-221,cs)
);
}
);
width = 360;
}
);
unicode = 184;
}
{
glyphname = ordmasculine;
layers = (
{
layerId = master01;
shapes = (
{
closed = 1;
nodes = (
(275,246,o),
(333,313,o),
(333,403,cs),
(333,486,o),
(270,560,o),
(181,560,cs),
(93,560,o),
(27,487,o),
(27,404,cs),
(27,318,o),
(95,246,o),
(183,246,cs)
);
},
{
closed = 1;
nodes = (
(130,273,o),
(100,334,o),
(100,402,cs),
(100,466,o),
(130,537,o),
(181,537,cs),
(229,537,o),
(260,469,o),
(260,402,cs),
(260,339,o),
(232,273,o),
(180,273,cs)
);
}
);
width = 360;
},
{
layerId = "75918100-ED89-42A8-B0FE-888EB9C86810";
shapes = (
{
closed = 1;
nodes = (
(287,246,o),
(348,304,o),
(348,405,cs),
(348,488,o),
(283,560,o),
(184,560,cs),
(87,560,o),
(22,489,o),
(22,403,cs),
(22,312,o),
(94,246,o),
(184,246,cs)
);
},
{
closed = 1;
nodes = (
(141,278,o),
(123,338,o),
(123,401,cs),
(123,456,o),
(142,531,o),
(185,531,cs),
(226,531,o),
(246,463,o),
(246,401,cs),
(246,349,o),
(231,278,o),
(184,278,cs)
);
}
);
width = 370;
},
{
layerId = "6ABD9449-5E80-4451-809E-12ADEB9E9AB4";
shapes = (
{
closed = 1;
nodes = (
(269,246,o),
(327,312,o),
(327,402,cs),
(327,490,o),
(266,560,o),
(180,560,cs),
(95,560,o),
(30,492,o),
(30,405,cs),
(30,316,o),
(95,246,o),
(181,246,cs)
);
},
{
closed = 1;
nodes = (
(125,271,o),
(90,330,o),
(90,403,cs),
(90,474,o),
(125,539,o),
(179,539,cs),
(232,539,o),
(267,476,o),
(267,403,cs),
(267,330,o),
(232,271,o),
(179,271,cs)
);
}
);
width = 357;
},
{
layerId = "70B83247-6FA0-4662-9656-C86DD2A17D3B";
shapes = (
{
closed = 1;
nodes = (
(227,246,o),
(274,311,o),
(274,404,cs),
(274,486,o),
(223,560,o),
(148,560,cs),
(76,560,o),
(23,487,o),
(23,404,cs),
(23,317,o),
(79,246,o),
(149,246,cs)
);
},
{
closed = 1;
nodes = (
(111,274,o),
(90,336,o),
(90,402,cs),
(90,463,o),
(111,535,o),
(149,535,cs),
(186,535,o),
(207,466,o),
(207,402,cs),
(207,343,o),
(188,274,o),
(148,274,cs)
);
}
);
width = 297;
},
{
layerId = "9E6FDE2E-55A6-44A9-9556-F1822294BF26";
shapes = (
{
closed = 1;
nodes = (
(325,246,o),
(395,314,o),
(395,403,cs),
(395,487,o),
(319,560,o),
(214,560,cs),
(112,560,o),
(32,487,o),
(32,405,cs),
(32,320,o),
(112,246,o),
(217,246,cs)
);
},
{
closed = 1;
nodes = (
(151,271,o),
(111,332,o),
(111,403,cs),
(111,470,o),
(150,539,o),
(214,539,cs),
(275,539,o),
(315,472,o),
(315,403,cs),
(315,335,o),
(277,271,o),
(213,271,cs)
);
}
);
width = 427;
},
{
layerId = "00F4936D-6309-4DEC-83B3-42806ED1A477";
shapes = (
{
closed = 1;
nodes = (
(275,246,o),
(333,313,o),
(333,403,cs),
(333,486,o),
(270,560,o),
(181,560,cs),
(93,560,o),
(27,487,o),
(27,404,cs),
(27,318,o),
(95,246,o),
(183,246,cs)
);
},
{
closed = 1;
nodes = (
(130,273,o),
(100,334,o),
(100,402,cs),
(100,466,o),
(130,537,o),
(181,537,cs),
(229,537,o),
(260,469,o),
(260,402,cs),
(260,339,o),
(232,273,o),
(180,273,cs)
);
}
);
width = 360;
}
);
metricLeft = "=o*0.72";
metricRight = "=o*0.72";
unicode = 186;
}
{
glyphname = Thorn;
kernLeft = B;
kernRight = P;
layers = (
{
anchors = (
{
name = bottom;
pos = (284,0);
},
{
name = center;
pos = (177,514);
},
{
name = top;
pos = (284,663);
},
{
name = zzcurly;
pos = (134,655);
}
);
layerId = master01;
shapes = (
{
closed = 1;
nodes = (
(87,-1,o),
(129,0,o),
(171,0,cs),
(213,0,o),
(256,-1,o),
(298,-3,c),
(307,-3,o),
(307,34,o),
(298,34,cs),
(239,34,o),
(210,43,o),
(210,91,cs),
(210,151,ls),
(210,164,o),
(218,168,o),
(226,167,cs),
(244,165,o),
(272,164,o),
(311,164,cs),
(441,164,o),
(544,226,o),
(544,354,cs),
(544,473,o),
(442,536,o),
(314,536,cs),
(223,536,ls),
(214,536,o),
(210,540,o),
(210,547,cs),
(210,572,ls),
(210,619,o),
(242,628,o),
(298,628,cs),
(307,628,o),
(307,666,o),
(298,666,c),
(255,664,o),
(212,663,o),
(169,663,cs),
(125,663,o),
(83,664,o),
(40,666,c),
(30,666,o),
(30,628,o),
(40,628,cs),
(101,628,o),
(132,619,o),
(132,572,cs),
(132,91,ls),
(132,43,o),
(103,34,o),
(45,34,cs),
(36,34,o),
(37,-3,o),
(45,-3,c)
);
},
{
closed = 1;
nodes = (
(231,194,o),
(210,201,o),
(210,218,cs),
(210,487,ls),
(210,502,o),
(219,506,o),
(249,506,cs),
(394,506,o),
(460,439,o),
(460,354,cs),
(460,248,o),
(400,194,o),
(281,194,cs)
);
}
);
width = 568;
},
{
anchors = (
{
name = bottom;
pos = (294,0);
},
{
name = center;
pos = (176,494);
},
{
name = top;
pos = (294,663);
},
{
name = zzcurly;
pos = (136,655);
}
);
layerId = "75918100-ED89-42A8-B0FE-888EB9C86810";
shapes = (
{
closed = 1;
nodes = (
(81,-1,o),
(127,0,o),
(173,0,cs),
(218,0,o),
(264,-1,o),
(310,-3,c),
(319,-3,o),
(320,42,o),
(310,42,cs),
(258,42,o),
(233,51,o),
(233,99,cs),
(233,135,ls),
(233,146,o),
(239,151,o),
(250,151,cs),
(272,149,o),
(295,149,o),
(317,149,cs),
(450,149,o),
(574,203,o),
(574,331,cs),
(574,457,o),
(456,520,o),
(320,520,cs),
(247,520,ls),
(237,520,o),
(233,524,o),
(233,532,cs),
(233,563,ls),
(233,611,o),
(259,620,o),
(312,620,cs),
(321,620,o),
(321,667,o),
(312,666,c),
(266,664,o),
(220,663,o),
(174,663,cs),
(127,663,o),
(82,664,o),
(35,666,c),
(25,666,o),
(26,620,o),
(35,620,cs),
(88,620,o),
(114,611,o),
(114,563,cs),
(114,99,ls),
(114,51,o),
(88,42,o),
(35,42,cs),
(24,42,o),
(26,-3,o),
(35,-3,c)
);
},
{
closed = 1;
nodes = (
(249,188,o),
(233,195,o),
(233,211,cs),
(233,463,ls),
(233,479,o),
(243,482,o),
(273,482,cs),
(378,482,o),
(449,422,o),
(449,331,cs),
(449,251,o),
(403,188,o),
(287,188,cs)
);
}
);
width = 593;
},
{
anchors = (
{
name = bottom;
pos = (282,0);
},
{
name = center;
pos = (179,514);
},
{
name = top;
pos = (282,663);
},
{
name = zzcurly;
pos = (139,655);
}
);
layerId = "6ABD9449-5E80-4451-809E-12ADEB9E9AB4";
shapes = (
{
closed = 1;
nodes = (
(91,-1,o),
(132,0,o),
(173,0,cs),
(214,0,o),
(255,-1,o),
(296,-3,c),
(304,-3,o),
(304,31,o),
(296,31,cs),
(235,31,o),
(204,40,o),
(204,88,cs),
(204,157,ls),
(204,170,o),
(213,173,o),
(220,172,cs),
(236,169,o),
(266,169,o),
(311,169,cs),
(440,169,o),
(537,233,o),
(537,361,cs),
(537,478,o),
(439,542,o),
(314,542,cs),
(217,542,ls),
(209,542,o),
(204,545,o),
(204,552,cs),
(204,575,ls),
(204,622,o),
(238,631,o),
(295,631,cs),
(304,631,o),
(304,665,o),
(295,666,c),
(253,664,o),
(211,663,o),
(169,663,cs),
(127,663,o),
(85,664,o),
(43,666,c),
(34,666,o),
(34,631,o),
(43,631,cs),
(107,631,o),
(140,622,o),
(140,575,cs),
(140,88,ls),
(140,40,o),
(110,31,o),
(50,31,cs),
(41,31,o),
(42,-3,o),
(50,-3,c)
);
},
{
closed = 1;
nodes = (
(227,196,o),
(204,203,o),
(204,220,cs),
(204,495,ls),
(204,510,o),
(213,514,o),
(243,514,cs),
(401,514,o),
(466,445,o),
(466,361,cs),
(466,247,o),
(401,196,o),
(281,196,cs)
);
}
);
width = 563;
},
{
anchors = (
{
name = bottom;
pos = (234,0);
},
{
name = center;
pos = (143,514);
},
{
name = top;
pos = (234,663);
},
{
name = zzcurly;
pos = (119,655);
}
);
layerId = "70B83247-6FA0-4662-9656-C86DD2A17D3B";
shapes = (
{
closed = 1;
nodes = (
(71,-1,o),
(106,0,o),
(141,0,cs),
(176,0,o),
(211,-1,o),
(246,-3,c),
(253,-3,o),
(253,34,o),
(246,34,cs),
(201,34,o),
(179,43,o),
(179,91,cs),
(179,151,ls),
(179,163,o),
(184,167,o),
(191,167,cs),
(207,165,o),
(227,164,o),
(254,164,cs),
(359,164,o),
(448,222,o),
(448,347,cs),
(448,471,o),
(361,536,o),
(256,536,cs),
(189,536,ls),
(181,536,o),
(179,541,o),
(179,547,cs),
(179,572,ls),
(179,619,o),
(197,628,o),
(246,628,cs),
(254,628,o),
(253,667,o),
(246,666,c),
(211,663,o),
(175,663,o),
(140,663,cs),
(105,663,o),
(69,664,o),
(34,666,c),
(26,666,o),
(26,628,o),
(34,628,cs),
(86,628,o),
(104,619,o),
(104,572,cs),
(104,91,ls),
(104,43,o),
(81,34,o),
(37,34,cs),
(29,34,o),
(30,-3,o),
(37,-3,c)
);
},
{
closed = 1;
nodes = (
(194,194,o),
(179,201,o),
(179,218,cs),
(179,487,ls),
(179,502,o),
(188,506,o),
(210,506,cs),
(314,506,o),
(369,438,o),
(369,347,cs),
(369,250,o),
(325,194,o),
(230,194,cs)
);
}
);
width = 468;
},
{
anchors = (
{
name = bottom;
pos = (334,0);
},
{
name = center;
pos = (212,514);
},
{
name = top;
pos = (334,663);
},
{
name = zzcurly;
pos = (149,655);
}
);
layerId = "9E6FDE2E-55A6-44A9-9556-F1822294BF26";
shapes = (
{
closed = 1;
nodes = (
(103,-1,o),
(153,0,o),
(203,0,cs),
(252,0,o),
(302,-1,o),
(351,-3,c),
(361,-3,o),
(361,34,o),
(351,34,cs),
(279,34,o),
(242,43,o),
(242,91,cs),
(242,152,ls),
(242,165,o),
(253,168,o),
(262,167,cs),
(282,165,o),
(318,164,o),
(369,164,cs),
(524,164,o),
(642,229,o),
(642,360,cs),
(642,475,o),
(523,536,o),
(373,536,cs),
(258,536,ls),
(249,536,o),
(242,538,o),
(242,546,cs),
(242,573,ls),
(242,619,o),
(288,628,o),
(351,628,cs),
(360,628,o),
(361,665,o),
(351,666,c),
(300,665,o),
(249,663,o),
(199,663,cs),
(147,663,o),
(97,665,o),
(46,666,c),
(36,666,o),
(36,628,o),
(46,628,cs),
(117,628,o),
(161,619,o),
(161,573,cs),
(161,91,ls),
(161,43,o),
(126,34,o),
(54,34,cs),
(43,34,o),
(44,-3,o),
(54,-3,c)
);
},
{
closed = 1;
nodes = (
(269,194,o),
(242,201,o),
(242,218,cs),
(242,488,ls),
(242,503,o),
(251,506,o),
(289,506,cs),
(474,506,o),
(553,441,o),
(553,360,cs),
(553,245,o),
(477,194,o),
(332,194,cs)
);
}
);
width = 670;
},
{
anchors = (
{
name = bottom;
pos = (284,0);
},
{
name = center;
pos = (177,514);
},
{
name = top;
pos = (284,663);
},
{
name = zzcurly;
pos = (134,655);
}
);
layerId = "00F4936D-6309-4DEC-83B3-42806ED1A477";
shapes = (
{
closed = 1;
nodes = (
(87,-1,o),
(129,0,o),
(171,0,cs),
(213,0,o),
(256,-1,o),
(298,-3,c),
(307,-3,o),
(307,34,o),
(298,34,cs),
(239,34,o),
(210,43,o),
(210,91,cs),
(210,151,ls),
(210,164,o),
(218,168,o),
(226,167,cs),
(244,165,o),
(272,164,o),
(311,164,cs),
(441,164,o),
(544,226,o),
(544,354,cs),
(544,473,o),
(442,536,o),
(314,536,cs),
(223,536,ls),
(214,536,o),
(210,540,o),
(210,547,cs),
(210,572,ls),
(210,619,o),
(242,628,o),
(298,628,cs),
(307,628,o),
(307,666,o),
(298,666,c),
(255,664,o),
(212,663,o),
(169,663,cs),
(125,663,o),
(83,664,o),
(40,666,c),
(30,666,o),
(30,628,o),
(40,628,cs),
(101,628,o),
(132,619,o),
(132,572,cs),
(132,91,ls),
(132,43,o),
(103,34,o),
(45,34,cs),
(36,34,o),
(37,-3,o),
(45,-3,c)
);
},
{
closed = 1;
nodes = (
(231,194,o),
(210,201,o),
(210,218,cs),
(210,487,ls),
(210,502,o),
(219,506,o),
(249,506,cs),
(394,506,o),
(460,439,o),
(460,354,cs),
(460,248,o),
(400,194,o),
(281,194,cs)
);
}
);
width = 568;
}
);
metricLeft = B;
unicode = 222;
}
{
glyphname = OE;
kernLeft = C;
kernRight = E;
layers = (
{
anchors = (
{
name = bottom;
pos = (520,0);
},
{
name = ogonek;
pos = (565,5);
},
{
name = top;
pos = (516,663);
}
);
layerId = master01;
shapes = (
{
closed = 1;
nodes = (
(412,-3,o),
(463,0,o),
(515,0,cs),
(634,0,o),
(753,-3,o),
(872,-3,cs),
(896,-3,o),
(908,-3,o),
(908,11,cs),
(908,166,ls),
(908,179,o),
(871,179,o),
(871,166,cs),
(871,78,o),
(831,37,o),
(744,34,cs),
(633,30,l),
(583,30,o),
(554,69,o),
(554,128,cs),
(554,293,l),
(667,293,ls),
(715,293,o),
(725,279,o),
(725,250,cs),
(725,210,ls),
(725,200,o),
(759,200,o),
(759,210,c),
(756,246,o),
(756,281,o),
(756,317,cs),
(756,352,o),
(756,388,o),
(759,423,c),
(759,433,o),
(725,433,o),
(725,423,cs),
(725,387,ls),
(725,351,o),
(715,333,o),
(667,333,cs),
(554,333,l),
(554,609,ls),
(554,625,o),
(561,633,o),
(574,632,cs),
(713,629,ls),
(799,627,o),
(838,585,o),
(838,496,cs),
(838,484,o),
(875,484,o),
(875,496,cs),
(875,657,ls),
(875,663,o),
(863,666,o),
(839,666,cs),
(731,666,o),
(623,663,o),
(515,663,cs),
(464,663,o),
(413,667,o),
(362,667,cs),
(185,667,o),
(44,514,o),
(44,326,cs),
(44,124,o),
(167,-3,o),
(360,-3,cs)
);
},
{
closed = 1;
nodes = (
(237,33,o),
(138,171,o),
(138,354,cs),
(138,516,o),
(230,632,o),
(362,632,cs),
(438,632,o),
(476,614,o),
(476,575,cs),
(476,86,ls),
(476,51,o),
(440,33,o),
(369,33,cs)
);
}
);
width = 947;
},
{
anchors = (
{
name = bottom;
pos = (554,0);
},
{
name = ogonek;
pos = (614,5);
},
{
name = top;
pos = (550,663);
}
);
layerId = "75918100-ED89-42A8-B0FE-888EB9C86810";
shapes = (
{
closed = 1;
nodes = (
(426,-5,o),
(491,0,o),
(556,0,cs),
(672,0,o),
(787,-3,o),
(903,-3,cs),
(946,-3,o),
(960,-1,o),
(960,28,cs),
(960,168,ls),
(960,180,o),
(910,180,o),
(910,168,cs),
(910,84,o),
(875,45,o),
(801,44,cs),
(695,42,l),
(656,42,o),
(616,64,o),
(616,108,cs),
(616,290,l),
(697,290,ls),
(746,290,o),
(756,276,o),
(756,247,cs),
(756,205,ls),
(756,194,o),
(807,195,o),
(807,205,c),
(804,242,o),
(804,279,o),
(804,317,cs),
(804,354,o),
(804,391,o),
(807,428,c),
(807,438,o),
(756,438,o),
(756,428,cs),
(756,380,ls),
(756,350,o),
(746,334,o),
(697,334,cs),
(616,334,l),
(616,601,ls),
(616,614,o),
(620,622,o),
(629,621,cs),
(774,616,ls),
(849,613,o),
(883,574,o),
(883,492,cs),
(883,480,o),
(932,481,o),
(932,492,cs),
(932,641,ls),
(932,664,o),
(921,666,o),
(881,666,cs),
(772,666,o),
(665,663,o),
(556,663,cs),
(492,663,o),
(427,666,o),
(363,666,cs),
(185,666,o),
(36,508,o),
(36,323,cs),
(36,136,o),
(175,-5,o),
(361,-5,cs)
);
},
{
closed = 1;
nodes = (
(262,39,o),
(169,186,o),
(169,351,cs),
(169,508,o),
(251,624,o),
(360,624,cs),
(456,624,o),
(497,607,o),
(497,567,cs),
(497,99,ls),
(497,57,o),
(458,39,o),
(367,39,cs)
);
}
);
width = 990;
},
{
anchors = (
{
name = bottom;
pos = (509,0);
},
{
name = ogonek;
pos = (549,5);
},
{
name = top;
pos = (505,663);
}
);
layerId = "6ABD9449-5E80-4451-809E-12ADEB9E9AB4";
shapes = (
{
closed = 1;
nodes = (
(408,-3,o),
(456,0,o),
(502,0,cs),
(597,0,o),
(692,-3,o),
(786,-3,cs),
(881,-3,o),
(892,-3,o),
(892,6,cs),
(892,166,ls),
(892,179,o),
(859,178,o),
(859,166,cs),
(859,76,o),
(818,33,o),
(727,30,cs),
(614,26,l),
(559,26,o),
(535,70,o),
(535,135,cs),
(535,295,l),
(659,295,ls),
(707,295,o),
(715,280,o),
(715,251,cs),
(715,211,ls),
(715,202,o),
(745,201,o),
(745,211,c),
(742,247,o),
(741,282,o),
(741,317,cs),
(741,352,o),
(742,387,o),
(745,422,c),
(745,432,o),
(715,431,o),
(715,422,cs),
(715,390,ls),
(715,351,o),
(707,332,o),
(659,332,cs),
(535,332,l),
(535,611,ls),
(535,628,o),
(542,637,o),
(557,636,cs),
(694,633,ls),
(784,631,o),
(825,589,o),
(825,498,cs),
(825,485,o),
(857,485,o),
(857,498,cs),
(857,662,ls),
(857,663,o),
(845,666,o),
(827,666,cs),
(719,666,o),
(610,663,o),
(502,663,cs),
(456,663,o),
(409,668,o),
(363,668,cs),
(184,668,o),
(49,520,o),
(49,327,cs),
(49,120,o),
(165,-3,o),
(361,-3,cs)
);
},
{
closed = 1;
nodes = (
(232,31,o),
(128,170,o),
(128,355,cs),
(128,518,o),
(226,635,o),
(364,635,cs),
(438,635,o),
(470,618,o),
(470,578,cs),
(470,82,ls),
(470,46,o),
(440,31,o),
(371,31,cs)
);
}
);
width = 934;
},
{
anchors = (
{
name = bottom;
pos = (430,0);
},
{
name = ogonek;
pos = (472,5);
},
{
name = top;
pos = (427,663);
}
);
layerId = "70B83247-6FA0-4662-9656-C86DD2A17D3B";
shapes = (
{
closed = 1;
nodes = (
(338,-4,o),
(383,0,o),
(429,0,cs),
(523,0,o),
(617,-3,o),
(711,-3,cs),
(736,-3,o),
(747,-4,o),
(747,16,cs),
(747,167,ls),
(747,180,o),
(713,179,o),
(713,167,cs),
(713,78,o),
(683,35,o),
(617,33,cs),
(530,30,l),
(493,30,o),
(466,64,o),
(466,119,cs),
(466,293,l),
(547,293,ls),
(583,293,o),
(594,279,o),
(594,249,cs),
(594,208,ls),
(594,198,o),
(626,199,o),
(626,208,c),
(624,245,o),
(624,281,o),
(624,317,cs),
(624,353,o),
(624,389,o),
(626,425,c),
(626,434,o),
(594,434,o),
(594,425,cs),
(594,385,ls),
(594,350,o),
(583,333,o),
(547,333,cs),
(466,333,l),
(466,610,ls),
(466,625,o),
(471,632,o),
(480,632,cs),
(593,628,ls),
(659,626,o),
(689,584,o),
(689,495,cs),
(689,483,o),
(722,483,o),
(722,495,cs),
(722,652,ls),
(722,662,o),
(715,666,o),
(688,666,cs),
(602,666,o),
(515,663,o),
(429,663,cs),
(384,663,o),
(339,667,o),
(294,667,cs),
(151,667,o),
(38,514,o),
(38,325,cs),
(38,127,o),
(140,-4,o),
(293,-4,cs)
);
},
{
closed = 1;
nodes = (
(205,33,o),
(125,180,o),
(125,354,cs),
(125,511,o),
(197,632,o),
(293,632,cs),
(362,632,o),
(391,615,o),
(391,575,cs),
(391,88,ls),
(391,50,o),
(364,33,o),
(299,33,cs)
);
}
);
width = 780;
},
{
anchors = (
{
name = bottom;
pos = (611,0);
},
{
name = ogonek;
pos = (661,5);
},
{
name = top;
pos = (606,663);
}
);
layerId = "9E6FDE2E-55A6-44A9-9556-F1822294BF26";
shapes = (
{
closed = 1;
nodes = (
(487,-3,o),
(545,0,o),
(603,0,cs),
(747,0,o),
(891,-3,o),
(1035,-3,cs),
(1058,-3,o),
(1071,-3,o),
(1071,6,cs),
(1071,166,ls),
(1071,179,o),
(1031,178,o),
(1031,166,cs),
(1031,79,o),
(981,37,o),
(874,34,cs),
(739,30,l),
(674,30,o),
(644,74,o),
(644,137,cs),
(644,293,l),
(790,293,ls),
(850,293,o),
(857,279,o),
(857,251,cs),
(857,211,ls),
(857,202,o),
(894,201,o),
(894,211,c),
(891,247,o),
(890,282,o),
(890,317,cs),
(890,352,o),
(891,387,o),
(894,422,c),
(894,431,o),
(857,431,o),
(857,422,cs),
(857,389,ls),
(857,351,o),
(850,333,o),
(790,333,cs),
(644,333,l),
(644,608,ls),
(644,625,o),
(652,633,o),
(669,632,cs),
(834,629,ls),
(941,628,o),
(990,586,o),
(990,498,cs),
(990,485,o),
(1030,484,o),
(1030,498,cs),
(1030,662,ls),
(1030,664,o),
(1014,666,o),
(992,666,cs),
(862,666,o),
(733,663,o),
(603,663,cs),
(546,663,o),
(488,668,o),
(431,668,cs),
(215,668,o),
(53,520,o),
(53,327,cs),
(53,120,o),
(193,-3,o),
(430,-3,cs)
);
},
{
closed = 1;
nodes = (
(276,33,o),
(153,171,o),
(153,355,cs),
(153,512,o),
(272,632,o),
(432,632,cs),
(523,632,o),
(562,615,o),
(562,575,cs),
(562,85,ls),
(562,49,o),
(526,33,o),
(441,33,cs)
);
}
);
width = 1117;
},
{
anchors = (
{
name = bottom;
pos = (520,0);
},
{
name = ogonek;
pos = (565,5);
},
{
name = top;
pos = (516,663);
}
);
layerId = "00F4936D-6309-4DEC-83B3-42806ED1A477";
shapes = (
{
closed = 1;
nodes = (
(412,-3,o),
(463,0,o),
(515,0,cs),
(634,0,o),
(753,-3,o),
(872,-3,cs),
(896,-3,o),
(908,-3,o),
(908,11,cs),
(908,166,ls),
(908,179,o),
(871,179,o),
(871,166,cs),
(871,78,o),
(831,37,o),
(744,34,cs),
(633,30,l),
(583,30,o),
(554,69,o),
(554,128,cs),
(554,293,l),
(667,293,ls),
(715,293,o),
(725,279,o),
(725,250,cs),
(725,210,ls),
(725,200,o),
(759,200,o),
(759,210,c),
(756,246,o),
(756,281,o),
(756,317,cs),
(756,352,o),
(756,388,o),
(759,423,c),
(759,433,o),
(725,433,o),
(725,423,cs),
(725,387,ls),
(725,351,o),
(715,333,o),
(667,333,cs),
(554,333,l),
(554,609,ls),
(554,625,o),
(561,633,o),
(574,632,cs),
(713,629,ls),
(799,627,o),
(838,585,o),
(838,496,cs),
(838,484,o),
(875,484,o),
(875,496,cs),
(875,657,ls),
(875,663,o),
(863,666,o),
(839,666,cs),
(731,666,o),
(623,663,o),
(515,663,cs),
(464,663,o),
(413,667,o),
(362,667,cs),
(185,667,o),
(44,514,o),
(44,326,cs),
(44,124,o),
(167,-3,o),
(360,-3,cs)
);
},
{
closed = 1;
nodes = (
(237,33,o),
(138,171,o),
(138,354,cs),
(138,516,o),
(230,632,o),
(362,632,cs),
(438,632,o),
(476,614,o),
(476,575,cs),
(476,86,ls),
(476,51,o),
(440,33,o),
(369,33,cs)
);
}
);
width = 947;
}
);
metricLeft = O;
metricRight = E;
unicode = 338;
}
{
color = 9;
glyphname = oe;
kernLeft = c;
kernRight = e;
layers = (
{
anchors = (
{
name = bottom;
pos = (402,0);
},
{
name = ogonek;
pos = (594,0);
},
{
name = top;
pos = (402,415);
},
{
name = us;
pos = (665,415);
}
);
layerId = master01;
shapes = (
{
closed = 1;
nodes = (
(326,-11,o),
(394,34,o),
(426,105,c),
(426,309,l),
(394,379,o),
(326,425,o),
(243,425,cs),
(124,425,o),
(38,333,o),
(38,207,cs),
(38,81,o),
(124,-11,o),
(243,-11,cs)
);
},
{
closed = 1;
nodes = (
(170,21,o),
(117,100,o),
(117,208,cs),
(117,317,o),
(170,396,o),
(243,396,cs),
(315,396,o),
(368,317,o),
(368,208,cs),
(368,100,o),
(315,21,o),
(243,21,cs)
);
},
{
closed = 1;
nodes = (
(602,-11,o),
(649,10,o),
(699,57,cs),
(706,64,o),
(691,81,o),
(682,75,cs),
(648,55,o),
(618,46,o),
(584,46,cs),
(500,46,o),
(443,120,o),
(443,230,cs),
(443,325,o),
(486,396,o),
(544,396,cs),
(586,396,o),
(630,351,o),
(630,309,cs),
(630,304,o),
(627,301,o),
(623,301,cs),
(415,301,l),
(415,268,l),
(677,268,ls),
(693,268,o),
(702,279,o),
(702,299,cs),
(702,319,o),
(688,346,o),
(664,372,cs),
(632,406,o),
(592,425,o),
(546,425,cs),
(471,425,o),
(412,379,o),
(384,305,c),
(384,113,l),
(412,37,o),
(473,-11,o),
(549,-11,cs)
);
}
);
width = 736;
},
{
anchors = (
{
name = bottom;
pos = (405,0);
},
{
name = ogonek;
pos = (596,0);
},
{
name = top;
pos = (400,415);
},
{
name = us;
pos = (681,415);
}
);
layerId = "75918100-ED89-42A8-B0FE-888EB9C86810";
shapes = (
{
closed = 1;
nodes = (
(336,-11,o),
(405,29,o),
(442,94,c),
(442,320,l),
(405,384,o),
(336,425,o),
(251,425,cs),
(123,425,o),
(30,333,o),
(30,207,cs),
(30,81,o),
(123,-11,o),
(251,-11,cs)
);
},
{
closed = 1;
nodes = (
(194,30,o),
(154,105,o),
(154,208,cs),
(154,312,o),
(194,387,o),
(250,387,cs),
(307,387,o),
(347,312,o),
(347,208,cs),
(347,105,o),
(307,30,o),
(250,30,cs)
);
},
{
closed = 1;
nodes = (
(607,-11,o),
(661,10,o),
(701,52,cs),
(708,60,o),
(681,94,o),
(669,87,cs),
(642,69,o),
(615,60,o),
(588,60,cs),
(505,60,o),
(459,126,o),
(459,244,cs),
(459,333,o),
(489,386,o),
(538,386,cs),
(575,386,o),
(601,358,o),
(601,318,cs),
(601,310,o),
(595,306,o),
(583,306,cs),
(425,306,l),
(425,262,l),
(666,262,ls),
(695,262,o),
(709,274,o),
(709,299,cs),
(709,319,o),
(699,343,o),
(677,367,cs),
(645,404,o),
(599,425,o),
(547,425,cs),
(469,425,o),
(406,384,o),
(373,317,c),
(373,90,l),
(405,27,o),
(467,-11,o),
(545,-11,cs)
);
}
);
width = 736;
},
{
anchors = (
{
name = bottom;
pos = (401,0);
},
{
name = ogonek;
pos = (594,0);
},
{
name = top;
pos = (403,415);
},
{
name = us;
pos = (661,415);
}
);
layerId = "6ABD9449-5E80-4451-809E-12ADEB9E9AB4";
shapes = (
{
closed = 1;
nodes = (
(323,-11,o),
(388,34,o),
(420,104,c),
(420,310,l),
(388,380,o),
(323,425,o),
(242,425,cs),
(126,425,o),
(42,333,o),
(42,207,cs),
(42,81,o),
(126,-11,o),
(242,-11,cs)
);
},
{
closed = 1;
nodes = (
(164,18,o),
(106,98,o),
(106,208,cs),
(106,319,o),
(164,399,o),
(242,399,cs),
(320,399,o),
(376,319,o),
(376,208,cs),
(376,98,o),
(320,18,o),
(242,18,cs)
);
},
{
closed = 1;
nodes = (
(601,-11,o),
(645,10,o),
(697,59,cs),
(703,64,o),
(694,77,o),
(688,73,cs),
(650,51,o),
(619,41,o),
(583,41,cs),
(499,41,o),
(438,118,o),
(438,226,cs),
(438,322,o),
(487,399,o),
(548,399,cs),
(591,399,o),
(641,349,o),
(641,306,cs),
(641,302,o),
(640,299,o),
(637,299,cs),
(413,299,l),
(413,270,l),
(682,270,ls),
(694,270,o),
(700,280,o),
(700,299,cs),
(700,319,o),
(685,348,o),
(661,373,cs),
(629,407,o),
(591,425,o),
(548,425,cs),
(476,425,o),
(418,379,o),
(392,307,c),
(392,115,l),
(419,38,o),
(478,-11,o),
(552,-11,cs)
);
}
);
width = 737;
},
{
anchors = (
{
name = bottom;
pos = (330,0);
},
{
name = ogonek;
pos = (474,0);
},
{
name = top;
pos = (329,415);
},
{
name = us;
pos = (543,415);
}
);
layerId = "70B83247-6FA0-4662-9656-C86DD2A17D3B";
shapes = (
{
closed = 1;
nodes = (
(267,-11,o),
(322,35,o),
(350,104,c),
(350,310,l),
(322,379,o),
(267,425,o),
(201,425,cs),
(105,425,o),
(32,330,o),
(32,207,cs),
(32,84,o),
(105,-11,o),
(201,-11,cs)
);
},
{
closed = 1;
nodes = (
(150,21,o),
(111,103,o),
(111,208,cs),
(111,314,o),
(150,396,o),
(201,396,cs),
(251,396,o),
(290,314,o),
(290,208,cs),
(290,103,o),
(251,21,o),
(201,21,cs)
);
},
{
closed = 1;
nodes = (
(494,-11,o),
(529,9,o),
(570,57,cs),
(575,63,o),
(559,81,o),
(551,75,cs),
(527,56,o),
(502,46,o),
(480,46,cs),
(411,46,o),
(369,116,o),
(369,230,cs),
(369,331,o),
(397,396,o),
(440,396,cs),
(472,396,o),
(502,354,o),
(502,311,cs),
(502,304,o),
(499,301,o),
(492,301,cs),
(339,301,l),
(339,268,l),
(547,268,ls),
(565,268,o),
(575,278,o),
(575,299,cs),
(575,318,o),
(563,345,o),
(545,370,cs),
(518,407,o),
(485,425,o),
(445,425,cs),
(382,425,o),
(332,379,o),
(309,308,c),
(309,108,l),
(332,35,o),
(383,-11,o),
(448,-11,cs)
);
}
);
width = 604;
},
{
anchors = (
{
name = bottom;
pos = (476,0);
},
{
name = ogonek;
pos = (715,0);
},
{
name = top;
pos = (478,415);
},
{
name = us;
pos = (788,415);
}
);
layerId = "9E6FDE2E-55A6-44A9-9556-F1822294BF26";
shapes = (
{
closed = 1;
nodes = (
(387,-11,o),
(466,34,o),
(504,106,c),
(504,308,l),
(466,380,o),
(387,425,o),
(286,425,cs),
(144,425,o),
(45,336,o),
(45,207,cs),
(45,77,o),
(144,-11,o),
(286,-11,cs)
);
},
{
closed = 1;
nodes = (
(191,21,o),
(125,98,o),
(125,208,cs),
(125,319,o),
(191,396,o),
(286,396,cs),
(381,396,o),
(448,319,o),
(448,208,cs),
(448,98,o),
(381,21,o),
(286,21,cs)
);
},
{
closed = 1;
nodes = (
(712,-11,o),
(770,12,o),
(829,57,cs),
(839,65,o),
(826,81,o),
(813,75,cs),
(771,54,o),
(735,46,o),
(689,46,cs),
(589,46,o),
(518,124,o),
(518,230,cs),
(518,319,o),
(577,396,o),
(650,396,cs),
(702,396,o),
(759,348,o),
(759,308,cs),
(759,303,o),
(758,301,o),
(755,301,cs),
(492,301,l),
(492,268,l),
(808,268,ls),
(823,268,o),
(830,279,o),
(830,299,cs),
(830,320,o),
(813,348,o),
(784,374,cs),
(748,406,o),
(701,425,o),
(649,425,cs),
(562,425,o),
(493,379,o),
(461,303,c),
(461,117,l),
(494,40,o),
(564,-11,o),
(652,-11,cs)
);
}
);
width = 874;
},
{
anchors = (
{
name = bottom;
pos = (600,0);
},
{
name = ogonek;
pos = (911,0);
},
{
name = top;
pos = (595,663);
},
{
name = us;
pos = (989,663);
}
);
layerId = "00F4936D-6309-4DEC-83B3-42806ED1A477";
shapes = (
{
closed = 1;
nodes = (
(475,-13,o),
(575,59,o),
(619,181,c),
(619,483,l),
(575,604,o),
(474,676,o),
(340,676,cs),
(157,676,o),
(38,541,o),
(38,332,cs),
(38,123,o),
(157,-13,o),
(340,-13,cs)
);
},
{
closed = 1;
nodes = (
(218,31,o),
(131,165,o),
(131,334,cs),
(131,498,o),
(217,637,o),
(340,637,cs),
(464,637,o),
(548,500,o),
(548,334,cs),
(548,159,o),
(463,31,o),
(340,31,cs)
);
},
{
closed = 1;
nodes = (
(911,-13,o),
(987,25,o),
(1061,103,cs),
(1069,111,o),
(1058,126,o),
(1048,121,cs),
(989,88,o),
(933,68,o),
(881,68,cs),
(745,68,o),
(647,196,o),
(647,377,cs),
(647,514,o),
(732,637,o),
(826,637,cs),
(894,637,o),
(973,557,o),
(973,487,cs),
(973,480,o),
(969,477,o),
(962,477,cs),
(615,477,l),
(615,433,l),
(1035,433,ls),
(1050,433,o),
(1061,449,o),
(1061,477,cs),
(1061,509,o),
(1044,548,o),
(1011,587,cs),
(963,644,o),
(901,676,o),
(825,676,cs),
(711,676,o),
(619,600,o),
(578,482,c),
(578,191,l),
(619,64,o),
(712,-13,o),
(831,-13,cs)
);
}
);
width = 1098;
}
);
metricLeft = o;
metricRight = e;
unicode = 339;
}
{
glyphname = Bhook;
kernRight = B;
layers = (
{
layerId = master01;
shapes = (
{
closed = 1;
nodes = (
(205,-1,o),
(247,0,o),
(289,0,cs),
(333,0,o),
(391,-3,o),
(425,-3,cs),
(577,-3,o),
(669,49,o),
(669,171,cs),
(669,268,o),
(602,335,o),
(516,356,c),
(516,359,l),
(587,392,o),
(624,439,o),
(624,508,cs),
(624,617,o),
(534,666,o),
(425,666,cs),
(379,666,o),
(334,663,o),
(289,663,cs),
(251,663,o),
(214,666,o),
(176,666,cs),
(146,666,o),
(115,659,o),
(88,641,cs),
(60,621,o),
(33,583,o),
(33,544,cs),
(33,508,o),
(46,479,o),
(73,479,cs),
(95,479,o),
(108,492,o),
(108,513,cs),
(108,529,o),
(103,542,o),
(90,554,cs),
(79,566,o),
(73,573,o),
(73,587,cs),
(73,612,o),
(117,628,o),
(157,628,cs),
(201,628,o),
(250,612,o),
(250,575,cs),
(250,91,ls),
(250,53,o),
(221,34,o),
(162,34,cs),
(153,34,o),
(153,-3,o),
(162,-3,c)
);
},
{
closed = 1;
nodes = (
(358,28,o),
(328,64,o),
(328,137,cs),
(328,339,l),
(345,339,ls),
(462,339,o),
(581,313,o),
(581,183,cs),
(581,80,o),
(526,28,o),
(418,28,cs)
);
},
{
closed = 1;
nodes = (
(328,604,ls),
(328,625,o),
(336,636,o),
(354,636,cs),
(478,636,o),
(540,593,o),
(540,507,cs),
(540,415,o),
(482,369,o),
(367,369,cs),
(328,369,l)
);
}
);
width = 728;
},
{
layerId = "75918100-ED89-42A8-B0FE-888EB9C86810";
shapes = (
{
closed = 1;
nodes = (
(212,-1,o),
(258,0,o),
(304,0,cs),
(348,0,o),
(408,-3,o),
(442,-3,cs),
(606,-3,o),
(705,54,o),
(705,183,cs),
(705,270,o),
(630,341,o),
(549,358,c),
(549,361,l),
(610,379,o),
(657,435,o),
(657,500,cs),
(657,613,o),
(567,666,o),
(440,666,cs),
(395,666,o),
(350,663,o),
(304,663,cs),
(260,663,o),
(215,665,o),
(171,665,cs),
(145,665,o),
(109,657,o),
(83,638,cs),
(55,619,o),
(27,583,o),
(27,539,cs),
(27,498,o),
(50,471,o),
(78,471,cs),
(99,471,o),
(124,480,o),
(124,502,cs),
(124,521,o),
(118,534,o),
(105,547,cs),
(94,559,o),
(87,570,o),
(87,584,cs),
(87,610,o),
(105,621,o),
(147,621,cs),
(206,621,o),
(245,604,o),
(245,567,cs),
(245,99,ls),
(245,65,o),
(212,42,o),
(166,42,cs),
(156,42,o),
(156,-3,o),
(166,-3,c)
);
},
{
closed = 1;
nodes = (
(388,37,o),
(363,65,o),
(363,122,cs),
(363,331,l),
(376,331,ls),
(497,331,o),
(572,288,o),
(572,183,cs),
(572,89,o),
(527,37,o),
(437,37,cs)
);
},
{
closed = 1;
nodes = (
(363,595,ls),
(363,617,o),
(372,628,o),
(389,628,cs),
(474,628,o),
(539,588,o),
(539,498,cs),
(539,418,o),
(486,376,o),
(398,376,cs),
(363,376,l)
);
}
);
width = 752;
},
{
layerId = "6ABD9449-5E80-4451-809E-12ADEB9E9AB4";
shapes = (
{
closed = 1;
nodes = (
(204,-1,o),
(245,0,o),
(286,0,cs),
(330,0,o),
(386,-3,o),
(420,-3,cs),
(569,-3,o),
(659,48,o),
(659,167,cs),
(659,267,o),
(592,326,o),
(508,356,c),
(508,360,l),
(579,397,o),
(614,440,o),
(614,511,cs),
(614,618,o),
(524,666,o),
(421,666,cs),
(376,666,o),
(331,663,o),
(286,663,cs),
(250,663,o),
(215,666,o),
(180,666,cs),
(149,666,o),
(119,660,o),
(91,641,cs),
(63,622,o),
(36,583,o),
(36,545,cs),
(36,511,o),
(46,481,o),
(74,481,cs),
(95,481,o),
(105,496,o),
(105,516,cs),
(105,532,o),
(98,548,o),
(87,557,cs),
(76,565,o),
(70,571,o),
(70,586,cs),
(70,612,o),
(120,631,o),
(162,631,cs),
(201,631,o),
(253,614,o),
(253,577,cs),
(253,88,ls),
(253,49,o),
(225,31,o),
(163,31,cs),
(153,31,o),
(154,-3,o),
(163,-3,c)
);
},
{
closed = 1;
nodes = (
(350,25,o),
(318,63,o),
(318,140,cs),
(318,342,l),
(337,342,ls),
(453,342,o),
(585,321,o),
(585,183,cs),
(585,77,o),
(528,25,o),
(414,25,cs)
);
},
{
closed = 1;
nodes = (
(318,606,ls),
(318,628,o),
(326,639,o),
(343,639,cs),
(480,639,o),
(542,595,o),
(542,510,cs),
(542,414,o),
(482,367,o),
(358,367,cs),
(318,367,l)
);
}
);
width = 724;
},
{
layerId = "70B83247-6FA0-4662-9656-C86DD2A17D3B";
shapes = (
{
closed = 1;
nodes = (
(165,-1,o),
(201,0,o),
(236,0,cs),
(271,0,o),
(323,-3,o),
(357,-3,cs),
(490,-3,o),
(570,51,o),
(570,174,cs),
(570,268,o),
(512,334,o),
(440,357,c),
(440,360,l),
(497,387,o),
(531,438,o),
(531,506,cs),
(531,616,o),
(454,666,o),
(357,666,cs),
(317,666,o),
(276,663,o),
(236,663,cs),
(205,663,o),
(174,666,o),
(143,666,cs),
(120,666,o),
(94,659,o),
(72,640,cs),
(50,621,o),
(28,583,o),
(28,542,cs),
(28,505,o),
(42,477,o),
(63,477,cs),
(81,477,o),
(95,489,o),
(95,510,cs),
(95,527,o),
(91,538,o),
(81,552,cs),
(70,565,o),
(66,575,o),
(66,588,cs),
(66,612,o),
(95,628,o),
(125,628,cs),
(165,628,o),
(202,611,o),
(202,573,cs),
(202,91,ls),
(202,54,o),
(175,34,o),
(129,34,cs),
(122,34,o),
(122,-3,o),
(129,-3,c)
);
},
{
closed = 1;
nodes = (
(304,28,o),
(280,62,o),
(280,130,cs),
(280,339,l),
(293,339,ls),
(394,339,o),
(482,307,o),
(482,183,cs),
(482,80,o),
(438,28,o),
(352,28,cs)
);
},
{
closed = 1;
nodes = (
(280,603,ls),
(280,625,o),
(288,636,o),
(302,636,cs),
(395,636,o),
(449,594,o),
(449,505,cs),
(449,415,o),
(401,369,o),
(312,369,cs),
(280,369,l)
);
}
);
width = 620;
},
{
layerId = "9E6FDE2E-55A6-44A9-9556-F1822294BF26";
shapes = (
{
closed = 1;
nodes = (
(246,-1,o),
(294,0,o),
(343,0,cs),
(397,0,o),
(459,-3,o),
(494,-3,cs),
(666,-3,o),
(769,48,o),
(769,167,cs),
(769,268,o),
(692,336,o),
(594,355,c),
(594,358,l),
(678,396,o),
(718,440,o),
(718,511,cs),
(718,618,o),
(615,666,o),
(494,666,cs),
(443,666,o),
(394,663,o),
(343,663,cs),
(299,663,o),
(255,666,o),
(211,666,cs),
(174,666,o),
(137,660,o),
(105,641,cs),
(71,622,o),
(39,583,o),
(39,545,cs),
(39,511,o),
(52,480,o),
(84,480,cs),
(110,480,o),
(124,496,o),
(124,515,cs),
(124,531,o),
(113,547,o),
(101,556,cs),
(88,565,o),
(81,571,o),
(81,586,cs),
(81,611,o),
(140,628,o),
(189,628,cs),
(238,628,o),
(300,612,o),
(300,577,cs),
(300,91,ls),
(300,52,o),
(268,34,o),
(196,34,cs),
(186,34,o),
(186,-3,o),
(196,-3,c)
);
},
{
closed = 1;
nodes = (
(414,28,o),
(378,66,o),
(378,143,cs),
(378,339,l),
(399,339,ls),
(533,339,o),
(681,318,o),
(681,183,cs),
(681,79,o),
(616,28,o),
(486,28,cs)
);
},
{
closed = 1;
nodes = (
(378,604,ls),
(378,625,o),
(387,636,o),
(407,636,cs),
(562,636,o),
(631,593,o),
(631,509,cs),
(631,415,o),
(564,369,o),
(423,369,cs),
(378,369,l)
);
}
);
width = 840;
},
{
layerId = "00F4936D-6309-4DEC-83B3-42806ED1A477";
shapes = (
{
closed = 1;
nodes = (
(205,-1,o),
(247,0,o),
(289,0,cs),
(333,0,o),
(391,-3,o),
(425,-3,cs),
(577,-3,o),
(669,49,o),
(669,171,cs),
(669,268,o),
(602,335,o),
(516,356,c),
(516,359,l),
(587,392,o),
(624,439,o),
(624,508,cs),
(624,617,o),
(534,666,o),
(425,666,cs),
(379,666,o),
(334,663,o),
(289,663,cs),
(251,663,o),
(214,666,o),
(176,666,cs),
(146,666,o),
(115,659,o),
(88,641,cs),
(60,621,o),
(33,583,o),
(33,544,cs),
(33,508,o),
(46,479,o),
(73,479,cs),
(95,479,o),
(108,492,o),
(108,513,cs),
(108,529,o),
(103,542,o),
(90,554,cs),
(79,566,o),
(73,573,o),
(73,587,cs),
(73,612,o),
(117,628,o),
(157,628,cs),
(201,628,o),
(250,612,o),
(250,575,cs),
(250,91,ls),
(250,53,o),
(221,34,o),
(162,34,cs),
(153,34,o),
(153,-3,o),
(162,-3,c)
);
},
{
closed = 1;
nodes = (
(358,28,o),
(328,64,o),
(328,137,cs),
(328,339,l),
(345,339,ls),
(462,339,o),
(581,313,o),
(581,183,cs),
(581,80,o),
(526,28,o),
(418,28,cs)
);
},
{
closed = 1;
nodes = (
(328,604,ls),
(328,625,o),
(336,636,o),
(354,636,cs),
(478,636,o),
(540,593,o),
(540,507,cs),
(540,415,o),
(482,369,o),
(367,369,cs),
(328,369,l)
);
}
);
width = 728;
}
);
metricLeft = B;
metricRight = B;
unicode = 385;
}
{
glyphname = dtopbar;
layers = (
{
guides = (
{
angle = 90;
pos = (974,1232);
}
);
layerId = master01;
shapes = (
{
closed = 1;
nodes = (
(109,529,o),
(143,529,o),
(143,538,cs),
(143,563,o),
(151,583,o),
(167,599,cs),
(184,614,o),
(201,619,o),
(218,621,cs),
(235,623,o),
(311,626,o),
(327,626,cs),
(333,626,o),
(336,622,o),
(336,613,c),
(411,590,l),
(411,614,o),
(430,626,o),
(467,626,cs),
(476,626,o),
(476,658,o),
(467,658,c),
(436,656,o),
(405,656,o),
(374,656,cs),
(297,656,o),
(221,658,o),
(144,658,cs),
(116,658,o),
(109,654,o),
(109,641,cs),
(109,538,ls)
);
},
{
closed = 1;
nodes = (
(387,0,o),
(429,9,o),
(479,15,cs),
(487,16,o),
(480,44,o),
(475,43,cs),
(469,41,o),
(460,40,o),
(451,40,cs),
(424,40,o),
(411,64,o),
(411,113,cs),
(411,641,l),
(336,641,l),
(336,428,ls),
(336,416,o),
(331,415,o),
(320,418,cs),
(306,422,o),
(287,425,o),
(264,425,cs),
(129,425,o),
(32,333,o),
(32,191,cs),
(32,81,o),
(89,-11,o),
(204,-11,cs),
(250,-11,o),
(286,3,o),
(317,32,cs),
(322,37,o),
(327,39,o),
(331,39,cs),
(334,39,o),
(336,35,o),
(336,28,cs),
(336,8,ls),
(336,-8,o),
(339,-16,o),
(344,-16,c)
);
},
{
closed = 1;
nodes = (
(166,36,o),
(112,117,o),
(112,220,cs),
(112,317,o),
(162,396,o),
(253,396,cs),
(282,396,o),
(307,387,o),
(325,372,cs),
(333,366,o),
(336,352,o),
(336,326,cs),
(336,97,ls),
(336,82,o),
(327,68,o),
(311,56,cs),
(292,43,o),
(269,36,o),
(246,36,cs)
);
}
);
width = 494;
},
{
layerId = "75918100-ED89-42A8-B0FE-888EB9C86810";
shapes = (
{
closed = 1;
nodes = (
(110,529,o),
(160,529,o),
(160,538,cs),
(160,552,o),
(163,566,o),
(170,579,cs),
(178,592,o),
(200,602,o),
(236,607,cs),
(253,610,o),
(305,612,o),
(321,612,cs),
(327,612,o),
(329,607,o),
(329,599,c),
(441,585,l),
(441,610,o),
(457,622,o),
(488,622,cs),
(497,622,o),
(497,658,o),
(488,658,c),
(454,656,o),
(419,656,o),
(385,656,cs),
(305,656,o),
(226,658,o),
(146,658,cs),
(117,658,o),
(110,654,o),
(110,641,cs),
(110,538,ls)
);
},
{
closed = 1;
nodes = (
(375,-6,o),
(449,7,o),
(499,15,cs),
(508,17,o),
(500,55,o),
(488,51,cs),
(481,49,o),
(476,48,o),
(469,48,cs),
(450,48,o),
(441,68,o),
(441,113,cs),
(441,628,l),
(329,628,l),
(329,434,ls),
(329,420,o),
(325,420,o),
(308,423,cs),
(300,425,o),
(288,425,o),
(277,425,cs),
(131,425,o),
(26,334,o),
(26,195,cs),
(26,85,o),
(88,-11,o),
(218,-11,cs),
(254,-11,o),
(279,0,o),
(310,23,cs),
(315,27,o),
(320,30,o),
(324,30,cs),
(327,30,o),
(329,26,o),
(329,19,cs),
(329,5,ls),
(329,-15,o),
(330,-17,o),
(340,-17,c)
);
},
{
closed = 1;
nodes = (
(186,30,o),
(150,118,o),
(150,209,cs),
(150,297,o),
(182,387,o),
(267,387,cs),
(288,387,o),
(308,383,o),
(321,372,cs),
(326,368,o),
(329,360,o),
(329,339,cs),
(329,74,ls),
(329,64,o),
(323,54,o),
(310,44,cs),
(297,35,o),
(280,30,o),
(262,30,cs)
);
}
);
width = 512;
},
{
layerId = "6ABD9449-5E80-4451-809E-12ADEB9E9AB4";
shapes = (
{
closed = 1;
nodes = (
(110,529,o),
(139,529,o),
(139,538,cs),
(139,566,o),
(149,589,o),
(168,605,cs),
(188,621,o),
(203,624,o),
(214,625,cs),
(223,626,o),
(323,631,o),
(331,631,cs),
(337,631,o),
(340,627,o),
(340,618,c),
(402,591,l),
(402,616,o),
(421,628,o),
(458,628,cs),
(467,628,o),
(467,658,o),
(458,658,c),
(429,656,o),
(400,656,o),
(371,656,cs),
(296,656,o),
(221,658,o),
(146,658,cs),
(117,658,o),
(110,654,o),
(110,641,cs),
(110,538,ls)
);
},
{
closed = 1;
nodes = (
(393,2,o),
(424,10,o),
(475,15,cs),
(481,16,o),
(476,41,o),
(472,41,cs),
(466,39,o),
(457,38,o),
(446,38,cs),
(417,38,o),
(402,63,o),
(402,113,cs),
(402,645,l),
(340,645,l),
(340,426,ls),
(340,413,o),
(334,412,o),
(325,416,cs),
(310,423,o),
(289,425,o),
(261,425,cs),
(130,425,o),
(36,332,o),
(36,190,cs),
(36,80,o),
(91,-11,o),
(201,-11,cs),
(250,-11,o),
(290,4,o),
(321,35,cs),
(326,40,o),
(331,42,o),
(334,42,cs),
(338,42,o),
(340,38,o),
(340,31,cs),
(340,9,ls),
(340,-6,o),
(343,-16,o),
(347,-16,c)
);
},
{
closed = 1;
nodes = (
(161,38,o),
(101,117,o),
(101,223,cs),
(101,324,o),
(156,399,o),
(250,399,cs),
(282,399,o),
(307,388,o),
(328,372,cs),
(336,366,o),
(340,349,o),
(340,322,cs),
(340,105,ls),
(340,88,o),
(330,72,o),
(312,60,cs),
(292,46,o),
(267,38,o),
(242,38,cs)
);
}
);
width = 490;
},
{
layerId = "70B83247-6FA0-4662-9656-C86DD2A17D3B";
shapes = (
{
closed = 1;
nodes = (
(103,529,o),
(136,529,o),
(136,538,cs),
(136,559,o),
(142,577,o),
(150,590,cs),
(160,605,o),
(175,611,o),
(196,615,cs),
(214,619,o),
(254,621,o),
(275,621,cs),
(280,621,o),
(282,616,o),
(282,607,c),
(356,588,l),
(356,612,o),
(371,625,o),
(398,625,cs),
(407,625,o),
(407,658,o),
(398,658,c),
(372,656,o),
(346,656,o),
(319,656,cs),
(257,656,o),
(194,658,o),
(131,658,cs),
(109,658,o),
(103,654,o),
(103,641,cs),
(103,538,ls)
);
},
{
closed = 1;
nodes = (
(322,-2,o),
(370,9,o),
(411,15,cs),
(417,16,o),
(411,47,o),
(405,45,cs),
(400,44,o),
(395,42,o),
(386,42,cs),
(365,42,o),
(356,71,o),
(356,114,cs),
(356,637,l),
(282,637,l),
(282,430,ls),
(282,418,o),
(280,416,o),
(266,420,cs),
(257,423,o),
(245,425,o),
(228,425,cs),
(111,425,o),
(27,333,o),
(27,193,cs),
(27,83,o),
(77,-11,o),
(178,-11,cs),
(214,-11,o),
(242,3,o),
(266,29,cs),
(271,35,o),
(274,36,o),
(277,36,cs),
(280,36,o),
(282,31,o),
(282,25,cs),
(282,7,ls),
(282,-5,o),
(282,-17,o),
(290,-17,c)
);
},
{
closed = 1;
nodes = (
(148,34,o),
(108,118,o),
(108,216,cs),
(108,311,o),
(145,394,o),
(219,394,cs),
(240,394,o),
(259,387,o),
(273,372,cs),
(280,366,o),
(282,354,o),
(282,330,cs),
(282,89,ls),
(282,75,o),
(275,63,o),
(264,54,cs),
(250,41,o),
(232,34,o),
(214,34,cs)
);
}
);
width = 423;
},
{
layerId = "9E6FDE2E-55A6-44A9-9556-F1822294BF26";
shapes = (
{
closed = 1;
nodes = (
(115,530,o),
(150,530,o),
(150,538,cs),
(150,567,o),
(161,590,o),
(185,607,cs),
(207,622,o),
(226,626,o),
(240,626,cs),
(256,626,o),
(367,632,o),
(379,632,cs),
(386,632,o),
(390,628,o),
(390,619,c),
(465,592,l),
(465,616,o),
(489,628,o),
(537,628,cs),
(545,628,o),
(545,658,o),
(537,658,c),
(500,656,o),
(464,656,o),
(428,656,cs),
(337,656,o),
(248,658,o),
(157,658,cs),
(123,658,o),
(115,654,o),
(115,641,cs),
(115,538,ls)
);
},
{
closed = 1;
nodes = (
(453,2,o),
(489,9,o),
(548,15,cs),
(556,16,o),
(549,42,o),
(545,41,cs),
(537,38,o),
(526,38,o),
(516,38,cs),
(484,38,o),
(465,58,o),
(465,112,cs),
(465,645,l),
(390,645,l),
(390,426,ls),
(390,414,o),
(382,414,o),
(374,416,cs),
(354,422,o),
(329,425,o),
(300,425,cs),
(147,425,o),
(37,333,o),
(37,190,cs),
(37,79,o),
(102,-11,o),
(230,-11,cs),
(287,-11,o),
(331,4,o),
(368,35,cs),
(372,39,o),
(379,42,o),
(384,42,cs),
(388,42,o),
(390,39,o),
(390,31,cs),
(390,9,ls),
(390,-11,o),
(396,-16,o),
(399,-16,c)
);
},
{
closed = 1;
nodes = (
(184,38,o),
(115,117,o),
(115,223,cs),
(115,323,o),
(179,398,o),
(287,398,cs),
(325,398,o),
(354,388,o),
(377,372,cs),
(385,366,o),
(390,351,o),
(390,322,cs),
(390,105,ls),
(390,89,o),
(379,72,o),
(357,59,cs),
(334,45,o),
(306,38,o),
(278,38,cs)
);
}
);
width = 565;
},
{
guides = (
{
angle = 90;
pos = (974,1232);
}
);
layerId = "00F4936D-6309-4DEC-83B3-42806ED1A477";
shapes = (
{
closed = 1;
nodes = (
(109,529,o),
(143,529,o),
(143,538,cs),
(143,563,o),
(151,583,o),
(167,599,cs),
(184,614,o),
(201,619,o),
(218,621,cs),
(235,623,o),
(311,626,o),
(327,626,cs),
(333,626,o),
(336,622,o),
(336,613,c),
(411,590,l),
(411,614,o),
(430,626,o),
(467,626,cs),
(476,626,o),
(476,658,o),
(467,658,c),
(436,656,o),
(405,656,o),
(374,656,cs),
(297,656,o),
(221,658,o),
(144,658,cs),
(116,658,o),
(109,654,o),
(109,641,cs),
(109,538,ls)
);
},
{
closed = 1;
nodes = (
(387,0,o),
(429,9,o),
(479,15,cs),
(487,16,o),
(480,44,o),
(475,43,cs),
(469,41,o),
(460,40,o),
(451,40,cs),
(424,40,o),
(411,64,o),
(411,113,cs),
(411,641,l),
(336,641,l),
(336,428,ls),
(336,416,o),
(331,415,o),
(320,418,cs),
(306,422,o),
(287,425,o),
(264,425,cs),
(129,425,o),
(32,333,o),
(32,191,cs),
(32,81,o),
(89,-11,o),
(204,-11,cs),
(250,-11,o),
(286,3,o),
(317,32,cs),
(322,37,o),
(327,39,o),
(331,39,cs),
(334,39,o),
(336,35,o),
(336,28,cs),
(336,8,ls),
(336,-8,o),
(339,-16,o),
(344,-16,c)
);
},
{
closed = 1;
nodes = (
(166,36,o),
(112,117,o),
(112,220,cs),
(112,317,o),
(162,396,o),
(253,396,cs),
(282,396,o),
(307,387,o),
(325,372,cs),
(333,366,o),
(336,352,o),
(336,326,cs),
(336,97,ls),
(336,82,o),
(327,68,o),
(311,56,cs),
(292,43,o),
(269,36,o),
(246,36,cs)
);
}
);
width = 495;
}
);
metricLeft = d;
metricRight = d;
unicode = 396;
}
{
glyphname = Eopen;
layers = (
{
anchors = (
{
name = bottom;
pos = (241,0);
},
{
name = top;
pos = (236,663);
}
);
layerId = master01;
shapes = (
{
closed = 1;
nodes = (
(326,-11,o),
(378,11,o),
(411,51,cs),
(417,58,o),
(398,81,o),
(388,73,cs),
(357,50,o),
(320,37,o),
(283,37,cs),
(197,37,o),
(123,102,o),
(123,199,cs),
(123,286,o),
(186,350,o),
(276,350,cs),
(300,350,o),
(321,347,o),
(338,342,cs),
(348,339,o),
(349,382,o),
(338,382,cs),
(292,382,o),
(253,390,o),
(221,406,cs),
(173,431,o),
(149,476,o),
(149,527,cs),
(149,595,o),
(191,633,o),
(252,633,cs),
(335,633,o),
(378,562,o),
(378,468,cs),
(378,458,o),
(415,458,o),
(415,468,cs),
(415,659,ls),
(415,669,o),
(378,668,o),
(378,659,cs),
(378,630,o),
(375,622,o),
(371,622,cs),
(366,622,o),
(364,623,o),
(358,630,cs),
(334,656,o),
(290,676,o),
(235,676,cs),
(135,676,o),
(66,608,o),
(66,530,cs),
(66,464,o),
(100,403,o),
(166,387,cs),
(189,381,o),
(189,375,o),
(168,371,cs),
(76,353,o),
(30,287,o),
(30,198,cs),
(30,65,o),
(134,-11,o),
(264,-11,cs)
);
}
);
width = 449;
},
{
anchors = (
{
name = bottom;
pos = (235,0);
},
{
name = top;
pos = (230,663);
}
);
layerId = "75918100-ED89-42A8-B0FE-888EB9C86810";
shapes = (
{
closed = 1;
nodes = (
(314,-11,o),
(369,10,o),
(403,49,cs),
(413,59,o),
(384,88,o),
(376,81,cs),
(350,58,o),
(317,47,o),
(277,47,cs),
(196,47,o),
(143,97,o),
(143,195,cs),
(143,321,o),
(231,337,o),
(286,337,cs),
(299,337,o),
(310,336,o),
(330,327,cs),
(347,318,o),
(349,392,o),
(328,392,cs),
(265,392,o),
(229,397,o),
(210,409,cs),
(173,431,o),
(158,470,o),
(158,508,cs),
(158,568,o),
(199,623,o),
(256,623,cs),
(333,623,o),
(369,541,o),
(369,468,cs),
(369,460,o),
(409,460,o),
(409,467,cs),
(409,659,ls),
(409,667,o),
(372,668,o),
(372,659,cs),
(372,630,o),
(369,621,o),
(363,621,cs),
(356,621,o),
(354,623,o),
(347,629,cs),
(318,657,o),
(274,676,o),
(220,676,cs),
(123,676,o),
(60,608,o),
(60,522,cs),
(60,459,o),
(94,401,o),
(160,386,cs),
(187,380,o),
(187,370,o),
(162,366,cs),
(70,348,o),
(24,280,o),
(24,194,cs),
(24,62,o),
(127,-11,o),
(251,-11,cs)
);
}
);
width = 436;
},
{
anchors = (
{
name = bottom;
pos = (244,0);
},
{
name = top;
pos = (239,663);
}
);
layerId = "6ABD9449-5E80-4451-809E-12ADEB9E9AB4";
shapes = (
{
closed = 1;
nodes = (
(328,-11,o),
(383,13,o),
(414,51,cs),
(419,58,o),
(404,79,o),
(395,72,cs),
(361,47,o),
(322,33,o),
(286,33,cs),
(199,33,o),
(117,103,o),
(117,200,cs),
(117,274,o),
(172,354,o),
(274,354,cs),
(302,354,o),
(326,351,o),
(346,346,cs),
(354,343,o),
(353,378,o),
(346,378,cs),
(300,378,o),
(260,388,o),
(223,406,cs),
(171,431,o),
(145,479,o),
(145,535,cs),
(145,606,o),
(188,640,o),
(250,640,cs),
(337,640,o),
(383,571,o),
(383,468,cs),
(383,457,o),
(418,457,o),
(418,468,cs),
(418,659,ls),
(418,669,o),
(382,668,o),
(382,659,cs),
(382,625,o),
(377,617,o),
(375,617,cs),
(371,617,o),
(369,618,o),
(363,625,cs),
(339,653,o),
(295,676,o),
(237,676,cs),
(139,676,o),
(70,610,o),
(70,521,cs),
(70,457,o),
(104,403,o),
(169,387,cs),
(191,382,o),
(191,375,o),
(172,372,cs),
(80,354,o),
(33,290,o),
(33,200,cs),
(33,66,o),
(137,-11,o),
(270,-11,cs)
);
}
);
width = 455;
},
{
anchors = (
{
name = bottom;
pos = (205,1);
},
{
name = top;
pos = (201,664);
}
);
layerId = "70B83247-6FA0-4662-9656-C86DD2A17D3B";
shapes = (
{
closed = 1;
nodes = (
(266,-10,o),
(316,7,o),
(350,54,cs),
(354,60,o),
(333,80,o),
(328,74,cs),
(304,51,o),
(276,37,o),
(240,37,cs),
(170,37,o),
(118,97,o),
(118,198,cs),
(118,310,o),
(186,350,o),
(243,350,cs),
(257,350,o),
(270,348,o),
(288,340,cs),
(299,334,o),
(300,382,o),
(288,382,cs),
(240,382,o),
(209,390,o),
(189,403,cs),
(153,426,o),
(139,473,o),
(139,521,cs),
(139,585,o),
(173,633,o),
(222,633,cs),
(288,633,o),
(320,555,o),
(320,469,cs),
(320,460,o),
(353,460,o),
(353,469,cs),
(353,660,ls),
(353,669,o),
(321,669,o),
(321,660,cs),
(321,631,o),
(318,623,o),
(314,623,cs),
(309,623,o),
(307,624,o),
(301,631,cs),
(278,658,o),
(240,677,o),
(195,677,cs),
(112,677,o),
(56,609,o),
(56,527,cs),
(56,463,o),
(84,403,o),
(141,387,cs),
(160,382,o),
(160,373,o),
(143,369,cs),
(64,352,o),
(25,284,o),
(25,197,cs),
(25,64,o),
(113,-10,o),
(221,-10,cs)
);
}
);
width = 382;
},
{
anchors = (
{
name = bottom;
pos = (278,-1);
},
{
name = top;
pos = (272,662);
}
);
layerId = "9E6FDE2E-55A6-44A9-9556-F1822294BF26";
shapes = (
{
closed = 1;
nodes = (
(367,-12,o),
(435,11,o),
(474,51,cs),
(480,57,o),
(464,77,o),
(456,71,cs),
(414,45,o),
(370,37,o),
(327,37,cs),
(226,37,o),
(128,96,o),
(128,199,cs),
(128,273,o),
(188,350,o),
(312,350,cs),
(345,350,o),
(373,347,o),
(393,342,cs),
(399,341,o),
(399,382,o),
(394,382,cs),
(345,382,o),
(299,392,o),
(254,409,cs),
(192,434,o),
(160,480,o),
(160,536,cs),
(160,604,o),
(210,633,o),
(284,633,cs),
(385,633,o),
(438,576,o),
(438,466,cs),
(438,455,o),
(479,455,o),
(479,467,cs),
(479,658,ls),
(479,669,o),
(437,667,o),
(437,658,cs),
(437,628,o),
(432,621,o),
(429,621,cs),
(425,621,o),
(423,622,o),
(416,629,cs),
(391,655,o),
(341,675,o),
(277,675,cs),
(154,675,o),
(78,617,o),
(78,542,cs),
(78,475,o),
(117,413,o),
(192,386,cs),
(211,380,o),
(211,376,o),
(195,372,cs),
(89,346,o),
(36,290,o),
(36,190,cs),
(36,56,o),
(156,-12,o),
(292,-12,cs)
);
}
);
width = 519;
},
{
anchors = (
{
name = bottom;
pos = (241,0);
},
{
name = top;
pos = (236,663);
}
);
layerId = "00F4936D-6309-4DEC-83B3-42806ED1A477";
shapes = (
{
closed = 1;
nodes = (
(326,-11,o),
(378,11,o),
(411,51,cs),
(417,58,o),
(398,81,o),
(388,73,cs),
(357,50,o),
(320,37,o),
(283,37,cs),
(197,37,o),
(123,102,o),
(123,199,cs),
(123,286,o),
(186,350,o),
(276,350,cs),
(300,350,o),
(321,347,o),
(338,342,cs),
(348,339,o),
(349,382,o),
(338,382,cs),
(292,382,o),
(253,390,o),
(221,406,cs),
(173,431,o),
(149,476,o),
(149,527,cs),
(149,595,o),
(191,633,o),
(252,633,cs),
(335,633,o),
(378,562,o),
(378,468,cs),
(378,458,o),
(415,458,o),
(415,468,cs),
(415,659,ls),
(415,669,o),
(378,668,o),
(378,659,cs),
(378,630,o),
(375,622,o),
(371,622,cs),
(366,622,o),
(364,623,o),
(358,630,cs),
(334,656,o),
(290,676,o),
(235,676,cs),
(135,676,o),
(66,608,o),
(66,530,cs),
(66,464,o),
(100,403,o),
(166,387,cs),
(189,381,o),
(189,375,o),
(168,371,cs),
(76,353,o),
(30,287,o),
(30,198,cs),
(30,65,o),
(134,-11,o),
(264,-11,cs)
);
}
);
width = 449;
}
);
unicode = 400;
}
{
glyphname = Gammaafrican;
layers = (
{
anchors = (
{
name = bottom;
pos = (311,0);
},
{
name = top;
pos = (311,663);
}
);
guides = (
{
pos = (607,1287);
}
);
layerId = master01;
shapes = (
{
closed = 1;
nodes = (
(383,-13,o),
(429,35,o),
(429,103,cs),
(429,151,o),
(410,192,o),
(342,297,c),
(486,517,ls),
(544,606,o),
(572,628,o),
(626,628,cs),
(636,628,o),
(636,665,o),
(626,665,c),
(594,663,o),
(563,663,o),
(530,663,cs),
(498,663,o),
(466,663,o),
(434,665,c),
(424,665,o),
(424,628,o),
(434,628,cs),
(493,628,o),
(503,613,o),
(475,568,cs),
(322,330,l),
(178,572,ls),
(154,614,o),
(166,628,o),
(226,628,cs),
(236,628,o),
(236,666,o),
(226,666,c),
(188,664,o),
(149,663,o),
(110,663,cs),
(72,663,o),
(33,664,o),
(-5,666,c),
(-15,666,o),
(-15,628,o),
(-5,628,cs),
(38,628,o),
(61,614,o),
(86,572,cs),
(275,258,l),
(223,180,o),
(207,142,o),
(207,99,cs),
(207,32,o),
(251,-13,o),
(317,-13,cs)
);
},
{
closed = 1;
nodes = (
(272,28,o),
(250,61,o),
(250,109,cs),
(250,143,o),
(259,166,o),
(296,225,c),
(341,151,o),
(352,124,o),
(352,90,cs),
(352,52,o),
(334,28,o),
(307,28,cs)
);
}
);
width = 621;
},
{
anchors = (
{
name = bottom;
pos = (325,0);
},
{
name = top;
pos = (325,663);
}
);
layerId = "75918100-ED89-42A8-B0FE-888EB9C86810";
shapes = (
{
closed = 1;
nodes = (
(408,-13,o),
(464,40,o),
(464,116,cs),
(464,154,o),
(443,200,o),
(380,305,c),
(519,517,ls),
(576,606,o),
(604,628,o),
(659,628,cs),
(668,628,o),
(668,665,o),
(659,665,cs),
(622,663,o),
(585,663,o),
(549,663,cs),
(512,663,o),
(475,663,o),
(438,665,cs),
(428,665,o),
(429,628,o),
(438,628,cs),
(500,628,o),
(510,613,o),
(479,568,cs),
(347,360,l),
(220,572,ls),
(196,614,o),
(208,628,o),
(269,628,cs),
(279,628,o),
(279,665,o),
(269,665,cs),
(223,663,o),
(176,663,o),
(130,663,cs),
(84,663,o),
(38,663,o),
(-8,665,cs),
(-18,665,o),
(-17,628,o),
(-8,628,cs),
(35,628,o),
(58,614,o),
(83,572,cs),
(276,252,l),
(223,169,o),
(208,133,o),
(208,97,cs),
(208,28,o),
(252,-13,o),
(329,-13,cs)
);
},
{
closed = 1;
nodes = (
(288,36,o),
(269,61,o),
(269,97,cs),
(269,124,o),
(279,148,o),
(311,197,c),
(344,143,o),
(355,116,o),
(355,88,cs),
(355,55,o),
(342,36,o),
(316,36,cs)
);
}
);
width = 651;
},
{
anchors = (
{
name = bottom;
pos = (305,0);
},
{
name = top;
pos = (305,663);
}
);
layerId = "6ABD9449-5E80-4451-809E-12ADEB9E9AB4";
shapes = (
{
closed = 1;
nodes = (
(370,-13,o),
(418,28,o),
(418,96,cs),
(418,150,o),
(397,190,o),
(329,294,c),
(475,517,ls),
(532,606,o),
(560,628,o),
(615,628,cs),
(624,628,o),
(624,665,o),
(615,665,cs),
(584,663,o),
(554,663,o),
(523,663,cs),
(493,663,o),
(462,663,o),
(432,665,cs),
(421,665,o),
(422,628,o),
(432,628,cs),
(491,628,o),
(501,613,o),
(473,568,cs),
(314,319,l),
(163,572,ls),
(139,614,o),
(151,628,o),
(211,628,cs),
(221,628,o),
(221,666,o),
(211,666,cs),
(175,664,o),
(139,663,o),
(103,663,cs),
(67,663,o),
(31,664,o),
(-5,666,cs),
(-15,666,o),
(-15,628,o),
(-5,628,cs),
(38,628,o),
(61,614,o),
(86,572,cs),
(274,260,l),
(222,180,o),
(202,138,o),
(202,97,cs),
(202,32,o),
(247,-13,o),
(309,-13,cs)
);
},
{
closed = 1;
nodes = (
(266,28,o),
(241,63,o),
(241,113,cs),
(241,146,o),
(252,172,o),
(290,234,c),
(339,158,o),
(356,119,o),
(356,89,cs),
(356,47,o),
(326,28,o),
(301,28,cs)
);
}
);
width = 609;
},
{
anchors = (
{
name = bottom;
pos = (270,0);
},
{
name = top;
pos = (270,663);
}
);
layerId = "70B83247-6FA0-4662-9656-C86DD2A17D3B";
shapes = (
{
closed = 1;
nodes = (
(335,-13,o),
(378,35,o),
(378,99,cs),
(378,136,o),
(363,172,o),
(303,299,c),
(424,517,ls),
(464,590,o),
(486,628,o),
(543,628,cs),
(551,628,o),
(551,665,o),
(543,665,c),
(515,663,o),
(485,663,o),
(457,663,cs),
(428,663,o),
(399,663,o),
(371,665,c),
(362,665,o),
(362,628,o),
(371,628,cs),
(423,628,o),
(432,613,o),
(406,568,cs),
(282,339,l),
(165,572,ls),
(144,614,o),
(155,628,o),
(206,628,cs),
(215,628,o),
(214,666,o),
(206,666,c),
(173,664,o),
(140,663,o),
(101,663,cs),
(62,663,o),
(28,664,o),
(-5,666,c),
(-13,666,o),
(-13,628,o),
(-5,628,cs),
(32,628,o),
(52,614,o),
(73,572,cs),
(235,256,l),
(187,161,o),
(176,128,o),
(176,97,cs),
(176,31,o),
(217,-13,o),
(277,-13,cs)
);
},
{
closed = 1;
nodes = (
(237,28,o),
(220,59,o),
(220,104,cs),
(220,136,o),
(227,158,o),
(256,216,c),
(297,132,o),
(306,109,o),
(306,84,cs),
(306,51,o),
(289,28,o),
(265,28,cs)
);
}
);
width = 538;
},
{
anchors = (
{
name = bottom;
pos = (350,0);
},
{
name = top;
pos = (350,663);
}
);
layerId = "9E6FDE2E-55A6-44A9-9556-F1822294BF26";
shapes = (
{
closed = 1;
nodes = (
(409,-13,o),
(466,26,o),
(466,102,cs),
(466,152,o),
(440,205,o),
(379,294,c),
(547,517,ls),
(615,606,o),
(647,628,o),
(707,628,cs),
(718,628,o),
(719,665,o),
(707,665,c),
(672,663,o),
(638,663,o),
(602,663,cs),
(566,663,o),
(531,663,o),
(496,665,c),
(483,665,o),
(484,628,o),
(496,628,cs),
(565,628,o),
(577,613,o),
(542,568,cs),
(361,320,l),
(188,572,ls),
(164,614,o),
(178,628,o),
(244,628,cs),
(256,628,o),
(255,666,o),
(244,666,c),
(200,664,o),
(156,663,o),
(118,663,cs),
(80,663,o),
(36,664,o),
(-8,666,c),
(-19,666,o),
(-19,628,o),
(-8,628,cs),
(41,628,o),
(68,614,o),
(97,572,cs),
(315,258,l),
(257,179,o),
(240,131,o),
(240,91,cs),
(240,21,o),
(294,-13,o),
(350,-13,cs)
);
},
{
closed = 1;
nodes = (
(307,30,o),
(276,57,o),
(276,107,cs),
(276,139,o),
(288,173,o),
(333,233,c),
(384,160,o),
(402,122,o),
(402,90,cs),
(402,49,o),
(372,30,o),
(342,30,cs)
);
}
);
width = 701;
},
{
anchors = (
{
name = bottom;
pos = (311,0);
},
{
name = top;
pos = (311,663);
}
);
guides = (
{
pos = (607,1287);
}
);
layerId = "00F4936D-6309-4DEC-83B3-42806ED1A477";
shapes = (
{
closed = 1;
nodes = (
(383,-13,o),
(429,35,o),
(429,103,cs),
(429,151,o),
(410,192,o),
(342,297,c),
(486,517,ls),
(544,606,o),
(572,628,o),
(626,628,cs),
(636,628,o),
(636,665,o),
(626,665,c),
(594,663,o),
(563,663,o),
(530,663,cs),
(498,663,o),
(466,663,o),
(434,665,c),
(424,665,o),
(424,628,o),
(434,628,cs),
(497,628,o),
(505,616,o),
(475,568,cs),
(322,330,l),
(178,572,ls),
(152,617,o),
(161,628,o),
(226,628,cs),
(236,628,o),
(236,666,o),
(226,666,c),
(188,664,o),
(149,663,o),
(110,663,cs),
(72,663,o),
(33,664,o),
(-5,666,c),
(-15,666,o),
(-15,628,o),
(-5,628,cs),
(41,628,o),
(59,617,o),
(86,572,cs),
(275,258,l),
(223,180,o),
(207,142,o),
(207,99,cs),
(207,32,o),
(251,-13,o),
(317,-13,cs)
);
},
{
closed = 1;
nodes = (
(272,28,o),
(250,61,o),
(250,109,cs),
(250,143,o),
(259,166,o),
(296,225,c),
(341,151,o),
(352,124,o),
(352,90,cs),
(352,52,o),
(334,28,o),
(307,28,cs)
);
}
);
width = 621;
}
);
metricLeft = Y;
metricRight = Y;
unicode = 404;
}
{
glyphname = Khook;
kernLeft = B;
layers = (
{
anchors = (
{
name = bottom;
pos = (343,0);
},
{
name = top;
pos = (338,663);
}
);
guides = (
{
angle = 231.2446;
pos = (813,993);
}
);
layerId = master01;
shapes = (
{
closed = 1;
nodes = (
(87,-1,o),
(129,0,o),
(171,0,cs),
(214,0,o),
(256,-1,o),
(298,-3,c),
(308,-3,o),
(307,34,o),
(298,34,cs),
(240,34,o),
(210,53,o),
(210,91,cs),
(210,315,l),
(219,315,ls),
(240,315,o),
(270,295,o),
(294,263,cs),
(425,91,ls),
(434,80,o),
(438,70,o),
(438,63,cs),
(438,43,o),
(422,34,o),
(391,34,c),
(381,34,o),
(381,-3,o),
(391,-3,c),
(434,-1,o),
(478,0,o),
(521,0,cs),
(565,0,o),
(609,-1,o),
(652,-3,c),
(662,-3,o),
(662,34,o),
(652,34,cs),
(600,34,o),
(560,51,o),
(532,84,cs),
(309,360,ls),
(307,362,o),
(306,365,o),
(306,368,cs),
(306,371,o),
(307,373,o),
(308,375,cs),
(419,548,ls),
(462,615,o),
(488,630,o),
(515,630,cs),
(535,630,o),
(551,622,o),
(565,604,cs),
(580,585,o),
(597,577,o),
(615,577,cs),
(632,577,o),
(654,586,o),
(654,613,cs),
(654,654,o),
(603,676,o),
(545,676,cs),
(484,676,o),
(439,654,o),
(369,543,cs),
(275,396,ls),
(262,375,o),
(236,348,o),
(217,348,cs),
(210,348,l),
(210,572,ls),
(210,610,o),
(241,628,o),
(302,628,cs),
(312,628,o),
(311,666,o),
(302,666,c),
(259,664,o),
(215,663,o),
(171,663,cs),
(127,663,o),
(84,664,o),
(40,666,c),
(30,666,o),
(31,628,o),
(40,628,cs),
(102,628,o),
(132,610,o),
(132,572,cs),
(132,91,ls),
(132,53,o),
(103,34,o),
(44,34,c),
(36,34,o),
(36,-3,o),
(44,-3,c)
);
}
);
width = 652;
},
{
anchors = (
{
name = bottom;
pos = (346,0);
},
{
name = top;
pos = (351,663);
}
);
guides = (
{
angle = 233.1857;
pos = (838,990);
},
{
angle = 233.1857;
pos = (701,990);
}
);
layerId = "75918100-ED89-42A8-B0FE-888EB9C86810";
shapes = (
{
closed = 1;
nodes = (
(85,-1,o),
(131,0,o),
(177,0,cs),
(222,0,o),
(268,-1,o),
(314,-3,c),
(323,-3,o),
(322,42,o),
(314,42,cs),
(263,42,o),
(237,61,o),
(237,99,cs),
(237,292,l),
(249,292,ls),
(256,292,o),
(271,280,o),
(291,256,cs),
(417,99,ls),
(430,83,o),
(437,70,o),
(437,61,cs),
(437,48,o),
(423,42,o),
(396,42,cs),
(386,42,o),
(386,-3,o),
(396,-3,c),
(442,-1,o),
(489,0,o),
(537,0,cs),
(584,0,o),
(630,-1,o),
(677,-3,c),
(688,-3,o),
(687,42,o),
(677,42,cs),
(636,42,o),
(601,47,o),
(562,93,cs),
(337,354,ls),
(333,359,o),
(331,365,o),
(331,371,cs),
(331,376,o),
(333,381,o),
(337,387,cs),
(416,492,ls),
(493,594,o),
(522,631,o),
(544,631,cs),
(566,631,o),
(574,615,o),
(583,591,cs),
(595,561,o),
(611,547,o),
(638,547,cs),
(669,547,o),
(690,573,o),
(690,602,cs),
(690,646,o),
(645,676,o),
(586,676,cs),
(511,676,o),
(470,653,o),
(418,583,cs),
(282,403,ls),
(268,384,o),
(255,376,o),
(246,376,cs),
(237,376,l),
(237,563,ls),
(237,601,o),
(263,620,o),
(315,620,cs),
(325,620,o),
(325,666,o),
(315,666,c),
(269,664,o),
(222,663,o),
(175,663,cs),
(128,663,o),
(82,664,o),
(35,666,c),
(24,666,o),
(25,620,o),
(35,620,cs),
(91,620,o),
(119,601,o),
(119,563,cs),
(119,99,ls),
(119,61,o),
(92,42,o),
(40,42,cs),
(29,42,o),
(30,-3,o),
(40,-3,c)
);
}
);
width = 681;
},
{
anchors = (
{
name = bottom;
pos = (344,0);
},
{
name = top;
pos = (335,663);
}
);
layerId = "6ABD9449-5E80-4451-809E-12ADEB9E9AB4";
shapes = (
{
closed = 1;
nodes = (
(88,-1,o),
(130,0,o),
(171,0,cs),
(212,0,o),
(253,-1,o),
(294,-3,c),
(304,-3,o),
(303,31,o),
(294,31,cs),
(233,31,o),
(203,50,o),
(203,88,cs),
(203,318,l),
(210,318,ls),
(236,318,o),
(272,298,o),
(296,266,cs),
(430,88,ls),
(437,79,o),
(439,70,o),
(439,63,cs),
(439,42,o),
(423,31,o),
(390,31,cs),
(380,31,o),
(381,-3,o),
(390,-3,c),
(433,-1,o),
(475,0,o),
(518,0,cs),
(561,0,o),
(603,-1,o),
(646,-3,c),
(655,-3,o),
(654,31,o),
(646,31,cs),
(589,31,o),
(547,52,o),
(524,82,cs),
(303,359,ls),
(301,362,o),
(299,365,o),
(299,367,cs),
(299,369,o),
(300,372,o),
(302,375,cs),
(422,566,ls),
(456,621,o),
(479,629,o),
(507,629,cs),
(525,629,o),
(544,624,o),
(561,607,cs),
(576,593,o),
(593,586,o),
(608,586,cs),
(621,586,o),
(642,591,o),
(642,617,cs),
(642,657,o),
(590,676,o),
(533,676,cs),
(476,676,o),
(428,656,o),
(354,530,cs),
(274,393,ls),
(262,373,o),
(231,343,o),
(208,343,cs),
(203,343,l),
(203,575,ls),
(203,613,o),
(235,631,o),
(299,631,cs),
(308,631,o),
(308,666,o),
(299,666,c),
(257,664,o),
(214,663,o),
(171,663,cs),
(128,663,o),
(86,664,o),
(43,666,c),
(34,666,o),
(34,631,o),
(43,631,cs),
(106,631,o),
(138,613,o),
(138,575,cs),
(138,88,ls),
(138,50,o),
(108,31,o),
(47,31,cs),
(39,31,o),
(39,-3,o),
(47,-3,c)
);
}
);
width = 645;
},
{
anchors = (
{
name = bottom;
pos = (278,0);
},
{
name = top;
pos = (277,663);
}
);
layerId = "70B83247-6FA0-4662-9656-C86DD2A17D3B";
shapes = (
{
closed = 1;
nodes = (
(72,-1,o),
(107,0,o),
(142,0,cs),
(177,0,o),
(212,-1,o),
(247,-3,c),
(253,-3,o),
(253,36,o),
(247,36,cs),
(202,36,o),
(180,55,o),
(180,93,cs),
(180,315,l),
(187,315,ls),
(200,315,o),
(217,293,o),
(237,261,cs),
(341,93,ls),
(349,81,o),
(353,70,o),
(353,62,cs),
(353,45,o),
(340,36,o),
(317,36,c),
(309,36,o),
(310,-3,o),
(317,-3,c),
(353,-1,o),
(389,0,o),
(425,0,cs),
(461,0,o),
(497,-1,o),
(533,-3,c),
(541,-3,o),
(540,36,o),
(533,36,cs),
(493,36,o),
(463,50,o),
(438,87,cs),
(258,359,ls),
(256,362,o),
(255,365,o),
(255,369,cs),
(255,373,o),
(256,375,o),
(258,378,cs),
(339,530,ls),
(378,604,o),
(402,630,o),
(424,630,cs),
(440,630,o),
(450,620,o),
(460,600,cs),
(472,578,o),
(484,568,o),
(502,568,cs),
(520,568,o),
(538,583,o),
(538,610,cs),
(538,652,o),
(498,676,o),
(451,676,cs),
(398,676,o),
(365,653,o),
(312,556,cs),
(225,397,ls),
(213,375,o),
(197,348,o),
(185,348,cs),
(180,348,l),
(180,569,ls),
(180,607,o),
(203,626,o),
(249,626,cs),
(256,626,o),
(256,666,o),
(249,666,c),
(213,664,o),
(177,663,o),
(141,663,cs),
(105,663,o),
(69,664,o),
(34,666,c),
(26,666,o),
(26,626,o),
(34,626,cs),
(81,626,o),
(105,607,o),
(105,569,cs),
(105,93,ls),
(105,55,o),
(82,36,o),
(37,36,c),
(29,36,o),
(30,-3,o),
(37,-3,c)
);
}
);
width = 532;
},
{
anchors = (
{
name = bottom;
pos = (409,0);
},
{
name = top;
pos = (400,663);
}
);
layerId = "9E6FDE2E-55A6-44A9-9556-F1822294BF26";
shapes = (
{
closed = 1;
nodes = (
(103,-1,o),
(152,0,o),
(202,0,cs),
(252,0,o),
(301,-1,o),
(351,-3,c),
(363,-3,o),
(362,31,o),
(351,31,cs),
(278,31,o),
(242,50,o),
(242,88,cs),
(242,315,l),
(251,315,ls),
(282,315,o),
(323,297,o),
(352,265,cs),
(511,88,ls),
(520,79,o),
(523,70,o),
(523,63,cs),
(523,42,o),
(504,31,o),
(465,31,c),
(454,31,o),
(454,-3,o),
(465,-3,c),
(516,-1,o),
(568,0,o),
(619,0,cs),
(670,0,o),
(722,-1,o),
(773,-3,c),
(785,-3,o),
(785,31,o),
(773,31,cs),
(707,31,o),
(657,52,o),
(627,82,cs),
(360,362,ls),
(359,363,o),
(358,364,o),
(358,367,cs),
(358,369,o),
(359,371,o),
(359,372,cs),
(501,565,ls),
(547,625,o),
(575,629,o),
(607,629,cs),
(630,629,o),
(652,624,o),
(671,607,cs),
(689,593,o),
(710,585,o),
(729,585,cs),
(746,585,o),
(772,590,o),
(772,617,cs),
(772,657,o),
(709,676,o),
(640,676,cs),
(570,676,o),
(515,655,o),
(427,531,cs),
(326,394,ls),
(312,374,o),
(275,348,o),
(250,348,cs),
(242,348,l),
(242,575,ls),
(242,612,o),
(280,631,o),
(357,631,cs),
(368,631,o),
(367,666,o),
(357,666,c),
(306,664,o),
(254,663,o),
(203,663,cs),
(150,663,o),
(100,664,o),
(47,666,c),
(36,666,o),
(37,631,o),
(47,631,cs),
(123,631,o),
(161,613,o),
(161,575,cs),
(161,88,ls),
(161,50,o),
(125,31,o),
(53,31,c),
(43,31,o),
(42,-3,o),
(53,-3,c)
);
}
);
width = 773;
},
{
anchors = (
{
name = bottom;
pos = (343,0);
},
{
name = top;
pos = (338,663);
}
);
guides = (
{
angle = 231.2446;
pos = (813,993);
}
);
layerId = "00F4936D-6309-4DEC-83B3-42806ED1A477";
shapes = (
{
closed = 1;
nodes = (
(87,-1,o),
(129,0,o),
(171,0,cs),
(214,0,o),
(256,-1,o),
(298,-3,c),
(308,-3,o),
(307,34,o),
(298,34,cs),
(240,34,o),
(210,53,o),
(210,91,cs),
(210,315,l),
(219,315,ls),
(240,315,o),
(270,295,o),
(294,263,cs),
(425,91,ls),
(434,80,o),
(438,70,o),
(438,63,cs),
(438,43,o),
(422,34,o),
(391,34,c),
(381,34,o),
(381,-3,o),
(391,-3,c),
(434,-1,o),
(478,0,o),
(521,0,cs),
(565,0,o),
(609,-1,o),
(652,-3,c),
(662,-3,o),
(662,34,o),
(652,34,cs),
(600,34,o),
(560,51,o),
(532,84,cs),
(309,360,ls),
(307,362,o),
(306,365,o),
(306,368,cs),
(306,371,o),
(307,373,o),
(308,375,cs),
(419,548,ls),
(462,615,o),
(488,630,o),
(515,630,cs),
(535,630,o),
(551,622,o),
(565,604,cs),
(580,585,o),
(597,577,o),
(615,577,cs),
(632,577,o),
(654,586,o),
(654,613,cs),
(654,654,o),
(603,676,o),
(545,676,cs),
(484,676,o),
(439,654,o),
(369,543,cs),
(275,396,ls),
(262,375,o),
(236,348,o),
(217,348,cs),
(210,348,l),
(210,572,ls),
(210,610,o),
(241,628,o),
(302,628,cs),
(312,628,o),
(311,666,o),
(302,666,c),
(259,664,o),
(215,663,o),
(171,663,cs),
(127,663,o),
(84,664,o),
(40,666,c),
(30,666,o),
(31,628,o),
(40,628,cs),
(102,628,o),
(132,610,o),
(132,572,cs),
(132,91,ls),
(132,53,o),
(103,34,o),
(44,34,c),
(36,34,o),
(36,-3,o),
(44,-3,c)
);
}
);
width = 652;
}
);
metricLeft = B;
metricRight = K;
unicode = 408;
}
{
glyphname = Esh;
layers = (
{
layerId = master01;
shapes = (
{
closed = 1;
nodes = (
(151,-3,o),
(235,0,o),
(320,0,cs),
(401,0,o),
(481,-3,o),
(563,-3,cs),
(573,-3,o),
(579,3,o),
(579,11,cs),
(579,166,ls),
(579,178,o),
(542,177,o),
(542,166,cs),
(542,81,o),
(492,34,o),
(415,34,cs),
(120,34,l),
(355,305,ls),
(363,313,o),
(367,320,o),
(367,326,cs),
(367,331,o),
(363,338,o),
(355,348,cs),
(146,634,l),
(383,626,ls),
(459,624,o),
(509,576,o),
(509,493,cs),
(509,482,o),
(546,481,o),
(546,493,cs),
(546,654,ls),
(546,661,o),
(532,665,o),
(510,665,cs),
(443,665,o),
(376,663,o),
(309,663,cs),
(226,663,o),
(143,665,o),
(60,665,cs),
(47,665,o),
(41,656,o),
(41,642,cs),
(41,637,o),
(42,633,o),
(44,630,cs),
(292,294,l),
(57,26,ls),
(52,20,o),
(49,14,o),
(49,8,cs),
(49,0,o),
(55,-3,o),
(66,-3,cs)
);
}
);
width = 618;
},
{
layerId = "75918100-ED89-42A8-B0FE-888EB9C86810";
shapes = (
{
closed = 1;
nodes = (
(145,-3,o),
(236,0,o),
(327,0,cs),
(408,0,o),
(485,-3,o),
(566,-3,cs),
(577,-3,o),
(582,3,o),
(582,11,cs),
(582,168,ls),
(582,179,o),
(532,179,o),
(532,168,cs),
(532,82,o),
(492,43,o),
(404,43,cs),
(133,43,l),
(376,314,ls),
(383,322,o),
(388,329,o),
(388,334,cs),
(388,340,o),
(384,347,o),
(376,357,cs),
(180,622,l),
(379,614,ls),
(460,610,o),
(505,554,o),
(505,488,cs),
(505,477,o),
(554,477,o),
(554,488,cs),
(554,654,ls),
(554,661,o),
(539,665,o),
(517,665,cs),
(450,665,o),
(383,663,o),
(315,663,cs),
(232,663,o),
(135,665,o),
(52,665,cs),
(39,665,o),
(32,656,o),
(32,642,cs),
(32,637,o),
(33,633,o),
(36,630,cs),
(284,293,l),
(44,26,ls),
(39,20,o),
(36,14,o),
(36,8,cs),
(36,0,o),
(42,-3,o),
(54,-3,cs)
);
}
);
width = 612;
},
{
layerId = "6ABD9449-5E80-4451-809E-12ADEB9E9AB4";
shapes = (
{
closed = 1;
nodes = (
(154,-3,o),
(236,0,o),
(319,0,cs),
(400,0,o),
(481,-3,o),
(563,-3,cs),
(573,-3,o),
(579,3,o),
(579,11,cs),
(579,166,ls),
(579,177,o),
(547,177,o),
(547,166,cs),
(547,81,o),
(493,30,o),
(420,30,cs),
(116,30,l),
(350,302,ls),
(357,311,o),
(362,317,o),
(362,323,cs),
(362,328,o),
(357,335,o),
(350,345,cs),
(135,638,l),
(386,630,ls),
(460,628,o),
(512,583,o),
(512,495,cs),
(512,484,o),
(544,483,o),
(544,495,cs),
(544,654,ls),
(544,661,o),
(531,665,o),
(509,665,cs),
(442,665,o),
(375,663,o),
(308,663,cs),
(225,663,o),
(147,665,o),
(64,665,cs),
(51,665,o),
(44,656,o),
(44,642,cs),
(44,637,o),
(45,633,o),
(48,630,cs),
(296,294,l),
(63,26,ls),
(58,20,o),
(54,14,o),
(54,8,cs),
(54,0,o),
(60,-3,o),
(72,-3,cs)
);
}
);
width = 621;
},
{
layerId = "70B83247-6FA0-4662-9656-C86DD2A17D3B";
shapes = (
{
closed = 1;
nodes = (
(129,-3,o),
(204,0,o),
(279,0,cs),
(348,0,o),
(415,-3,o),
(483,-3,cs),
(492,-3,o),
(497,3,o),
(497,11,cs),
(497,167,ls),
(497,178,o),
(460,178,o),
(460,167,cs),
(460,78,o),
(421,34,o),
(352,34,cs),
(107,34,l),
(314,309,ls),
(321,318,o),
(324,324,o),
(324,330,cs),
(324,335,o),
(321,342,o),
(314,352,cs),
(139,633,l),
(328,626,ls),
(395,624,o),
(435,569,o),
(435,491,cs),
(435,480,o),
(471,479,o),
(471,491,cs),
(471,654,ls),
(471,661,o),
(459,665,o),
(440,665,cs),
(383,665,o),
(327,663,o),
(269,663,cs),
(199,663,o),
(122,665,o),
(51,665,cs),
(40,665,o),
(35,656,o),
(35,642,cs),
(35,637,o),
(36,634,o),
(38,630,cs),
(248,294,l),
(46,26,ls),
(42,20,o),
(40,13,o),
(40,8,cs),
(40,0,o),
(44,-3,o),
(55,-3,cs)
);
}
);
width = 530;
},
{
layerId = "9E6FDE2E-55A6-44A9-9556-F1822294BF26";
shapes = (
{
closed = 1;
nodes = (
(175,-3,o),
(269,0,o),
(363,0,cs),
(457,0,o),
(551,-3,o),
(644,-3,cs),
(657,-3,o),
(663,3,o),
(663,11,cs),
(663,165,ls),
(663,177,o),
(627,177,o),
(627,165,cs),
(627,84,o),
(564,34,o),
(480,34,cs),
(131,34,l),
(399,301,ls),
(407,309,o),
(413,315,o),
(413,322,cs),
(413,327,o),
(407,334,o),
(399,344,cs),
(152,636,l),
(441,627,ls),
(527,625,o),
(586,583,o),
(586,495,cs),
(586,484,o),
(623,483,o),
(623,495,cs),
(623,654,ls),
(623,661,o),
(608,665,o),
(583,665,cs),
(505,665,o),
(428,663,o),
(351,663,cs),
(255,663,o),
(167,665,o),
(71,665,cs),
(56,665,o),
(49,656,o),
(49,642,cs),
(49,638,o),
(50,633,o),
(53,630,cs),
(338,294,l),
(70,26,ls),
(64,20,o),
(61,14,o),
(61,8,cs),
(61,0,o),
(67,-3,o),
(81,-3,cs)
);
}
);
width = 709;
},
{
layerId = "00F4936D-6309-4DEC-83B3-42806ED1A477";
shapes = (
{
closed = 1;
nodes = (
(151,-3,o),
(235,0,o),
(320,0,cs),
(401,0,o),
(481,-3,o),
(563,-3,cs),
(573,-3,o),
(579,3,o),
(579,11,cs),
(579,166,ls),
(579,178,o),
(542,177,o),
(542,166,cs),
(542,81,o),
(492,34,o),
(415,34,cs),
(120,34,l),
(355,305,ls),
(363,313,o),
(367,320,o),
(367,326,cs),
(367,331,o),
(363,338,o),
(355,348,cs),
(146,634,l),
(383,626,ls),
(459,624,o),
(509,576,o),
(509,493,cs),
(509,482,o),
(546,481,o),
(546,493,cs),
(546,654,ls),
(546,661,o),
(532,665,o),
(510,665,cs),
(443,665,o),
(376,663,o),
(309,663,cs),
(226,663,o),
(143,665,o),
(60,665,cs),
(47,665,o),
(41,656,o),
(41,642,cs),
(41,637,o),
(42,633,o),
(44,630,cs),
(292,294,l),
(57,26,ls),
(52,20,o),
(49,14,o),
(49,8,cs),
(49,0,o),
(55,-3,o),
(66,-3,cs)
);
}
);
width = 618;
}
);
metricLeft = Z;
metricRight = E;
unicode = 425;
}
{
glyphname = Thook;
kernLeft = T;
kernRight = T;
layers = (
{
anchors = (
{
name = bottom;
pos = (325,0);
},
{
name = top;
pos = (325,663);
}
);
layerId = master01;
shapes = (
{
closed = 1;
nodes = (
(231,-1,o),
(275,0,o),
(320,0,cs),
(364,0,o),
(409,-1,o),
(453,-3,c),
(463,-3,o),
(462,34,o),
(453,34,cs),
(392,34,o),
(361,53,o),
(361,91,cs),
(361,628,l),
(465,628,ls),
(556,628,o),
(593,589,o),
(593,493,cs),
(593,483,o),
(630,484,o),
(630,493,cs),
(630,649,ls),
(630,660,o),
(617,665,o),
(592,665,cs),
(502,665,o),
(412,663,o),
(322,663,cs),
(268,663,o),
(234,665,o),
(194,665,cs),
(128,665,o),
(99,659,o),
(72,640,cs),
(36,615,o),
(17,580,o),
(17,539,cs),
(17,502,o),
(33,478,o),
(57,478,cs),
(79,478,o),
(92,492,o),
(92,514,cs),
(92,528,o),
(87,541,o),
(74,554,cs),
(63,565,o),
(57,577,o),
(57,586,cs),
(57,619,o),
(89,628,o),
(205,628,cs),
(283,628,l),
(283,91,ls),
(283,53,o),
(250,34,o),
(187,34,cs),
(177,34,o),
(177,-3,o),
(187,-3,c)
);
}
);
width = 647;
},
{
anchors = (
{
name = bottom;
pos = (320,0);
},
{
name = top;
pos = (335,663);
}
);
layerId = "75918100-ED89-42A8-B0FE-888EB9C86810";
shapes = (
{
closed = 1;
nodes = (
(228,-1,o),
(277,0,o),
(325,0,cs),
(374,0,o),
(423,-1,o),
(471,-3,c),
(479,-3,o),
(479,42,o),
(471,42,cs),
(415,42,o),
(388,61,o),
(387,99,cs),
(380,621,l),
(468,621,ls),
(542,621,o),
(572,585,o),
(572,495,cs),
(572,484,o),
(622,484,o),
(622,495,cs),
(622,641,ls),
(622,665,o),
(609,666,o),
(571,666,cs),
(487,664,o),
(404,663,o),
(320,663,cs),
(266,663,o),
(230,666,o),
(191,666,cs),
(126,666,o),
(83,651,o),
(55,630,cs),
(24,607,o),
(13,576,o),
(13,548,cs),
(13,507,o),
(38,472,o),
(65,472,cs),
(88,472,o),
(109,485,o),
(109,512,cs),
(109,525,o),
(104,537,o),
(94,545,cs),
(78,559,o),
(72,566,o),
(72,581,cs),
(72,611,o),
(98,621,o),
(196,621,cs),
(261,621,l),
(268,99,ls),
(269,61,o),
(238,42,o),
(180,42,cs),
(172,42,o),
(170,-3,o),
(180,-3,c)
);
}
);
width = 636;
},
{
anchors = (
{
name = bottom;
pos = (329,0);
},
{
name = top;
pos = (324,663);
}
);
layerId = "6ABD9449-5E80-4451-809E-12ADEB9E9AB4";
shapes = (
{
closed = 1;
nodes = (
(235,-1,o),
(278,0,o),
(321,0,cs),
(364,0,o),
(407,-1,o),
(450,-3,c),
(460,-3,o),
(459,31,o),
(450,31,cs),
(387,31,o),
(355,50,o),
(355,88,cs),
(355,631,l),
(465,631,ls),
(561,631,o),
(600,592,o),
(600,494,cs),
(600,484,o),
(633,485,o),
(633,494,cs),
(633,652,ls),
(633,658,o),
(620,665,o),
(599,665,cs),
(507,666,o),
(415,663,o),
(323,663,cs),
(270,663,o),
(236,665,o),
(196,665,cs),
(130,665,o),
(105,662,o),
(78,644,cs),
(41,619,o),
(18,582,o),
(18,535,cs),
(18,500,o),
(31,479,o),
(55,479,cs),
(76,479,o),
(87,494,o),
(87,514,cs),
(87,529,o),
(83,542,o),
(72,557,cs),
(64,568,o),
(59,581,o),
(59,589,cs),
(59,623,o),
(87,631,o),
(208,631,cs),
(291,631,l),
(291,88,ls),
(291,50,o),
(257,31,o),
(191,31,cs),
(181,31,o),
(183,-3,o),
(191,-3,c)
);
}
);
width = 652;
},
{
anchors = (
{
name = bottom;
pos = (262,0);
},
{
name = top;
pos = (266,663);
}
);
layerId = "70B83247-6FA0-4662-9656-C86DD2A17D3B";
shapes = (
{
closed = 1;
nodes = (
(187,-1,o),
(224,0,o),
(261,0,cs),
(297,0,o),
(334,-1,o),
(371,-3,c),
(378,-3,o),
(378,36,o),
(371,36,cs),
(324,36,o),
(299,55,o),
(299,93,cs),
(296,628,l),
(374,628,ls),
(443,628,o),
(470,590,o),
(470,494,cs),
(470,483,o),
(504,484,o),
(504,494,cs),
(504,647,ls),
(504,660,o),
(496,665,o),
(469,665,cs),
(399,665,o),
(329,663,o),
(259,663,cs),
(216,663,o),
(172,665,o),
(147,665,cs),
(106,665,o),
(79,657,o),
(60,641,cs),
(36,619,o),
(14,589,o),
(14,539,cs),
(14,506,o),
(30,478,o),
(51,478,cs),
(67,478,o),
(81,492,o),
(81,514,cs),
(81,529,o),
(78,539,o),
(66,554,cs),
(57,565,o),
(52,579,o),
(52,586,cs),
(52,613,o),
(79,628,o),
(156,628,cs),
(222,628,l),
(225,93,ls),
(225,55,o),
(199,36,o),
(150,36,cs),
(143,36,o),
(143,-3,o),
(150,-3,c)
);
}
);
width = 519;
},
{
anchors = (
{
name = bottom;
pos = (393,0);
},
{
name = top;
pos = (388,663);
}
);
layerId = "9E6FDE2E-55A6-44A9-9556-F1822294BF26";
shapes = (
{
closed = 1;
nodes = (
(279,-1,o),
(331,0,o),
(383,0,cs),
(435,0,o),
(487,-1,o),
(540,-3,c),
(552,-3,o),
(551,31,o),
(540,31,cs),
(463,31,o),
(426,50,o),
(426,88,cs),
(426,628,l),
(556,628,ls),
(671,628,o),
(717,589,o),
(717,493,cs),
(717,483,o),
(757,484,o),
(757,493,cs),
(757,651,ls),
(757,660,o),
(740,665,o),
(715,665,cs),
(605,665,o),
(495,663,o),
(385,663,cs),
(321,663,o),
(297,665,o),
(243,665,cs),
(151,665,o),
(121,661,o),
(85,640,cs),
(38,611,o),
(20,571,o),
(20,539,cs),
(20,498,o),
(37,478,o),
(64,478,cs),
(91,478,o),
(104,493,o),
(104,514,cs),
(104,528,o),
(97,543,o),
(83,554,cs),
(70,565,o),
(62,575,o),
(62,586,cs),
(62,625,o),
(101,628,o),
(255,628,cs),
(345,628,l),
(345,88,ls),
(345,50,o),
(306,31,o),
(227,31,cs),
(214,31,o),
(216,-3,o),
(227,-3,c)
);
}
);
width = 778;
},
{
anchors = (
{
name = bottom;
pos = (325,0);
},
{
name = top;
pos = (325,663);
}
);
layerId = "00F4936D-6309-4DEC-83B3-42806ED1A477";
shapes = (
{
closed = 1;
nodes = (
(231,-1,o),
(275,0,o),
(320,0,cs),
(364,0,o),
(409,-1,o),
(453,-3,c),
(463,-3,o),
(462,34,o),
(453,34,cs),
(392,34,o),
(361,53,o),
(361,91,cs),
(361,628,l),
(465,628,ls),
(556,628,o),
(593,589,o),
(593,493,cs),
(593,483,o),
(630,484,o),
(630,493,cs),
(630,649,ls),
(630,660,o),
(617,665,o),
(592,665,cs),
(502,665,o),
(412,663,o),
(322,663,cs),
(268,663,o),
(234,665,o),
(194,665,cs),
(128,665,o),
(99,659,o),
(72,640,cs),
(36,615,o),
(17,580,o),
(17,539,cs),
(17,502,o),
(33,478,o),
(57,478,cs),
(79,478,o),
(92,492,o),
(92,514,cs),
(92,528,o),
(87,541,o),
(74,554,cs),
(63,565,o),
(57,577,o),
(57,586,cs),
(57,619,o),
(89,628,o),
(205,628,cs),
(283,628,l),
(283,91,ls),
(283,53,o),
(250,34,o),
(187,34,cs),
(177,34,o),
(177,-3,o),
(187,-3,c)
);
}
);
width = 647;
}
);
metricLeft = T;
metricRight = T;
unicode = 428;
}
{
glyphname = Yhook;
kernRight = Y;
layers = (
{
anchors = (
{
name = bottom;
pos = (381,0);
},
{
name = top;
pos = (405,663);
}
);
layerId = master01;
shapes = (
{
closed = 1;
nodes = (
(303,-1,o),
(343,0,o),
(382,0,cs),
(422,0,o),
(462,-1,o),
(501,-3,c),
(510,-3,o),
(511,34,o),
(501,34,cs),
(448,34,o),
(421,53,o),
(421,91,cs),
(421,239,ls),
(421,278,o),
(424,290,o),
(437,310,cs),
(609,575,ls),
(633,611,o),
(667,628,o),
(712,628,cs),
(721,628,o),
(722,666,o),
(712,666,c),
(680,664,o),
(648,663,o),
(616,663,cs),
(584,663,o),
(552,664,o),
(520,666,c),
(510,666,o),
(510,628,o),
(520,628,cs),
(582,628,o),
(586,608,o),
(561,568,cs),
(410,334,l),
(404,334,l),
(332,515,ls),
(284,632,o),
(234,676,o),
(148,676,cs),
(79,676,o),
(17,621,o),
(17,560,cs),
(17,517,o),
(32,489,o),
(57,489,cs),
(79,489,o),
(92,502,o),
(92,525,cs),
(92,536,o),
(86,548,o),
(74,559,cs),
(63,571,o),
(57,580,o),
(57,594,cs),
(57,611,o),
(83,639,o),
(129,639,cs),
(176,639,o),
(200,615,o),
(237,526,cs),
(330,310,ls),
(338,290,o),
(343,278,o),
(343,238,cs),
(343,91,ls),
(343,53,o),
(316,34,o),
(263,34,cs),
(254,34,o),
(254,-3,o),
(263,-3,c)
);
}
);
width = 706;
},
{
anchors = (
{
name = bottom;
pos = (390,0);
},
{
name = top;
pos = (409,663);
}
);
layerId = "75918100-ED89-42A8-B0FE-888EB9C86810";
shapes = (
{
closed = 1;
nodes = (
(312,-1,o),
(355,0,o),
(399,0,cs),
(443,0,o),
(487,-1,o),
(531,-3,c),
(542,-3,o),
(538,42,o),
(531,42,cs),
(483,42,o),
(459,61,o),
(459,99,cs),
(459,244,ls),
(459,281,o),
(459,299,o),
(484,334,cs),
(650,570,ls),
(677,609,o),
(711,620,o),
(753,620,cs),
(762,620,o),
(763,666,o),
(753,666,c),
(716,664,o),
(679,663,o),
(642,663,cs),
(605,663,o),
(568,664,o),
(531,666,c),
(521,666,o),
(521,620,o),
(531,620,cs),
(593,620,o),
(595,597,o),
(571,560,cs),
(433,356,l),
(427,356,l),
(351,542,ls),
(315,628,o),
(250,676,o),
(167,676,cs),
(77,676,o),
(13,622,o),
(13,544,cs),
(13,500,o),
(35,469,o),
(67,469,cs),
(93,469,o),
(109,484,o),
(109,506,cs),
(109,520,o),
(104,532,o),
(91,545,cs),
(78,559,o),
(73,570,o),
(73,583,cs),
(73,610,o),
(98,629,o),
(135,629,cs),
(185,629,o),
(221,594,o),
(252,512,cs),
(322,334,ls),
(337,294,o),
(340,281,o),
(340,241,cs),
(340,99,ls),
(340,61,o),
(316,42,o),
(268,42,cs),
(258,42,o),
(258,-3,o),
(268,-3,c)
);
}
);
width = 745;
},
{
anchors = (
{
name = bottom;
pos = (378,0);
},
{
name = top;
pos = (404,663);
}
);
layerId = "6ABD9449-5E80-4451-809E-12ADEB9E9AB4";
shapes = (
{
closed = 1;
nodes = (
(300,-1,o),
(339,0,o),
(377,0,cs),
(415,0,o),
(454,-1,o),
(492,-3,c),
(500,-3,o),
(502,31,o),
(492,31,cs),
(437,31,o),
(409,50,o),
(409,88,cs),
(409,237,ls),
(409,277,o),
(413,287,o),
(421,301,cs),
(596,577,ls),
(618,611,o),
(652,631,o),
(699,631,cs),
(708,631,o),
(708,666,o),
(699,666,c),
(668,664,o),
(638,663,o),
(608,663,cs),
(577,663,o),
(546,664,o),
(516,666,c),
(507,666,o),
(506,631,o),
(516,631,cs),
(578,631,o),
(583,612,o),
(557,570,cs),
(402,327,l),
(396,327,l),
(325,506,ls),
(274,634,o),
(229,676,o),
(143,676,cs),
(80,676,o),
(18,621,o),
(18,564,cs),
(18,522,o),
(32,496,o),
(54,496,cs),
(75,496,o),
(87,509,o),
(87,531,cs),
(87,541,o),
(80,553,o),
(69,564,cs),
(58,575,o),
(51,583,o),
(51,598,cs),
(51,611,o),
(78,643,o),
(127,643,cs),
(173,643,o),
(193,622,o),
(232,531,cs),
(333,301,ls),
(338,289,o),
(345,277,o),
(345,237,cs),
(345,88,ls),
(345,50,o),
(317,31,o),
(262,31,cs),
(253,31,o),
(252,-3,o),
(262,-3,c)
);
}
);
width = 693;
},
{
anchors = (
{
name = bottom;
pos = (310,0);
},
{
name = top;
pos = (327,663);
}
);
layerId = "70B83247-6FA0-4662-9656-C86DD2A17D3B";
shapes = (
{
closed = 1;
nodes = (
(247,-1,o),
(280,0,o),
(313,0,cs),
(346,0,o),
(379,-1,o),
(412,-3,c),
(419,-3,o),
(419,34,o),
(412,34,cs),
(371,34,o),
(350,53,o),
(350,91,cs),
(350,240,ls),
(350,275,o),
(351,292,o),
(364,317,cs),
(503,576,ls),
(523,613,o),
(550,628,o),
(585,628,cs),
(592,628,o),
(591,666,o),
(584,666,c),
(557,665,o),
(530,663,o),
(502,663,cs),
(475,663,o),
(448,664,o),
(421,666,c),
(414,666,o),
(414,628,o),
(422,628,cs),
(473,628,o),
(479,614,o),
(455,568,cs),
(337,340,l),
(332,340,l),
(273,523,ls),
(240,626,o),
(192,676,o),
(127,676,cs),
(64,676,o),
(14,625,o),
(14,559,cs),
(14,517,o),
(29,489,o),
(51,489,cs),
(69,489,o),
(81,503,o),
(81,524,cs),
(81,536,o),
(77,546,o),
(66,559,cs),
(56,571,o),
(52,581,o),
(52,593,cs),
(52,618,o),
(77,639,o),
(107,639,cs),
(145,639,o),
(169,607,o),
(196,521,cs),
(264,317,ls),
(271,294,o),
(275,272,o),
(275,239,cs),
(275,91,ls),
(275,53,o),
(254,34,o),
(214,34,cs),
(207,34,o),
(207,-3,o),
(214,-3,c)
);
}
);
width = 579;
},
{
anchors = (
{
name = bottom;
pos = (454,0);
},
{
name = top;
pos = (483,663);
}
);
layerId = "9E6FDE2E-55A6-44A9-9556-F1822294BF26";
shapes = (
{
closed = 1;
nodes = (
(359,-1,o),
(407,0,o),
(453,0,cs),
(499,0,o),
(546,-1,o),
(592,-3,c),
(602,-3,o),
(604,34,o),
(592,34,cs),
(526,34,o),
(494,53,o),
(494,91,cs),
(494,237,ls),
(494,281,o),
(499,287,o),
(511,302,cs),
(717,575,ls),
(743,609,o),
(785,628,o),
(841,628,cs),
(851,628,o),
(853,666,o),
(842,666,c),
(805,664,o),
(767,663,o),
(731,663,cs),
(694,663,o),
(656,664,o),
(619,666,c),
(608,665,o),
(606,628,o),
(618,628,cs),
(691,628,o),
(694,603,o),
(667,568,cs),
(483,329,l),
(477,329,l),
(391,506,ls),
(333,628,o),
(272,676,o),
(180,676,cs),
(84,676,o),
(20,627,o),
(20,555,cs),
(20,516,o),
(38,489,o),
(64,489,cs),
(91,489,o),
(104,502,o),
(104,526,cs),
(104,536,o),
(96,549,o),
(83,559,cs),
(68,572,o),
(62,581,o),
(62,589,cs),
(62,618,o),
(99,639,o),
(149,639,cs),
(206,639,o),
(237,613,o),
(279,530,cs),
(396,302,ls),
(405,286,o),
(412,285,o),
(412,237,cs),
(412,91,ls),
(412,53,o),
(379,34,o),
(313,34,cs),
(303,34,o),
(302,-3,o),
(313,-3,c)
);
}
);
width = 834;
},
{
anchors = (
{
name = bottom;
pos = (381,0);
},
{
name = top;
pos = (405,663);
}
);
layerId = "00F4936D-6309-4DEC-83B3-42806ED1A477";
shapes = (
{
closed = 1;
nodes = (
(303,-1,o),
(343,0,o),
(382,0,cs),
(422,0,o),
(462,-1,o),
(501,-3,c),
(510,-3,o),
(511,34,o),
(501,34,cs),
(448,34,o),
(421,53,o),
(421,91,cs),
(421,239,ls),
(421,278,o),
(424,290,o),
(437,310,cs),
(609,575,ls),
(633,611,o),
(667,628,o),
(712,628,cs),
(721,628,o),
(722,666,o),
(712,666,c),
(680,664,o),
(648,663,o),
(616,663,cs),
(584,663,o),
(552,664,o),
(520,666,c),
(510,666,o),
(510,628,o),
(520,628,cs),
(582,628,o),
(586,608,o),
(561,568,cs),
(410,334,l),
(404,334,l),
(332,515,ls),
(284,632,o),
(234,676,o),
(148,676,cs),
(79,676,o),
(17,621,o),
(17,560,cs),
(17,517,o),
(32,489,o),
(57,489,cs),
(79,489,o),
(92,502,o),
(92,525,cs),
(92,536,o),
(86,548,o),
(74,559,cs),
(63,571,o),
(57,580,o),
(57,594,cs),
(57,611,o),
(83,639,o),
(129,639,cs),
(176,639,o),
(200,615,o),
(237,526,cs),
(330,310,ls),
(338,290,o),
(343,278,o),
(343,238,cs),
(343,91,ls),
(343,53,o),
(316,34,o),
(263,34,cs),
(254,34,o),
(254,-3,o),
(263,-3,c)
);
}
);
width = 706;
}
);
metricLeft = T;
metricRight = Y;
unicode = 435;
}
{
glyphname = yhook;
layers = (
{
anchors = (
{
name = bottom;
pos = (273,0);
},
{
name = ogonek_above;
pos = (120,405);
},
{
name = top;
pos = (205,415);
}
);
layerId = master01;
shapes = (
{
closed = 1;
nodes = (
(98,-270,o),
(131,-242,o),
(146,-204,cs),
(365,364,ls),
(395,443,o),
(405,460,o),
(428,460,cs),
(434,460,o),
(443,456,o),
(453,445,cs),
(463,435,o),
(475,430,o),
(488,430,cs),
(505,430,o),
(518,439,o),
(518,458,cs),
(518,477,o),
(499,495,o),
(459,495,cs),
(410,495,o),
(371,474,o),
(337,388,cs),
(218,80,l),
(211,80,l),
(117,351,ls),
(108,378,o),
(123,392,o),
(162,392,cs),
(171,392,o),
(171,418,o),
(162,418,c),
(143,416,o),
(112,415,o),
(71,415,cs),
(29,415,o),
(0,416,o),
(-19,418,c),
(-28,418,o),
(-28,392,o),
(-19,392,cs),
(12,392,o),
(32,380,o),
(40,357,cs),
(182,-48,l),
(185,-3,l),
(120,-165,ls),
(112,-185,o),
(92,-196,o),
(62,-196,cs),
(31,-196,o),
(15,-208,o),
(15,-233,cs),
(15,-253,o),
(36,-270,o),
(63,-270,cs)
);
}
);
width = 409;
},
{
anchors = (
{
name = bottom;
pos = (318,0);
},
{
name = ogonek_above;
pos = (121,405);
},
{
name = top;
pos = (215,415);
}
);
layerId = "75918100-ED89-42A8-B0FE-888EB9C86810";
shapes = (
{
closed = 1;
nodes = (
(111,-270,o),
(145,-245,o),
(165,-195,cs),
(369,314,ls),
(409,415,o),
(425,450,o),
(438,450,cs),
(445,450,o),
(452,444,o),
(459,430,cs),
(468,414,o),
(484,411,o),
(496,411,cs),
(523,411,o),
(537,427,o),
(537,449,cs),
(537,476,o),
(518,495,o),
(468,495,cs),
(403,495,o),
(363,450,o),
(327,355,cs),
(236,122,l),
(227,122,l),
(148,342,ls),
(137,372,o),
(147,383,o),
(183,383,cs),
(192,383,o),
(192,418,o),
(183,418,c),
(162,416,o),
(128,415,o),
(80,415,cs),
(35,415,o),
(1,416,o),
(-19,418,c),
(-28,418,o),
(-28,383,o),
(-19,383,cs),
(7,383,o),
(25,372,o),
(33,348,cs),
(181,-66,l),
(183,-12,l),
(127,-145,ls),
(122,-158,o),
(102,-164,o),
(68,-164,cs),
(38,-164,o),
(7,-181,o),
(7,-216,cs),
(7,-245,o),
(34,-270,o),
(69,-270,cs)
);
}
);
width = 431;
},
{
anchors = (
{
name = bottom;
pos = (258,0);
},
{
name = ogonek_above;
pos = (119,405);
},
{
name = top;
pos = (201,415);
}
);
layerId = "6ABD9449-5E80-4451-809E-12ADEB9E9AB4";
shapes = (
{
closed = 1;
nodes = (
(94,-270,o),
(127,-241,o),
(140,-207,cs),
(357,364,ls),
(391,452,o),
(398,464,o),
(424,464,cs),
(431,464,o),
(440,459,o),
(451,450,cs),
(461,441,o),
(471,437,o),
(485,437,cs),
(499,437,o),
(512,444,o),
(512,460,cs),
(512,478,o),
(492,495,o),
(458,495,cs),
(413,495,o),
(371,476,o),
(337,388,cs),
(212,67,l),
(205,67,l),
(107,354,ls),
(98,381,o),
(115,395,o),
(155,395,cs),
(165,395,o),
(165,418,o),
(155,418,c),
(136,416,o),
(107,415,o),
(68,415,cs),
(27,415,o),
(-1,416,o),
(-19,418,c),
(-28,418,o),
(-28,395,o),
(-19,395,cs),
(13,395,o),
(34,383,o),
(42,360,cs),
(184,-46,l),
(187,5,l),
(118,-172,ls),
(109,-195,o),
(89,-207,o),
(60,-207,cs),
(28,-207,o),
(18,-217,o),
(18,-239,cs),
(18,-256,o),
(37,-270,o),
(61,-270,cs)
);
}
);
width = 402;
},
{
anchors = (
{
name = bottom;
pos = (235,0);
},
{
name = ogonek_above;
pos = (96,405);
},
{
name = top;
pos = (167,415);
}
);
layerId = "70B83247-6FA0-4662-9656-C86DD2A17D3B";
shapes = (
{
closed = 1;
nodes = (
(84,-270,o),
(111,-240,o),
(124,-201,cs),
(299,364,ls),
(320,431,o),
(331,460,o),
(346,460,cs),
(351,460,o),
(358,455,o),
(365,445,cs),
(373,434,o),
(383,430,o),
(393,430,cs),
(410,430,o),
(421,441,o),
(421,458,cs),
(421,479,o),
(406,495,o),
(373,495,cs),
(319,495,o),
(292,462,o),
(270,388,cs),
(181,96,l),
(175,96,l),
(104,352,ls),
(97,378,o),
(108,392,o),
(138,392,cs),
(147,392,o),
(147,418,o),
(138,418,c),
(122,416,o),
(95,415,o),
(60,415,cs),
(26,415,o),
(0,416,o),
(-15,418,c),
(-24,418,o),
(-24,392,o),
(-15,392,cs),
(5,392,o),
(21,382,o),
(28,357,cs),
(143,-49,l),
(144,-20,l),
(99,-158,ls),
(93,-175,o),
(77,-184,o),
(52,-184,cs),
(27,-184,o),
(9,-199,o),
(9,-227,cs),
(9,-250,o),
(28,-270,o),
(53,-270,cs)
);
}
);
width = 334;
},
{
anchors = (
{
name = bottom;
pos = (311,0);
},
{
name = ogonek_above;
pos = (143,405);
},
{
name = top;
pos = (242,415);
}
);
layerId = "9E6FDE2E-55A6-44A9-9556-F1822294BF26";
shapes = (
{
closed = 1;
nodes = (
(112,-270,o),
(152,-244,o),
(168,-208,cs),
(427,364,ls),
(469,456,o),
(479,460,o),
(510,460,cs),
(518,460,o),
(528,456,o),
(542,445,cs),
(554,437,o),
(566,430,o),
(583,430,cs),
(600,430,o),
(615,438,o),
(615,456,cs),
(615,475,o),
(591,495,o),
(550,495,cs),
(501,495,o),
(448,487,o),
(403,388,cs),
(254,63,l),
(248,63,l),
(131,351,ls),
(120,378,o),
(137,392,o),
(187,392,cs),
(196,392,o),
(196,418,o),
(187,418,c),
(164,416,o),
(130,415,o),
(82,415,cs),
(33,415,o),
(-1,416,o),
(-23,418,c),
(-32,418,o),
(-32,392,o),
(-23,392,cs),
(18,392,o),
(43,379,o),
(52,356,cs),
(214,-33,l),
(216,-10,l),
(142,-172,ls),
(131,-196,o),
(107,-208,o),
(71,-208,cs),
(34,-208,o),
(21,-217,o),
(21,-239,cs),
(21,-256,o),
(44,-270,o),
(73,-270,cs)
);
}
);
width = 484;
},
{
anchors = (
{
name = bottom;
pos = (273,0);
},
{
name = ogonek_above;
pos = (120,405);
},
{
name = top;
pos = (205,415);
}
);
layerId = "00F4936D-6309-4DEC-83B3-42806ED1A477";
shapes = (
{
closed = 1;
nodes = (
(98,-270,o),
(131,-242,o),
(146,-204,cs),
(365,364,ls),
(395,443,o),
(405,460,o),
(428,460,cs),
(434,460,o),
(443,456,o),
(453,445,cs),
(463,435,o),
(475,430,o),
(488,430,cs),
(505,430,o),
(518,439,o),
(518,458,cs),
(518,477,o),
(499,495,o),
(459,495,cs),
(410,495,o),
(371,474,o),
(337,388,cs),
(218,80,l),
(211,80,l),
(117,351,ls),
(108,378,o),
(123,392,o),
(162,392,cs),
(171,392,o),
(171,418,o),
(162,418,c),
(143,416,o),
(112,415,o),
(71,415,cs),
(29,415,o),
(0,416,o),
(-19,418,c),
(-28,418,o),
(-28,392,o),
(-19,392,cs),
(12,392,o),
(32,380,o),
(40,357,cs),
(182,-48,l),
(185,-3,l),
(120,-165,ls),
(112,-185,o),
(92,-196,o),
(62,-196,cs),
(31,-196,o),
(15,-208,o),
(15,-233,cs),
(15,-253,o),
(36,-270,o),
(63,-270,cs)
);
}
);
width = 409;
}
);
unicode = 436;
}
{
glyphname = Ezh;
layers = (
{
anchors = (
{
name = bottom;
pos = (208,11);
},
{
name = top;
pos = (244,663);
}
);
layerId = master01;
shapes = (
{
closed = 1;
nodes = (
(363,-13,o),
(464,71,o),
(464,221,cs),
(464,346,o),
(398,426,o),
(291,426,cs),
(247,426,o),
(246,429,o),
(263,443,cs),
(333,500,o),
(396,563,o),
(448,636,cs),
(450,639,o),
(451,644,o),
(451,651,cs),
(451,660,o),
(446,665,o),
(435,665,cs),
(404,665,o),
(373,663,o),
(342,663,cs),
(95,663,ls),
(86,663,o),
(83,659,o),
(82,651,cs),
(65,531,ls),
(64,527,o),
(74,525,o),
(76,528,cs),
(101,579,o),
(113,596,o),
(165,596,cs),
(358,596,l),
(363,590,l),
(300,526,o),
(188,421,o),
(105,379,cs),
(100,376,o),
(125,335,o),
(132,342,cs),
(169,379,o),
(201,396,o),
(242,396,cs),
(322,396,o),
(371,327,o),
(371,208,cs),
(371,101,o),
(329,23,o),
(238,23,cs),
(196,23,o),
(166,40,o),
(145,72,cs),
(123,105,o),
(103,121,o),
(83,121,cs),
(60,121,o),
(44,104,o),
(44,80,cs),
(44,25,o),
(116,-13,o),
(217,-13,cs)
);
}
);
userData = {
com.fontlab.hintData = {
hhints = (
{
position = -27;
width = 75;
},
{
position = 806;
width = 61;
},
{
position = 1215;
width = 137;
}
);
vhints = (
{
position = 768;
width = 182;
}
);
};
};
width = 523;
},
{
anchors = (
{
name = bottom;
pos = (217,11);
},
{
name = top;
pos = (253,663);
}
);
layerId = "75918100-ED89-42A8-B0FE-888EB9C86810";
shapes = (
{
closed = 1;
nodes = (
(359,-13,o),
(472,70,o),
(472,224,cs),
(472,343,o),
(405,423,o),
(297,423,cs),
(252,423,o),
(252,426,o),
(269,440,cs),
(337,499,o),
(397,562,o),
(449,636,cs),
(451,639,o),
(452,644,o),
(452,651,cs),
(452,660,o),
(447,665,o),
(436,665,cs),
(405,665,o),
(374,663,o),
(343,663,cs),
(86,663,ls),
(78,663,o),
(75,659,o),
(73,651,cs),
(53,521,ls),
(51,513,o),
(76,511,o),
(79,519,cs),
(97,569,o),
(115,586,o),
(167,586,cs),
(337,586,l),
(344,577,l),
(280,513,o),
(180,416,o),
(98,377,cs),
(90,374,o),
(120,321,o),
(133,334,cs),
(164,364,o),
(189,379,o),
(225,379,cs),
(297,379,o),
(338,320,o),
(338,207,cs),
(338,112,o),
(306,38,o),
(230,38,cs),
(195,38,o),
(171,54,o),
(150,87,cs),
(130,120,o),
(108,136,o),
(83,136,cs),
(55,136,o),
(36,115,o),
(36,84,cs),
(36,27,o),
(110,-13,o),
(215,-13,cs)
);
}
);
width = 519;
},
{
anchors = (
{
name = bottom;
pos = (207,11);
},
{
name = top;
pos = (243,663);
}
);
layerId = "6ABD9449-5E80-4451-809E-12ADEB9E9AB4";
shapes = (
{
closed = 1;
nodes = (
(365,-13,o),
(463,72,o),
(463,220,cs),
(463,347,o),
(397,427,o),
(291,427,cs),
(246,427,o),
(246,430,o),
(263,444,cs),
(333,501,o),
(397,563,o),
(449,636,cs),
(451,639,o),
(452,644,o),
(452,651,cs),
(452,660,o),
(447,665,o),
(436,665,cs),
(405,665,o),
(374,663,o),
(343,663,cs),
(100,663,ls),
(91,663,o),
(87,659,o),
(86,651,cs),
(70,534,ls),
(70,531,o),
(75,530,o),
(76,531,cs),
(104,582,o),
(114,600,o),
(166,600,cs),
(367,600,l),
(371,594,l),
(309,531,o),
(193,423,o),
(109,379,cs),
(105,377,o),
(129,339,o),
(133,344,cs),
(172,384,o),
(206,402,o),
(249,402,cs),
(332,402,o),
(383,330,o),
(383,209,cs),
(383,97,o),
(338,19,o),
(242,19,cs),
(198,19,o),
(166,35,o),
(144,67,cs),
(122,100,o),
(102,116,o),
(84,116,cs),
(63,116,o),
(49,102,o),
(49,80,cs),
(49,25,o),
(120,-13,o),
(220,-13,cs)
);
}
);
width = 528;
},
{
anchors = (
{
name = bottom;
pos = (172,11);
},
{
name = top;
pos = (201,663);
}
);
layerId = "70B83247-6FA0-4662-9656-C86DD2A17D3B";
shapes = (
{
closed = 1;
nodes = (
(293,-13,o),
(378,71,o),
(378,222,cs),
(378,345,o),
(325,425,o),
(239,425,cs),
(204,425,o),
(203,428,o),
(217,442,cs),
(272,500,o),
(322,563,o),
(360,630,cs),
(365,638,o),
(366,643,o),
(366,650,cs),
(366,660,o),
(361,665,o),
(353,665,cs),
(328,665,o),
(303,663,o),
(279,663,cs),
(78,663,ls),
(71,663,o),
(68,659,o),
(67,651,cs),
(53,529,ls),
(52,524,o),
(63,522,o),
(65,526,cs),
(90,589,o),
(106,599,o),
(143,599,cs),
(286,599,l),
(292,590,l),
(243,527,o),
(153,417,o),
(87,379,cs),
(82,375,o),
(103,330,o),
(111,340,cs),
(137,374,o),
(160,391,o),
(191,391,cs),
(250,391,o),
(285,328,o),
(285,209,cs),
(285,108,o),
(258,23,o),
(191,23,cs),
(161,23,o),
(139,40,o),
(122,72,cs),
(105,105,o),
(88,121,o),
(71,121,cs),
(51,121,o),
(38,104,o),
(38,80,cs),
(38,25,o),
(96,-13,o),
(179,-13,cs)
);
}
);
width = 428;
},
{
anchors = (
{
name = bottom;
pos = (247,11);
},
{
name = top;
pos = (290,663);
}
);
layerId = "9E6FDE2E-55A6-44A9-9556-F1822294BF26";
shapes = (
{
closed = 1;
nodes = (
(434,-13,o),
(552,71,o),
(552,220,cs),
(552,342,o),
(474,419,o),
(345,419,cs),
(292,419,o),
(289,428,o),
(312,443,cs),
(395,500,o),
(472,563,o),
(531,632,cs),
(537,639,o),
(539,644,o),
(539,651,cs),
(539,660,o),
(532,665,o),
(519,665,cs),
(481,665,o),
(445,663,o),
(408,663,cs),
(114,663,ls),
(104,663,o),
(100,659,o),
(99,651,cs),
(79,533,ls),
(79,529,o),
(87,528,o),
(88,530,cs),
(115,573,o),
(128,593,o),
(196,593,cs),
(430,593,l),
(438,590,l),
(363,528,o),
(226,425,o),
(125,379,cs),
(121,377,o),
(147,335,o),
(152,340,cs),
(198,379,o),
(240,394,o),
(290,394,cs),
(394,394,o),
(458,327,o),
(458,207,cs),
(458,98,o),
(408,23,o),
(292,23,cs),
(238,23,o),
(195,40,o),
(169,72,cs),
(143,105,o),
(119,121,o),
(97,121,cs),
(71,121,o),
(53,104,o),
(53,80,cs),
(53,25,o),
(138,-13,o),
(257,-13,cs)
);
}
);
width = 623;
},
{
anchors = (
{
name = bottom;
pos = (208,11);
},
{
name = top;
pos = (244,663);
}
);
layerId = "00F4936D-6309-4DEC-83B3-42806ED1A477";
shapes = (
{
closed = 1;
nodes = (
(363,-13,o),
(464,71,o),
(464,221,cs),
(464,346,o),
(398,426,o),
(291,426,cs),
(247,426,o),
(246,429,o),
(263,443,cs),
(333,500,o),
(396,563,o),
(448,636,cs),
(450,639,o),
(451,644,o),
(451,651,cs),
(451,660,o),
(446,665,o),
(435,665,cs),
(404,665,o),
(373,663,o),
(342,663,cs),
(95,663,ls),
(86,663,o),
(83,659,o),
(82,651,cs),
(65,531,ls),
(64,527,o),
(74,525,o),
(76,528,cs),
(101,579,o),
(113,596,o),
(165,596,cs),
(358,596,l),
(363,590,l),
(300,526,o),
(188,421,o),
(105,379,cs),
(100,376,o),
(125,335,o),
(132,342,cs),
(169,379,o),
(201,396,o),
(242,396,cs),
(322,396,o),
(371,327,o),
(371,208,cs),
(371,101,o),
(329,23,o),
(238,23,cs),
(196,23,o),
(166,40,o),
(145,72,cs),
(123,105,o),
(103,121,o),
(83,121,cs),
(60,121,o),
(44,104,o),
(44,80,cs),
(44,25,o),
(116,-13,o),
(217,-13,cs)
);
}
);
userData = {
com.fontlab.hintData = {
hhints = (
{
position = -27;
width = 75;
},
{
position = 806;
width = 61;
},
{
position = 1215;
width = 137;
}
);
vhints = (
{
position = 768;
width = 182;
}
);
};
};
width = 523;
}
);
metricRight = B;
unicode = 439;
}
{
glyphname = Gstroke;
kernLeft = C;
layers = (
{
layerId = master01;
shapes = (
{
closed = 1;
nodes = (
(422,-13,o),
(441,-11,o),
(513,1,cs),
(551,8,o),
(604,15,o),
(619,15,cs),
(628,15,o),
(628,38,o),
(619,38,cs),
(606,38,o),
(601,48,o),
(601,70,cs),
(601,207,ls),
(601,244,o),
(624,263,o),
(669,263,cs),
(680,263,o),
(679,300,o),
(669,300,c),
(630,297,o),
(591,297,o),
(552,297,cs),
(505,297,o),
(458,297,o),
(411,300,c),
(401,300,o),
(402,263,o),
(411,263,cs),
(485,263,o),
(522,244,o),
(522,207,cs),
(522,84,ls),
(522,36,o),
(494,23,o),
(408,23,cs),
(241,23,o),
(138,166,o),
(138,354,cs),
(138,521,o),
(245,642,o),
(393,642,cs),
(502,642,o),
(582,580,o),
(582,495,c),
(583,486,o),
(616,485,o),
(616,498,cs),
(616,575,o),
(611,621,o),
(602,648,c),
(587,648,o),
(567,652,o),
(526,662,cs),
(486,670,o),
(449,676,o),
(408,676,cs),
(203,676,o),
(44,523,o),
(44,326,cs),
(44,132,o),
(186,-13,o),
(375,-13,cs)
);
},
{
closed = 1;
nodes = (
(699,128,ls),
(708,128,o),
(708,169,o),
(700,169,cs),
(393,169,ls),
(384,169,o),
(384,128,o),
(393,128,cs)
);
}
);
width = 688;
},
{
layerId = "75918100-ED89-42A8-B0FE-888EB9C86810";
shapes = (
{
closed = 1;
nodes = (
(430,-13,o),
(483,-8,o),
(541,2,cs),
(602,12,o),
(640,17,o),
(656,17,cs),
(666,17,o),
(665,56,o),
(656,56,cs),
(642,56,o),
(635,63,o),
(635,78,cs),
(635,218,ls),
(635,243,o),
(652,255,o),
(688,255,cs),
(697,255,o),
(697,300,o),
(688,300,c),
(647,297,o),
(606,297,o),
(565,297,cs),
(518,297,o),
(470,297,o),
(422,300,c),
(412,300,o),
(413,255,o),
(422,255,cs),
(500,255,o),
(516,249,o),
(516,218,cs),
(516,78,ls),
(516,47,o),
(479,33,o),
(412,33,cs),
(264,33,o),
(169,167,o),
(169,344,cs),
(169,517,o),
(267,633,o),
(412,633,cs),
(518,633,o),
(588,574,o),
(588,486,c),
(591,475,o),
(634,479,o),
(634,490,cs),
(634,564,o),
(628,612,o),
(614,649,c),
(595,650,o),
(575,654,o),
(537,661,cs),
(491,670,o),
(453,676,o),
(409,676,cs),
(185,676,o),
(36,532,o),
(36,316,cs),
(36,128,o),
(185,-13,o),
(385,-13,cs)
);
},
{
closed = 1;
nodes = (
(719,126,ls),
(728,126,o),
(727,172,o),
(719,172,cs),
(406,172,ls),
(397,172,o),
(398,126,o),
(406,126,cs)
);
}
);
width = 704;
},
{
layerId = "6ABD9449-5E80-4451-809E-12ADEB9E9AB4";
shapes = (
{
closed = 1;
nodes = (
(423,-13,o),
(438,-12,o),
(505,0,cs),
(536,6,o),
(593,15,o),
(608,15,cs),
(617,15,o),
(617,31,o),
(608,31,cs),
(596,31,o),
(591,43,o),
(591,68,cs),
(591,203,ls),
(591,245,o),
(615,265,o),
(665,265,cs),
(675,265,o),
(675,300,o),
(665,300,c),
(626,297,o),
(587,297,o),
(549,297,cs),
(502,297,o),
(456,297,o),
(409,300,c),
(399,300,o),
(400,265,o),
(409,265,cs),
(482,265,o),
(526,243,o),
(526,203,cs),
(526,86,ls),
(526,38,o),
(462,20,o),
(395,20,cs),
(200,20,o),
(129,189,o),
(129,348,cs),
(129,543,o),
(243,645,o),
(390,645,cs),
(499,645,o),
(581,582,o),
(582,498,c),
(581,490,o),
(611,487,o),
(611,500,cs),
(611,579,o),
(607,624,o),
(599,647,c),
(586,647,o),
(566,652,o),
(523,662,cs),
(480,672,o),
(445,676,o),
(407,676,cs),
(207,676,o),
(49,523,o),
(49,329,cs),
(49,133,o),
(188,-13,o),
(373,-13,cs)
);
},
{
closed = 1;
nodes = (
(694,128,ls),
(703,128,o),
(703,167,o),
(695,167,cs),
(394,167,ls),
(385,167,o),
(385,128,o),
(394,128,cs)
);
}
);
width = 685;
},
{
layerId = "70B83247-6FA0-4662-9656-C86DD2A17D3B";
shapes = (
{
closed = 1;
nodes = (
(346,-13,o),
(369,-10,o),
(424,1,cs),
(458,9,o),
(500,16,o),
(511,16,cs),
(518,16,o),
(518,43,o),
(511,43,cs),
(500,43,o),
(495,53,o),
(495,73,cs),
(495,212,ls),
(495,246,o),
(512,263,o),
(546,263,cs),
(554,263,o),
(553,300,o),
(546,300,c),
(513,297,o),
(481,297,o),
(448,297,cs),
(411,297,o),
(374,297,o),
(337,300,c),
(329,300,o),
(329,263,o),
(337,263,cs),
(402,263,o),
(420,244,o),
(420,212,cs),
(420,83,ls),
(420,40,o),
(396,23,o),
(329,23,cs),
(199,23,o),
(131,164,o),
(131,352,cs),
(131,516,o),
(216,642,o),
(329,642,cs),
(413,642,o),
(472,580,o),
(472,492,c),
(474,483,o),
(502,482,o),
(502,496,cs),
(502,580,o),
(498,625,o),
(490,648,c),
(481,649,o),
(463,653,o),
(431,661,cs),
(393,670,o),
(361,676,o),
(327,676,cs),
(162,676,o),
(38,525,o),
(38,323,cs),
(38,132,o),
(154,-13,o),
(307,-13,cs)
);
},
{
closed = 1;
nodes = (
(570,128,ls),
(579,128,o),
(578,169,o),
(571,169,cs),
(330,169,ls),
(321,169,o),
(321,128,o),
(330,128,cs)
);
}
);
width = 562;
},
{
layerId = "9E6FDE2E-55A6-44A9-9556-F1822294BF26";
shapes = (
{
closed = 1;
nodes = (
(499,-13,o),
(520,-11,o),
(604,0,cs),
(646,7,o),
(709,15,o),
(729,15,cs),
(740,15,o),
(740,32,o),
(729,32,cs),
(714,32,o),
(708,43,o),
(708,68,cs),
(708,201,ls),
(708,243,o),
(737,263,o),
(795,263,cs),
(808,263,o),
(807,300,o),
(795,300,c),
(750,297,o),
(703,297,o),
(657,297,cs),
(601,297,o),
(544,297,o),
(487,300,c),
(476,300,o),
(477,263,o),
(487,263,cs),
(570,263,o),
(626,244,o),
(626,201,cs),
(626,86,ls),
(626,36,o),
(591,23,o),
(474,23,cs),
(275,23,o),
(146,147,o),
(146,337,cs),
(146,521,o),
(263,642,o),
(459,642,cs),
(593,642,o),
(694,580,o),
(694,498,c),
(693,490,o),
(731,487,o),
(731,500,cs),
(731,570,o),
(727,616,o),
(715,647,c),
(696,647,o),
(673,651,o),
(623,662,cs),
(569,672,o),
(516,676,o),
(477,676,cs),
(207,676,o),
(53,532,o),
(53,324,cs),
(53,123,o),
(214,-13,o),
(442,-13,cs)
);
},
{
closed = 1;
nodes = (
(831,128,ls),
(839,128,o),
(840,169,o),
(832,169,cs),
(458,169,ls),
(449,169,o),
(448,128,o),
(458,128,cs)
);
}
);
width = 818;
},
{
layerId = "00F4936D-6309-4DEC-83B3-42806ED1A477";
shapes = (
{
closed = 1;
nodes = (
(422,-13,o),
(441,-11,o),
(513,1,cs),
(551,8,o),
(604,15,o),
(619,15,cs),
(628,15,o),
(628,38,o),
(619,38,cs),
(606,38,o),
(601,48,o),
(601,70,cs),
(601,207,ls),
(601,244,o),
(624,263,o),
(669,263,cs),
(680,263,o),
(679,300,o),
(669,300,c),
(630,297,o),
(591,297,o),
(552,297,cs),
(505,297,o),
(458,297,o),
(411,300,c),
(401,300,o),
(402,263,o),
(411,263,cs),
(485,263,o),
(522,244,o),
(522,207,cs),
(522,84,ls),
(522,36,o),
(494,23,o),
(408,23,cs),
(241,23,o),
(138,166,o),
(138,354,cs),
(138,521,o),
(245,642,o),
(393,642,cs),
(502,642,o),
(582,580,o),
(582,495,c),
(583,486,o),
(616,485,o),
(616,498,cs),
(616,575,o),
(611,621,o),
(602,648,c),
(587,648,o),
(567,652,o),
(526,662,cs),
(486,670,o),
(449,676,o),
(408,676,cs),
(203,676,o),
(44,523,o),
(44,326,cs),
(44,132,o),
(186,-13,o),
(375,-13,cs)
);
},
{
closed = 1;
nodes = (
(699,126,ls),
(708,126,o),
(708,171,o),
(700,171,cs),
(393,171,ls),
(384,171,o),
(384,126,o),
(393,126,cs)
);
}
);
width = 688;
}
);
metricLeft = C;
metricWidth = G;
unicode = 484;
}
{
color = 9;
glyphname = oogonek;
kernLeft = c;
kernRight = b;
layers = (
{
anchors = (
{
name = bottom;
pos = (244,-224);
},
{
name = ogonek_above;
pos = (231,415);
},
{
name = top;
pos = (244,415);
},
{
name = us;
pos = (381,415);
}
);
layerId = master01;
shapes = (
{
closed = 1;
nodes = (
(292,-238,o),
(320,-221,o),
(347,-185,cs),
(347,-176,o),
(344,-170,o),
(337,-167,cs),
(323,-179,o),
(306,-184,o),
(287,-184,cs),
(250,-184,o),
(227,-164,o),
(227,-129,cs),
(227,-70,o),
(269,-34,o),
(332,7,cs),
(407,55,o),
(448,120,o),
(448,205,cs),
(448,319,o),
(360,425,o),
(245,425,cs),
(130,425,o),
(38,318,o),
(38,209,cs),
(38,96,o),
(129,-11,o),
(249,-11,cs),
(256,-11,o),
(255,-14,o),
(247,-21,cs),
(198,-60,o),
(158,-101,o),
(158,-152,cs),
(158,-202,o),
(191,-238,o),
(247,-238,cs)
);
},
{
closed = 1;
nodes = (
(167,21,o),
(117,111,o),
(117,207,cs),
(117,303,o),
(168,396,o),
(244,396,cs),
(319,396,o),
(368,300,o),
(368,206,cs),
(368,110,o),
(318,21,o),
(243,21,cs)
);
}
);
width = 485;
},
{
anchors = (
{
name = bottom;
pos = (246,-238);
},
{
name = ogonek_above;
pos = (232,415);
},
{
name = top;
pos = (246,415);
},
{
name = us;
pos = (393,415);
}
);
layerId = "75918100-ED89-42A8-B0FE-888EB9C86810";
shapes = (
{
closed = 1;
nodes = (
(296,-253,o),
(331,-235,o),
(356,-198,c),
(356,-188,o),
(353,-181,o),
(346,-179,c),
(333,-189,o),
(316,-194,o),
(296,-194,cs),
(256,-194,o),
(236,-175,o),
(236,-135,cs),
(236,-72,o),
(280,-28,o),
(346,3,cs),
(423,40,o),
(471,98,o),
(471,208,cs),
(471,326,o),
(382,425,o),
(250,425,cs),
(121,425,o),
(30,327,o),
(30,207,cs),
(30,87,o),
(119,-1,o),
(231,-11,cs),
(240,-12,o),
(239,-14,o),
(232,-21,cs),
(178,-71,o),
(150,-119,o),
(150,-163,cs),
(150,-223,o),
(183,-253,o),
(250,-253,cs)
);
},
{
closed = 1;
nodes = (
(187,30,o),
(154,113,o),
(154,205,cs),
(154,288,o),
(187,387,o),
(251,387,cs),
(313,387,o),
(347,296,o),
(347,205,cs),
(347,124,o),
(319,30,o),
(250,30,cs)
);
}
);
width = 501;
},
{
anchors = (
{
name = bottom;
pos = (245,-219);
},
{
name = ogonek_above;
pos = (232,415);
},
{
name = top;
pos = (245,415);
},
{
name = us;
pos = (382,415);
}
);
layerId = "6ABD9449-5E80-4451-809E-12ADEB9E9AB4";
shapes = (
{
closed = 1;
nodes = (
(292,-233,o),
(317,-217,o),
(346,-181,c),
(346,-172,o),
(342,-166,o),
(335,-164,c),
(321,-175,o),
(304,-181,o),
(285,-181,cs),
(250,-181,o),
(225,-161,o),
(225,-127,cs),
(225,-70,o),
(268,-36,o),
(329,8,cs),
(403,60,o),
(441,127,o),
(441,204,cs),
(441,316,o),
(354,425,o),
(244,425,cs),
(134,425,o),
(42,315,o),
(42,210,cs),
(42,99,o),
(125,-11,o),
(256,-11,cs),
(263,-11,o),
(262,-14,o),
(253,-21,cs),
(206,-57,o),
(162,-95,o),
(162,-148,cs),
(162,-195,o),
(196,-233,o),
(247,-233,cs)
);
},
{
closed = 1;
nodes = (
(163,18,o),
(106,111,o),
(106,207,cs),
(106,309,o),
(164,399,o),
(243,399,cs),
(323,399,o),
(376,302,o),
(376,207,cs),
(376,105,o),
(320,18,o),
(242,18,cs)
);
}
);
width = 483;
},
{
anchors = (
{
name = bottom;
pos = (200,-228);
},
{
name = ogonek_above;
pos = (189,415);
},
{
name = top;
pos = (200,415);
},
{
name = us;
pos = (312,415);
}
);
layerId = "70B83247-6FA0-4662-9656-C86DD2A17D3B";
shapes = (
{
closed = 1;
nodes = (
(239,-243,o),
(267,-224,o),
(283,-188,cs),
(287,-179,o),
(282,-170,o),
(277,-172,cs),
(260,-181,o),
(255,-187,o),
(236,-187,cs),
(206,-187,o),
(188,-167,o),
(188,-131,cs),
(188,-71,o),
(223,-32,o),
(273,5,cs),
(334,51,o),
(369,113,o),
(369,206,cs),
(369,321,o),
(298,425,o),
(201,425,cs),
(105,425,o),
(32,321,o),
(32,208,cs),
(32,93,o),
(106,-9,o),
(197,-11,cs),
(204,-11,o),
(203,-14,o),
(197,-21,cs),
(155,-65,o),
(128,-107,o),
(128,-155,cs),
(128,-208,o),
(155,-243,o),
(203,-243,cs)
);
},
{
closed = 1;
nodes = (
(144,23,o),
(109,112,o),
(109,206,cs),
(109,299,o),
(145,394,o),
(201,394,cs),
(257,394,o),
(292,299,o),
(292,206,cs),
(292,115,o),
(259,23,o),
(200,23,cs)
);
}
);
width = 401;
},
{
anchors = (
{
name = bottom;
pos = (290,-219);
},
{
name = ogonek_above;
pos = (274,415);
},
{
name = top;
pos = (290,415);
},
{
name = us;
pos = (452,415);
}
);
layerId = "9E6FDE2E-55A6-44A9-9556-F1822294BF26";
shapes = (
{
closed = 1;
nodes = (
(345,-234,o),
(375,-218,o),
(413,-182,cs),
(409,-172,o),
(407,-170,o),
(398,-163,cs),
(387,-176,o),
(358,-181,o),
(339,-181,cs),
(296,-181,o),
(267,-161,o),
(267,-127,cs),
(267,-69,o),
(318,-36,o),
(392,8,cs),
(480,60,o),
(528,127,o),
(528,204,cs),
(528,317,o),
(423,425,o),
(290,425,cs),
(156,425,o),
(45,316,o),
(45,210,cs),
(45,99,o),
(154,-14,o),
(301,-11,cs),
(309,-11,o),
(309,-14,o),
(298,-21,cs),
(242,-55,o),
(189,-95,o),
(189,-148,cs),
(189,-196,o),
(229,-234,o),
(292,-234,cs)
);
},
{
closed = 1;
nodes = (
(193,19,o),
(127,110,o),
(127,207,cs),
(127,308,o),
(194,398,o),
(288,398,cs),
(383,398,o),
(445,302,o),
(445,207,cs),
(445,105,o),
(379,19,o),
(287,19,cs)
);
}
);
width = 573;
},
{
anchors = (
{
name = bottom;
pos = (338,-297);
},
{
name = ogonek_above;
pos = (323,657);
},
{
name = top;
pos = (343,657);
},
{
name = us;
pos = (577,657);
}
);
guides = (
{
pos = (840,1386);
},
{
pos = (929,13);
}
);
layerId = "00F4936D-6309-4DEC-83B3-42806ED1A477";
shapes = (
{
closed = 1;
nodes = (
(399,-313,o),
(437,-290,o),
(473,-242,c),
(473,-229,o),
(469,-221,o),
(459,-218,c),
(441,-233,o),
(418,-240,o),
(393,-240,cs),
(345,-240,o),
(313,-214,o),
(313,-167,cs),
(313,-92,o),
(360,-28,o),
(453,6,cs),
(571,51,o),
(643,169,o),
(643,332,cs),
(643,541,o),
(523,676,o),
(340,676,cs),
(157,676,o),
(38,540,o),
(38,332,cs),
(38,123,o),
(157,-13,o),
(340,-13,cs),
(347,-13,o),
(348,-16,o),
(341,-22,cs),
(275,-75,o),
(221,-130,o),
(221,-197,cs),
(221,-264,o),
(266,-313,o),
(339,-313,cs)
);
},
{
closed = 1;
nodes = (
(218,23,o),
(131,152,o),
(131,333,cs),
(131,505,o),
(224,642,o),
(340,642,cs),
(461,642,o),
(549,513,o),
(549,333,cs),
(549,152,o),
(463,23,o),
(340,23,cs)
);
}
);
width = 680;
}
);
metricLeft = o;
metricRight = o;
unicode = 491;
}
